<?xml version="1.0" encoding="UTF-8" standalone="no"?>
<!-- Created with Inkscape (http://www.inkscape.org/) -->

<svg
   width="400"
   height="200"
   viewBox="0 0 400 200"
   version="1.1"
   id="svg1"
   xml:space="preserve"
   inkscape:version="1.4.3 (0d15f75, 2025-12-25)"
   sodipodi:docname="size-preview.svg"
   inkscape:export-filename="size-preview.webp"
   inkscape:export-xdpi="200"
   inkscape:export-ydpi="200"
   xmlns:inkscape="http://www.inkscape.org/namespaces/inkscape"
   xmlns:sodipodi="http://sodipodi.sourceforge.net/DTD/sodipodi-0.dtd"
   xmlns="http://www.w3.org/2000/svg"
   xmlns:svg="http://www.w3.org/2000/svg"><sodipodi:namedview
     id="namedview1"
     pagecolor="#a2af64"
     bordercolor="#000000"
     borderopacity="0.25"
     inkscape:showpageshadow="2"
     inkscape:pageopacity="0.0"
     inkscape:pagecheckerboard="false"
     inkscape:deskcolor="#d1d1d1"
     inkscape:document-units="px"
     inkscape:zoom="2.8507296"
     inkscape:cx="204.50905"
     inkscape:cy="193.63464"
     inkscape:window-width="1920"
     inkscape:window-height="1009"
     inkscape:window-x="2711"
     inkscape:window-y="1072"
     inkscape:window-maximized="1"
     inkscape:current-layer="layer1"
     showborder="false"><inkscape:page
       x="0"
       y="0"
       width="400"
       height="200"
       id="page2"
       margin="0"
       bleed="0" /></sodipodi:namedview><defs
     id="defs1"><linearGradient
       id="swatch41"
       inkscape:swatch="solid"><stop
         style="stop-color:#000000;stop-opacity:1;"
         offset="0"
         id="stop41" /></linearGradient><linearGradient
       id="swatch40"
       inkscape:swatch="solid"><stop
         style="stop-color:#000000;stop-opacity:1;"
         offset="0"
         id="stop40" /></linearGradient><linearGradient
       id="swatch39"
       inkscape:swatch="solid"><stop
         style="stop-color:#000000;stop-opacity:1;"
         offset="0"
         id="stop39" /></linearGradient><linearGradient
       id="swatch38"
       inkscape:swatch="solid"><stop
         style="stop-color:#000000;stop-opacity:1;"
         offset="0"
         id="stop38" /></linearGradient><linearGradient
       id="swatch37"
       inkscape:swatch="solid"><stop
         style="stop-color:#000000;stop-opacity:1;"
         offset="0"
         id="stop37" /></linearGradient><linearGradient
       id="swatch36"
       inkscape:swatch="solid"><stop
         style="stop-color:#000000;stop-opacity:1;"
         offset="0"
         id="stop36" /></linearGradient><linearGradient
       id="swatch35"
       inkscape:swatch="solid"><stop
         style="stop-color:#000000;stop-opacity:1;"
         offset="0"
         id="stop35" /></linearGradient><linearGradient
       id="swatch34"
       inkscape:swatch="solid"><stop
         style="stop-color:#000000;stop-opacity:1;"
         offset="0"
         id="stop34" /></linearGradient><linearGradient
       id="swatch33"
       inkscape:swatch="solid"><stop
         style="stop-color:#000000;stop-opacity:1;"
         offset="0"
         id="stop33" /></linearGradient><linearGradient
       id="swatch32"
       inkscape:swatch="solid"><stop
         style="stop-color:#000000;stop-opacity:1;"
         offset="0"
         id="stop32" /></linearGradient><linearGradient
       id="swatch31"
       inkscape:swatch="solid"><stop
         style="stop-color:#000000;stop-opacity:1;"
         offset="0"
         id="stop31" /></linearGradient><linearGradient
       id="swatch30"
       inkscape:swatch="solid"><stop
         style="stop-color:#000000;stop-opacity:1;"
         offset="0"
         id="stop30" /></linearGradient><linearGradient
       id="swatch29"
       inkscape:swatch="solid"><stop
         style="stop-color:#000000;stop-opacity:1;"
         offset="0"
         id="stop29" /></linearGradient></defs><g
     inkscape:groupmode="layer"
     id="layer1"
     inkscape:label="Layer 3"
     style="display:inline;fill:#ffffff;fill-opacity:1;stroke:#ffffff;stroke-opacity:1"
     transform="matrix(3.8568427,0,0,3.8568427,-6.9010646,-86.865148)"><g
       id="g16"
       style="fill:#ffffff;fill-opacity:1;stroke:#ffffff;stroke-opacity:1"
       transform="translate(0.51450196,-3.4728883)"><g
         id="g5"
         transform="matrix(0.39592883,0,0,0.39592883,-23.724994,-5.8339541)"
         style="fill:#ffffff;fill-opacity:1;stroke:#241f1c;stroke-width:0.33413;stroke-dasharray:none;stroke-opacity:1"><g
           id="path3"
           style="opacity:1"><path
             style="baseline-shift:baseline;display:inline;overflow:visible;vector-effect:none;fill-rule:evenodd;stroke:none;stroke-linecap:round;stroke-linejoin:round;enable-background:accumulate;stop-color:#000000;stop-opacity:1"
             d="m 67.859711,121.80621 96.211159,25.98883 v 41.60837 L 67.465942,158.68934 Z"
             id="path41" /><path
             style="baseline-shift:baseline;display:inline;overflow:visible;vector-effect:none;fill:#241f1c;fill-rule:evenodd;stroke:none;stroke-linecap:round;stroke-linejoin:round;enable-background:accumulate;stop-color:#000000;stop-opacity:1"
             d="m 67.902344,121.64453 a 0.16708167,0.16708167 0 0 0 -0.208985,0.16016 l -0.394531,36.88281 a 0.16708167,0.16708167 0 0 0 0.117188,0.16016 l 96.603514,30.71484 a 0.16708167,0.16708167 0 0 0 0.21875,-0.1582 v -41.60938 a 0.16708167,0.16708167 0 0 0 -0.12305,-0.16211 z m 0.123047,0.37891 95.878909,25.90039 v 41.25195 L 67.634766,158.56836 Z"
             id="path42" /></g><g
           id="path4"
           style="opacity:1"><path
             style="baseline-shift:baseline;display:inline;overflow:visible;vector-effect:none;fill-rule:evenodd;stroke:none;stroke-linecap:round;stroke-linejoin:round;enable-background:accumulate;stop-color:#000000;stop-opacity:1"
             d="M 68.056595,121.80621 215.92828,91.698748 305.30307,116.29343 164.18531,147.94312 Z"
             id="path43" /><path
             style="baseline-shift:baseline;display:inline;overflow:visible;vector-effect:none;fill:#241f1c;fill-rule:evenodd;stroke:none;stroke-linecap:round;stroke-linejoin:round;enable-background:accumulate;stop-color:#000000;stop-opacity:1"
             d="M 215.89453,91.535156 68.023437,121.64258 a 0.16708167,0.16708167 0 0 0 -0.0098,0.32422 l 96.126943,26.13672 a 0.16708167,0.16708167 0 0 0 0.082,0.002 l 141.11718,-31.64844 a 0.16708167,0.16708167 0 0 0 0.008,-0.32422 l -89.375,-24.595701 a 0.16708167,0.16708167 0 0 0 -0.0781,-0.002 z m 0.0273,0.335938 88.68946,24.406246 -140.42188,31.49414 -95.4082,-25.9414 z"
             id="path44" /></g><g
           id="path5"
           style="opacity:1"><path
             style="baseline-shift:baseline;display:inline;overflow:visible;vector-effect:none;fill-rule:evenodd;stroke:none;stroke-linecap:round;stroke-linejoin:round;enable-background:accumulate;stop-color:#000000;stop-opacity:1"
             d="m 164.00524,189.40341 0.32814,-41.34586 141.03531,-31.82975 0.0656,37.21128 z"
             id="path45" /><path
             style="baseline-shift:baseline;display:inline;overflow:visible;vector-effect:none;fill:#241f1c;fill-rule:evenodd;stroke:none;stroke-linecap:round;stroke-linejoin:round;enable-background:accumulate;stop-color:#000000;stop-opacity:1"
             d="m 305.33203,116.06445 -141.03516,31.83008 a 0.16708167,0.16708167 0 0 0 -0.13085,0.16211 l -0.32813,41.3457 a 0.16708167,0.16708167 0 0 0 0.20898,0.16211 l 141.42774,-35.96289 a 0.16708167,0.16708167 0 0 0 0.12695,-0.16211 l -0.0664,-37.21289 a 0.16708167,0.16708167 0 0 0 -0.20313,-0.16211 z m -0.13086,0.37305 0.0664,36.87109 -141.09375,35.88086 0.32617,-40.99804 z"
             id="path46" /></g></g><g
         id="g8"
         transform="matrix(0.39592883,0,0,0.39592883,-23.724994,-5.8339541)"
         style="fill:#ffffff;fill-opacity:1;stroke:#241f1c;stroke-width:0.33413;stroke-dasharray:none;stroke-opacity:1"><g
           id="path6"
           style="opacity:1"><path
             style="baseline-shift:baseline;display:inline;overflow:visible;vector-effect:none;fill-rule:evenodd;stroke:none;stroke-linecap:round;stroke-linejoin:round;enable-background:accumulate;stop-color:#000000;stop-opacity:1"
             d="m 173.53268,192.1049 0.20951,1.03199 128.38114,-32.88107 -0.14155,-0.72225 z"
             id="path47" /><path
             style="baseline-shift:baseline;display:inline;overflow:visible;vector-effect:none;fill:#241f1c;fill-rule:evenodd;stroke:none;stroke-linecap:round;stroke-linejoin:round;enable-background:accumulate;stop-color:#000000;stop-opacity:1"
             d="m 301.94141,159.37109 -128.44922,32.57227 a 0.16708167,0.16708167 0 0 0 -0.12305,0.19531 l 0.20898,1.03125 a 0.16708167,0.16708167 0 0 0 0.20508,0.12891 l 128.38086,-32.88086 a 0.16708167,0.16708167 0 0 0 0.12305,-0.19336 l -0.14063,-0.72266 a 0.16708167,0.16708167 0 0 0 -0.20507,-0.13086 z m -0.0899,0.36719 0.0781,0.39453 -128.0586,32.79883 -0.14257,-0.70312 z"
             id="path48" /></g><g
           id="path7"
           style="opacity:1"
           transform="translate(3.526875,-3.155625)"><path
             style="baseline-shift:baseline;display:inline;overflow:visible;vector-effect:none;fill-rule:evenodd;stroke:none;stroke-linecap:round;stroke-linejoin:round;enable-background:accumulate;stop-color:#000000;stop-opacity:1"
             d="m 297.22192,160.51066 1.26542,2.4477 0.15827,2.96266 a 0.24245577,0.24245577 24.266338 0 0 0.39274,0.17705 l 5.54568,-4.39694 a 0.31528238,0.31528238 74.538955 0 0 -0.15479,-0.55965 l -7.00391,-0.92051 a 0.19968902,0.19968902 125.07458 0 0 -0.20341,0.28969 z"
             id="path49" /><path
             style="baseline-shift:baseline;display:inline;overflow:visible;vector-effect:none;fill:#241f1c;fill-rule:evenodd;stroke:none;stroke-linecap:round;stroke-linejoin:round;enable-background:accumulate;stop-color:#000000;stop-opacity:1"
             d="m 297.44727,160.05469 c -0.28406,-0.0373 -0.50463,0.2787 -0.37305,0.5332 l 1.24805,2.41602 0.15625,2.92578 c 0.0172,0.3221 0.4113,0.49923 0.66406,0.29883 l 5.54492,-4.39649 c 0.16156,-0.12809 0.21361,-0.33379 0.16602,-0.50586 -0.0476,-0.17206 -0.19793,-0.32274 -0.40235,-0.34961 z m -0.043,0.33203 7.0039,0.91992 c 0.0717,0.009 0.10772,0.052 0.12305,0.10742 0.0153,0.0554 0.006,0.11131 -0.0508,0.15625 l -5.54688,4.39649 c -0.0557,0.0442 -0.1173,0.0163 -0.12109,-0.0547 l -0.1582,-2.96289 a 0.16708167,0.16708167 0 0 0 -0.0176,-0.0684 l -1.26563,-2.44727 c -0.0166,-0.032 -0.003,-0.0516 0.0332,-0.0469 z"
             id="path50" /></g><g
           id="path8"
           style="opacity:1"
           transform="rotate(-179.02721,236.1813,178.35445)"><path
             style="baseline-shift:baseline;display:inline;overflow:visible;vector-effect:none;fill-rule:evenodd;stroke:none;stroke-linecap:round;stroke-linejoin:round;enable-background:accumulate;stop-color:#000000;stop-opacity:1"
             d="m 297.22192,160.51066 1.26542,2.4477 0.15827,2.96266 a 0.24245577,0.24245577 24.266338 0 0 0.39274,0.17705 l 5.54568,-4.39694 a 0.31528238,0.31528238 74.538955 0 0 -0.15479,-0.55965 l -7.00391,-0.92051 a 0.19968902,0.19968902 125.07458 0 0 -0.20341,0.28969 z"
             id="path51" /><path
             style="baseline-shift:baseline;display:inline;overflow:visible;vector-effect:none;fill:#241f1c;fill-rule:evenodd;stroke:none;stroke-linecap:round;stroke-linejoin:round;enable-background:accumulate;stop-color:#000000;stop-opacity:1"
             d="m 297.44727,160.05469 c -0.28406,-0.0373 -0.50463,0.2787 -0.37305,0.5332 l 1.24805,2.41602 0.15625,2.92578 c 0.0172,0.3221 0.4113,0.49923 0.66406,0.29883 l 5.54492,-4.39649 c 0.16156,-0.12809 0.21361,-0.33379 0.16602,-0.50586 -0.0476,-0.17206 -0.19793,-0.32274 -0.40235,-0.34961 z m -0.043,0.33203 7.0039,0.91992 c 0.0717,0.009 0.10772,0.052 0.12305,0.10742 0.0153,0.0554 0.006,0.11131 -0.0508,0.15625 l -5.54688,4.39649 c -0.0557,0.0442 -0.1173,0.0163 -0.12109,-0.0547 l -0.1582,-2.96289 a 0.16708167,0.16708167 0 0 0 -0.0176,-0.0684 l -1.26563,-2.44727 c -0.0166,-0.032 -0.003,-0.0516 0.0332,-0.0469 z"
             id="path52" /></g></g><g
         id="g11"
         transform="matrix(0.39592883,0,0,0.39592883,-24.386444,-7.1568508)"
         style="fill:#ffffff;fill-opacity:1;stroke:#241f1c;stroke-width:0.33413;stroke-dasharray:none;stroke-opacity:1"><g
           id="path9"
           style="opacity:1"><path
             style="baseline-shift:baseline;display:inline;overflow:visible;vector-effect:none;fill-rule:evenodd;stroke:none;stroke-linecap:round;stroke-linejoin:round;enable-background:accumulate;stop-color:#000000;stop-opacity:1"
             d="m 74.137723,168.28676 -0.443434,0.96222 82.878541,26.62703 0.38557,-0.82856 z"
             id="path53" /><path
             style="baseline-shift:baseline;display:inline;overflow:visible;vector-effect:none;fill:#241f1c;fill-rule:evenodd;stroke:none;stroke-linecap:round;stroke-linejoin:round;enable-background:accumulate;stop-color:#000000;stop-opacity:1"
             d="m 74.189453,168.12695 a 0.16708167,0.16708167 0 0 0 -0.203125,0.0899 l -0.443359,0.96289 a 0.16708167,0.16708167 0 0 0 0.09961,0.22851 l 82.878901,26.62696 a 0.16708167,0.16708167 0 0 0 0.20313,-0.0879 l 0.38476,-0.83008 a 0.16708167,0.16708167 0 0 0 -0.0996,-0.22852 z m 0.03711,0.36328 82.499997,26.65821 -0.24219,0.52343 -82.560541,-26.52539 z"
             id="path54" /></g><g
           id="path10"
           style="opacity:1"
           transform="rotate(32.374788,171.98903,-64.881273)"><path
             style="baseline-shift:baseline;display:inline;overflow:visible;vector-effect:none;fill-rule:evenodd;stroke:none;stroke-linecap:round;stroke-linejoin:round;enable-background:accumulate;stop-color:#000000;stop-opacity:1"
             d="m 297.22192,160.51066 1.26542,2.4477 0.15827,2.96266 a 0.24245577,0.24245577 24.266338 0 0 0.39274,0.17705 l 5.54568,-4.39694 a 0.31528238,0.31528238 74.538955 0 0 -0.15479,-0.55965 l -7.00391,-0.92051 a 0.19968902,0.19968902 125.07458 0 0 -0.20341,0.28969 z"
             id="path55" /><path
             style="baseline-shift:baseline;display:inline;overflow:visible;vector-effect:none;fill:#241f1c;fill-rule:evenodd;stroke:none;stroke-linecap:round;stroke-linejoin:round;enable-background:accumulate;stop-color:#000000;stop-opacity:1"
             d="m 297.44727,160.05469 c -0.28406,-0.0373 -0.50463,0.2787 -0.37305,0.5332 l 1.24805,2.41602 0.15625,2.92578 c 0.0172,0.3221 0.4113,0.49923 0.66406,0.29883 l 5.54492,-4.39649 c 0.16156,-0.12809 0.21361,-0.33379 0.16602,-0.50586 -0.0476,-0.17206 -0.19793,-0.32274 -0.40235,-0.34961 z m -0.043,0.33203 7.0039,0.91992 c 0.0717,0.009 0.10772,0.052 0.12305,0.10742 0.0153,0.0554 0.006,0.11131 -0.0508,0.15625 l -5.54688,4.39649 c -0.0557,0.0442 -0.1173,0.0163 -0.12109,-0.0547 l -0.1582,-2.96289 a 0.16708167,0.16708167 0 0 0 -0.0176,-0.0684 l -1.26563,-2.44727 c -0.0166,-0.032 -0.003,-0.0516 0.0332,-0.0469 z"
             id="path56" /></g><g
           id="path11"
           style="opacity:1"
           transform="rotate(-145.80143,187.12359,200.52223)"><path
             style="baseline-shift:baseline;display:inline;overflow:visible;vector-effect:none;fill-rule:evenodd;stroke:none;stroke-linecap:round;stroke-linejoin:round;enable-background:accumulate;stop-color:#000000;stop-opacity:1"
             d="m 297.22192,160.51066 1.26542,2.4477 0.15827,2.96266 a 0.24245577,0.24245577 24.266338 0 0 0.39274,0.17705 l 5.54568,-4.39694 a 0.31528238,0.31528238 74.538955 0 0 -0.15479,-0.55965 l -7.00391,-0.92051 a 0.19968902,0.19968902 125.07458 0 0 -0.20341,0.28969 z"
             id="path57" /><path
             style="baseline-shift:baseline;display:inline;overflow:visible;vector-effect:none;fill:#241f1c;fill-rule:evenodd;stroke:none;stroke-linecap:round;stroke-linejoin:round;enable-background:accumulate;stop-color:#000000;stop-opacity:1"
             d="m 297.44727,160.05469 c -0.28406,-0.0373 -0.50463,0.2787 -0.37305,0.5332 l 1.24805,2.41602 0.15625,2.92578 c 0.0172,0.3221 0.4113,0.49923 0.66406,0.29883 l 5.54492,-4.39649 c 0.16156,-0.12809 0.21361,-0.33379 0.16602,-0.50586 -0.0476,-0.17206 -0.19793,-0.32274 -0.40235,-0.34961 z m -0.043,0.33203 7.0039,0.91992 c 0.0717,0.009 0.10772,0.052 0.12305,0.10742 0.0153,0.0554 0.006,0.11131 -0.0508,0.15625 l -5.54688,4.39649 c -0.0557,0.0442 -0.1173,0.0163 -0.12109,-0.0547 l -0.1582,-2.96289 a 0.16708167,0.16708167 0 0 0 -0.0176,-0.0684 l -1.26563,-2.44727 c -0.0166,-0.032 -0.003,-0.0516 0.0332,-0.0469 z"
             id="path58" /></g></g><g
         id="g14"
         transform="matrix(0.39592883,0,0,0.39592883,-24.974397,-5.6869655)"
         style="fill:#ffffff;fill-opacity:1;stroke:#241f1c;stroke-width:0.33413;stroke-dasharray:none;stroke-opacity:1"><g
           id="path12"
           style="opacity:1"><path
             style="baseline-shift:baseline;display:inline;overflow:visible;vector-effect:none;fill-rule:evenodd;stroke:none;stroke-linecap:round;stroke-linejoin:round;enable-background:accumulate;stop-color:#000000;stop-opacity:1"
             d="m 312.74515,146.51353 1.03977,0.006 -0.0354,-23.60365 -0.95442,-0.0108 z"
             id="path59" /><path
             style="baseline-shift:baseline;display:inline;overflow:visible;vector-effect:none;fill:#241f1c;fill-rule:evenodd;stroke:none;stroke-linecap:round;stroke-linejoin:round;enable-background:accumulate;stop-color:#000000;stop-opacity:1"
             d="m 312.79687,122.73828 a 0.16708167,0.16708167 0 0 0 -0.16796,0.16602 l -0.0508,23.60937 a 0.16708167,0.16708167 0 0 0 0.16602,0.16602 l 1.03906,0.008 a 0.16708167,0.16708167 0 0 0 0.16797,-0.16797 l -0.0351,-23.60351 a 0.16708167,0.16708167 0 0 0 -0.16407,-0.16797 z m 0.16602,0.33594 0.61914,0.008 0.0352,23.26953 -0.70508,-0.006 z"
             id="path60" /></g><g
           id="path13"
           style="opacity:1"
           transform="rotate(105.24644,312.18514,160.38814)"><path
             style="baseline-shift:baseline;display:inline;overflow:visible;vector-effect:none;fill-rule:evenodd;stroke:none;stroke-linecap:round;stroke-linejoin:round;enable-background:accumulate;stop-color:#000000;stop-opacity:1"
             d="m 297.22192,160.51066 1.26542,2.4477 0.15827,2.96266 a 0.24245577,0.24245577 24.266338 0 0 0.39274,0.17705 l 5.54568,-4.39694 a 0.31528238,0.31528238 74.538955 0 0 -0.15479,-0.55965 l -7.00391,-0.92051 a 0.19968902,0.19968902 125.07458 0 0 -0.20341,0.28969 z"
             id="path61" /><path
             style="baseline-shift:baseline;display:inline;overflow:visible;vector-effect:none;fill:#241f1c;fill-rule:evenodd;stroke:none;stroke-linecap:round;stroke-linejoin:round;enable-background:accumulate;stop-color:#000000;stop-opacity:1"
             d="m 297.44727,160.05469 c -0.28406,-0.0373 -0.50463,0.2787 -0.37305,0.5332 l 1.24805,2.41602 0.15625,2.92578 c 0.0172,0.3221 0.4113,0.49923 0.66406,0.29883 l 5.54492,-4.39649 c 0.16156,-0.12809 0.21361,-0.33379 0.16602,-0.50586 -0.0476,-0.17206 -0.19793,-0.32274 -0.40235,-0.34961 z m -0.043,0.33203 7.0039,0.91992 c 0.0717,0.009 0.10772,0.052 0.12305,0.10742 0.0153,0.0554 0.006,0.11131 -0.0508,0.15625 l -5.54688,4.39649 c -0.0557,0.0442 -0.1173,0.0163 -0.12109,-0.0547 l -0.1582,-2.96289 a 0.16708167,0.16708167 0 0 0 -0.0176,-0.0684 l -1.26563,-2.44727 c -0.0166,-0.032 -0.003,-0.0516 0.0332,-0.0469 z"
             id="path62" /></g><g
           id="path14"
           style="opacity:1"
           transform="rotate(-74.468072,279.48762,133.32614)"><path
             style="baseline-shift:baseline;display:inline;overflow:visible;vector-effect:none;fill-rule:evenodd;stroke:none;stroke-linecap:round;stroke-linejoin:round;enable-background:accumulate;stop-color:#000000;stop-opacity:1"
             d="m 297.22192,160.51066 1.26542,2.4477 0.15827,2.96266 a 0.24245577,0.24245577 24.266338 0 0 0.39274,0.17705 l 5.54568,-4.39694 a 0.31528238,0.31528238 74.538955 0 0 -0.15479,-0.55965 l -7.00391,-0.92051 a 0.19968902,0.19968902 125.07458 0 0 -0.20341,0.28969 z"
             id="path63" /><path
             style="baseline-shift:baseline;display:inline;overflow:visible;vector-effect:none;fill:#241f1c;fill-rule:evenodd;stroke:none;stroke-linecap:round;stroke-linejoin:round;enable-background:accumulate;stop-color:#000000;stop-opacity:1"
             d="m 297.44727,160.05469 c -0.28406,-0.0373 -0.50463,0.2787 -0.37305,0.5332 l 1.24805,2.41602 0.15625,2.92578 c 0.0172,0.3221 0.4113,0.49923 0.66406,0.29883 l 5.54492,-4.39649 c 0.16156,-0.12809 0.21361,-0.33379 0.16602,-0.50586 -0.0476,-0.17206 -0.19793,-0.32274 -0.40235,-0.34961 z m -0.043,0.33203 7.0039,0.91992 c 0.0717,0.009 0.10772,0.052 0.12305,0.10742 0.0153,0.0554 0.006,0.11131 -0.0508,0.15625 l -5.54688,4.39649 c -0.0557,0.0442 -0.1173,0.0163 -0.12109,-0.0547 l -0.1582,-2.96289 a 0.16708167,0.16708167 0 0 0 -0.0176,-0.0684 l -1.26563,-2.44727 c -0.0166,-0.032 -0.003,-0.0516 0.0332,-0.0469 z"
             id="path64" /></g></g><text
         xml:space="preserve"
         style="font-style:normal;font-variant:normal;font-weight:bold;font-stretch:normal;font-size:5.29167px;line-height:0.1;font-family:Georgia;-inkscape-font-specification:'Georgia, Bold';font-variant-ligatures:normal;font-variant-caps:normal;font-variant-numeric:normal;font-variant-east-asian:normal;letter-spacing:0.608542px;writing-mode:lr-tb;direction:ltr;fill:#ffffff;fill-opacity:1;fill-rule:evenodd;stroke:#ffffff;stroke-width:0.132292;stroke-linecap:round;stroke-linejoin:round;stroke-dasharray:none;stroke-opacity:1"
         x="73.693123"
         y="67.660309"
         id="text103"><tspan
           sodipodi:role="line"
           id="tspan103"
           style="font-style:normal;font-variant:normal;font-weight:bold;font-stretch:normal;font-size:5.29167px;font-family:Georgia;-inkscape-font-specification:'Georgia, Bold';font-variant-ligatures:normal;font-variant-caps:normal;font-variant-numeric:normal;font-variant-east-asian:normal;fill:#ffffff;fill-opacity:1;stroke:#ffffff;stroke-width:0.132292;stroke-opacity:1"
           x="73.693123"
           y="67.660309">L</tspan></text><text
         xml:space="preserve"
         style="font-style:normal;font-variant:normal;font-weight:bold;font-stretch:normal;font-size:5.29167px;line-height:0.1;font-family:Georgia;-inkscape-font-specification:'Georgia, Bold';font-variant-ligatures:normal;font-variant-caps:normal;font-variant-numeric:normal;font-variant-east-asian:normal;letter-spacing:0.608542px;writing-mode:lr-tb;direction:ltr;fill:#ffffff;fill-opacity:1;fill-rule:evenodd;stroke:#ffffff;stroke-width:0.132292;stroke-linecap:round;stroke-linejoin:round;stroke-dasharray:none;stroke-opacity:1"
         x="13.364999"
         y="68.774063"
         id="text104"><tspan
           sodipodi:role="line"
           id="tspan104"
           style="font-style:normal;font-variant:normal;font-weight:bold;font-stretch:normal;font-size:5.29167px;font-family:Georgia;-inkscape-font-specification:'Georgia, Bold';font-variant-ligatures:normal;font-variant-caps:normal;font-variant-numeric:normal;font-variant-east-asian:normal;fill:#ffffff;fill-opacity:1;stroke:#ffffff;stroke-width:0.132292;stroke-opacity:1"
           x="13.364999"
           y="68.774063">W</tspan></text><text
         xml:space="preserve"
         style="font-style:normal;font-variant:normal;font-weight:bold;font-stretch:normal;font-size:5.29167px;line-height:0.1;font-family:Georgia;-inkscape-font-specification:'Georgia, Bold';font-variant-ligatures:normal;font-variant-caps:normal;font-variant-numeric:normal;font-variant-east-asian:normal;letter-spacing:0.873px;writing-mode:lr-tb;direction:ltr;fill:#ffffff;fill-opacity:1;fill-rule:evenodd;stroke:#ffffff;stroke-width:0.189784;stroke-linecap:round;stroke-linejoin:round;stroke-dasharray:none;stroke-opacity:1"
         x="100.12026"
         y="50.164478"
         id="text105"><tspan
           sodipodi:role="line"
           id="tspan105"
           style="font-style:normal;font-variant:normal;font-weight:bold;font-stretch:normal;font-size:5.29167px;font-family:Georgia;-inkscape-font-specification:'Georgia, Bold';font-variant-ligatures:normal;font-variant-caps:normal;font-variant-numeric:normal;font-variant-east-asian:normal;fill:#ffffff;fill-opacity:1;stroke:#ffffff;stroke-width:0.189784;stroke-opacity:1"
           x="100.12026"
           y="50.164478">H</tspan></text></g></g><g
     inkscape:groupmode="layer"
     id="layer2"
     inkscape:label="Layer 2"
     style="display:inline"
     transform="matrix(3.8568427,0,0,3.8568427,-6.9010646,-86.865148)"><g
       id="g3"
       style="display:inline;stroke:#241f1c;stroke-width:0.132292;stroke-dasharray:none;stroke-opacity:1"
       transform="translate(0.51450196,-3.4728883)"><g
         id="g320"
         transform="matrix(0.39592883,0,0,0.39592883,-23.724994,-5.8339541)"
         style="fill:#6c5d53;fill-opacity:1;stroke:#241f1c;stroke-width:0.33413;stroke-dasharray:none;stroke-opacity:1"><g
           id="path318"
           style="opacity:1"><path
             style="baseline-shift:baseline;display:inline;overflow:visible;vector-effect:none;fill-rule:evenodd;stroke:none;stroke-linecap:round;stroke-linejoin:round;enable-background:accumulate;stop-color:#000000;stop-opacity:1"
             d="m 67.859711,121.80621 96.211159,25.98883 v 41.60837 L 67.465942,158.68934 Z"
             id="path71" /><path
             style="baseline-shift:baseline;display:inline;overflow:visible;vector-effect:none;fill:#241f1c;fill-rule:evenodd;stroke:none;stroke-linecap:round;stroke-linejoin:round;enable-background:accumulate;stop-color:#000000;stop-opacity:1"
             d="m 67.902344,121.64453 a 0.16708167,0.16708167 0 0 0 -0.208985,0.16016 l -0.394531,36.88281 a 0.16708167,0.16708167 0 0 0 0.117188,0.16016 l 96.603514,30.71484 a 0.16708167,0.16708167 0 0 0 0.21875,-0.1582 v -41.60938 a 0.16708167,0.16708167 0 0 0 -0.12305,-0.16211 z m 0.123047,0.37891 95.878909,25.90039 v 41.25195 L 67.634766,158.56836 Z"
             id="path72" /></g><g
           id="path319"
           style="opacity:1"><path
             style="baseline-shift:baseline;display:inline;overflow:visible;vector-effect:none;fill-rule:evenodd;stroke:none;stroke-linecap:round;stroke-linejoin:round;enable-background:accumulate;stop-color:#000000;stop-opacity:1"
             d="M 68.056595,121.80621 215.92828,91.698748 305.30307,116.29343 164.18531,147.94312 Z"
             id="path73" /><path
             style="baseline-shift:baseline;display:inline;overflow:visible;vector-effect:none;fill:#241f1c;fill-rule:evenodd;stroke:none;stroke-linecap:round;stroke-linejoin:round;enable-background:accumulate;stop-color:#000000;stop-opacity:1"
             d="M 215.89453,91.535156 68.023437,121.64258 a 0.16708167,0.16708167 0 0 0 -0.0098,0.32422 l 96.126943,26.13672 a 0.16708167,0.16708167 0 0 0 0.082,0.002 l 141.11718,-31.64844 a 0.16708167,0.16708167 0 0 0 0.008,-0.32422 l -89.375,-24.595701 a 0.16708167,0.16708167 0 0 0 -0.0781,-0.002 z m 0.0273,0.335938 88.68946,24.406246 -140.42188,31.49414 -95.4082,-25.9414 z"
             id="path74" /></g><g
           id="path320"
           style="opacity:1"><path
             style="baseline-shift:baseline;display:inline;overflow:visible;vector-effect:none;fill-rule:evenodd;stroke:none;stroke-linecap:round;stroke-linejoin:round;enable-background:accumulate;stop-color:#000000;stop-opacity:1"
             d="m 164.00524,189.40341 0.32814,-41.34586 141.03531,-31.82975 0.0656,37.21128 z"
             id="path75" /><path
             style="baseline-shift:baseline;display:inline;overflow:visible;vector-effect:none;fill:#241f1c;fill-rule:evenodd;stroke:none;stroke-linecap:round;stroke-linejoin:round;enable-background:accumulate;stop-color:#000000;stop-opacity:1"
             d="m 305.33203,116.06445 -141.03516,31.83008 a 0.16708167,0.16708167 0 0 0 -0.13085,0.16211 l -0.32813,41.3457 a 0.16708167,0.16708167 0 0 0 0.20898,0.16211 l 141.42774,-35.96289 a 0.16708167,0.16708167 0 0 0 0.12695,-0.16211 l -0.0664,-37.21289 a 0.16708167,0.16708167 0 0 0 -0.20313,-0.16211 z m -0.13086,0.37305 0.0664,36.87109 -141.09375,35.88086 0.32617,-40.99804 z"
             id="path76" /></g></g><g
         id="g324"
         transform="matrix(0.39592883,0,0,0.39592883,-23.724994,-5.8339541)"
         style="stroke:#241f1c;stroke-width:0.33413;stroke-dasharray:none;stroke-opacity:1"><g
           id="path321-2"
           style="opacity:1"><path
             style="baseline-shift:baseline;display:inline;overflow:visible;vector-effect:none;fill:#6c5d53;fill-rule:evenodd;stroke:none;stroke-linecap:round;stroke-linejoin:round;enable-background:accumulate;stop-color:#000000;stop-opacity:1"
             d="m 173.53268,192.1049 0.20951,1.03199 128.38114,-32.88107 -0.14155,-0.72225 z"
             id="path77" /><path
             style="baseline-shift:baseline;display:inline;overflow:visible;vector-effect:none;fill:#241f1c;fill-rule:evenodd;stroke:none;stroke-linecap:round;stroke-linejoin:round;enable-background:accumulate;stop-color:#000000;stop-opacity:1"
             d="m 301.94141,159.37109 -128.44922,32.57227 a 0.16708167,0.16708167 0 0 0 -0.12305,0.19531 l 0.20898,1.03125 a 0.16708167,0.16708167 0 0 0 0.20508,0.12891 l 128.38086,-32.88086 a 0.16708167,0.16708167 0 0 0 0.12305,-0.19336 l -0.14063,-0.72266 a 0.16708167,0.16708167 0 0 0 -0.20507,-0.13086 z m -0.0899,0.36719 0.0781,0.39453 -128.0586,32.79883 -0.14257,-0.70312 z"
             id="path78" /></g><g
           id="path322"
           style="opacity:1"
           transform="translate(3.526875,-3.155625)"><path
             style="baseline-shift:baseline;display:inline;overflow:visible;vector-effect:none;fill:#6c5d53;fill-rule:evenodd;stroke:none;stroke-linecap:round;stroke-linejoin:round;enable-background:accumulate;stop-color:#000000;stop-opacity:1"
             d="m 297.22192,160.51066 1.26542,2.4477 0.15827,2.96266 a 0.24245577,0.24245577 24.266338 0 0 0.39274,0.17705 l 5.54568,-4.39694 a 0.31528238,0.31528238 74.538955 0 0 -0.15479,-0.55965 l -7.00391,-0.92051 a 0.19968902,0.19968902 125.07458 0 0 -0.20341,0.28969 z"
             id="path79" /><path
             style="baseline-shift:baseline;display:inline;overflow:visible;vector-effect:none;fill:#241f1c;fill-rule:evenodd;stroke:none;stroke-linecap:round;stroke-linejoin:round;enable-background:accumulate;stop-color:#000000;stop-opacity:1"
             d="m 297.44727,160.05469 c -0.28406,-0.0373 -0.50463,0.2787 -0.37305,0.5332 l 1.24805,2.41602 0.15625,2.92578 c 0.0172,0.3221 0.4113,0.49923 0.66406,0.29883 l 5.54492,-4.39649 c 0.16156,-0.12809 0.21361,-0.33379 0.16602,-0.50586 -0.0476,-0.17206 -0.19793,-0.32274 -0.40235,-0.34961 z m -0.043,0.33203 7.0039,0.91992 c 0.0717,0.009 0.10772,0.052 0.12305,0.10742 0.0153,0.0554 0.006,0.11131 -0.0508,0.15625 l -5.54688,4.39649 c -0.0557,0.0442 -0.1173,0.0163 -0.12109,-0.0547 l -0.1582,-2.96289 a 0.16708167,0.16708167 0 0 0 -0.0176,-0.0684 l -1.26563,-2.44727 c -0.0166,-0.032 -0.003,-0.0516 0.0332,-0.0469 z"
             id="path80" /></g><g
           id="path322-6"
           style="opacity:1"
           transform="rotate(-179.02721,236.1813,178.35445)"><path
             style="baseline-shift:baseline;display:inline;overflow:visible;vector-effect:none;fill:#6c5d53;fill-rule:evenodd;stroke:none;stroke-linecap:round;stroke-linejoin:round;enable-background:accumulate;stop-color:#000000;stop-opacity:1"
             d="m 297.22192,160.51066 1.26542,2.4477 0.15827,2.96266 a 0.24245577,0.24245577 24.266338 0 0 0.39274,0.17705 l 5.54568,-4.39694 a 0.31528238,0.31528238 74.538955 0 0 -0.15479,-0.55965 l -7.00391,-0.92051 a 0.19968902,0.19968902 125.07458 0 0 -0.20341,0.28969 z"
             id="path81" /><path
             style="baseline-shift:baseline;display:inline;overflow:visible;vector-effect:none;fill:#241f1c;fill-rule:evenodd;stroke:none;stroke-linecap:round;stroke-linejoin:round;enable-background:accumulate;stop-color:#000000;stop-opacity:1"
             d="m 297.44727,160.05469 c -0.28406,-0.0373 -0.50463,0.2787 -0.37305,0.5332 l 1.24805,2.41602 0.15625,2.92578 c 0.0172,0.3221 0.4113,0.49923 0.66406,0.29883 l 5.54492,-4.39649 c 0.16156,-0.12809 0.21361,-0.33379 0.16602,-0.50586 -0.0476,-0.17206 -0.19793,-0.32274 -0.40235,-0.34961 z m -0.043,0.33203 7.0039,0.91992 c 0.0717,0.009 0.10772,0.052 0.12305,0.10742 0.0153,0.0554 0.006,0.11131 -0.0508,0.15625 l -5.54688,4.39649 c -0.0557,0.0442 -0.1173,0.0163 -0.12109,-0.0547 l -0.1582,-2.96289 a 0.16708167,0.16708167 0 0 0 -0.0176,-0.0684 l -1.26563,-2.44727 c -0.0166,-0.032 -0.003,-0.0516 0.0332,-0.0469 z"
             id="path82" /></g></g><g
         id="g323"
         transform="matrix(0.39592883,0,0,0.39592883,-24.386444,-7.1568508)"
         style="stroke:#241f1c;stroke-width:0.33413;stroke-dasharray:none;stroke-opacity:1"><g
           id="path321"
           style="opacity:1"><path
             style="baseline-shift:baseline;display:inline;overflow:visible;vector-effect:none;fill:#6c5d53;fill-rule:evenodd;stroke:none;stroke-linecap:round;stroke-linejoin:round;enable-background:accumulate;stop-color:#000000;stop-opacity:1"
             d="m 74.137723,168.28676 -0.443434,0.96222 82.878541,26.62703 0.38557,-0.82856 z"
             id="path83" /><path
             style="baseline-shift:baseline;display:inline;overflow:visible;vector-effect:none;fill:#241f1c;fill-rule:evenodd;stroke:none;stroke-linecap:round;stroke-linejoin:round;enable-background:accumulate;stop-color:#000000;stop-opacity:1"
             d="m 74.189453,168.12695 a 0.16708167,0.16708167 0 0 0 -0.203125,0.0899 l -0.443359,0.96289 a 0.16708167,0.16708167 0 0 0 0.09961,0.22851 l 82.878901,26.62696 a 0.16708167,0.16708167 0 0 0 0.20313,-0.0879 l 0.38476,-0.83008 a 0.16708167,0.16708167 0 0 0 -0.0996,-0.22852 z m 0.03711,0.36328 82.499997,26.65821 -0.24219,0.52343 -82.560541,-26.52539 z"
             id="path84" /></g><g
           id="path322-9"
           style="opacity:1"
           transform="rotate(32.374788,171.98903,-64.881273)"><path
             style="baseline-shift:baseline;display:inline;overflow:visible;vector-effect:none;fill:#6c5d53;fill-rule:evenodd;stroke:none;stroke-linecap:round;stroke-linejoin:round;enable-background:accumulate;stop-color:#000000;stop-opacity:1"
             d="m 297.22192,160.51066 1.26542,2.4477 0.15827,2.96266 a 0.24245577,0.24245577 24.266338 0 0 0.39274,0.17705 l 5.54568,-4.39694 a 0.31528238,0.31528238 74.538955 0 0 -0.15479,-0.55965 l -7.00391,-0.92051 a 0.19968902,0.19968902 125.07458 0 0 -0.20341,0.28969 z"
             id="path85" /><path
             style="baseline-shift:baseline;display:inline;overflow:visible;vector-effect:none;fill:#241f1c;fill-rule:evenodd;stroke:none;stroke-linecap:round;stroke-linejoin:round;enable-background:accumulate;stop-color:#000000;stop-opacity:1"
             d="m 297.44727,160.05469 c -0.28406,-0.0373 -0.50463,0.2787 -0.37305,0.5332 l 1.24805,2.41602 0.15625,2.92578 c 0.0172,0.3221 0.4113,0.49923 0.66406,0.29883 l 5.54492,-4.39649 c 0.16156,-0.12809 0.21361,-0.33379 0.16602,-0.50586 -0.0476,-0.17206 -0.19793,-0.32274 -0.40235,-0.34961 z m -0.043,0.33203 7.0039,0.91992 c 0.0717,0.009 0.10772,0.052 0.12305,0.10742 0.0153,0.0554 0.006,0.11131 -0.0508,0.15625 l -5.54688,4.39649 c -0.0557,0.0442 -0.1173,0.0163 -0.12109,-0.0547 l -0.1582,-2.96289 a 0.16708167,0.16708167 0 0 0 -0.0176,-0.0684 l -1.26563,-2.44727 c -0.0166,-0.032 -0.003,-0.0516 0.0332,-0.0469 z"
             id="path86" /></g><g
           id="path322-3"
           style="opacity:1"
           transform="rotate(-145.80143,187.12359,200.52223)"><path
             style="baseline-shift:baseline;display:inline;overflow:visible;vector-effect:none;fill:#6c5d53;fill-rule:evenodd;stroke:none;stroke-linecap:round;stroke-linejoin:round;enable-background:accumulate;stop-color:#000000;stop-opacity:1"
             d="m 297.22192,160.51066 1.26542,2.4477 0.15827,2.96266 a 0.24245577,0.24245577 24.266338 0 0 0.39274,0.17705 l 5.54568,-4.39694 a 0.31528238,0.31528238 74.538955 0 0 -0.15479,-0.55965 l -7.00391,-0.92051 a 0.19968902,0.19968902 125.07458 0 0 -0.20341,0.28969 z"
             id="path87" /><path
             style="baseline-shift:baseline;display:inline;overflow:visible;vector-effect:none;fill:#241f1c;fill-rule:evenodd;stroke:none;stroke-linecap:round;stroke-linejoin:round;enable-background:accumulate;stop-color:#000000;stop-opacity:1"
             d="m 297.44727,160.05469 c -0.28406,-0.0373 -0.50463,0.2787 -0.37305,0.5332 l 1.24805,2.41602 0.15625,2.92578 c 0.0172,0.3221 0.4113,0.49923 0.66406,0.29883 l 5.54492,-4.39649 c 0.16156,-0.12809 0.21361,-0.33379 0.16602,-0.50586 -0.0476,-0.17206 -0.19793,-0.32274 -0.40235,-0.34961 z m -0.043,0.33203 7.0039,0.91992 c 0.0717,0.009 0.10772,0.052 0.12305,0.10742 0.0153,0.0554 0.006,0.11131 -0.0508,0.15625 l -5.54688,4.39649 c -0.0557,0.0442 -0.1173,0.0163 -0.12109,-0.0547 l -0.1582,-2.96289 a 0.16708167,0.16708167 0 0 0 -0.0176,-0.0684 l -1.26563,-2.44727 c -0.0166,-0.032 -0.003,-0.0516 0.0332,-0.0469 z"
             id="path88" /></g></g><g
         id="g325"
         transform="matrix(0.39592883,0,0,0.39592883,-24.974397,-5.6869655)"
         style="stroke:#241f1c;stroke-width:0.33413;stroke-dasharray:none;stroke-opacity:1"><g
           id="path321-2-3"
           style="opacity:1"><path
             style="baseline-shift:baseline;display:inline;overflow:visible;vector-effect:none;fill:#6c5d53;fill-rule:evenodd;stroke:none;stroke-linecap:round;stroke-linejoin:round;enable-background:accumulate;stop-color:#000000;stop-opacity:1"
             d="m 312.74515,146.51353 1.03977,0.006 -0.0354,-23.60365 -0.95442,-0.0108 z"
             id="path89" /><path
             style="baseline-shift:baseline;display:inline;overflow:visible;vector-effect:none;fill:#241f1c;fill-rule:evenodd;stroke:none;stroke-linecap:round;stroke-linejoin:round;enable-background:accumulate;stop-color:#000000;stop-opacity:1"
             d="m 312.79687,122.73828 a 0.16708167,0.16708167 0 0 0 -0.16796,0.16602 l -0.0508,23.60937 a 0.16708167,0.16708167 0 0 0 0.16602,0.16602 l 1.03906,0.008 a 0.16708167,0.16708167 0 0 0 0.16797,-0.16797 l -0.0351,-23.60351 a 0.16708167,0.16708167 0 0 0 -0.16407,-0.16797 z m 0.16602,0.33594 0.61914,0.008 0.0352,23.26953 -0.70508,-0.006 z"
             id="path90" /></g><g
           id="path322-7"
           style="opacity:1"
           transform="rotate(105.24644,312.18514,160.38814)"><path
             style="baseline-shift:baseline;display:inline;overflow:visible;vector-effect:none;fill:#6c5d53;fill-rule:evenodd;stroke:none;stroke-linecap:round;stroke-linejoin:round;enable-background:accumulate;stop-color:#000000;stop-opacity:1"
             d="m 297.22192,160.51066 1.26542,2.4477 0.15827,2.96266 a 0.24245577,0.24245577 24.266338 0 0 0.39274,0.17705 l 5.54568,-4.39694 a 0.31528238,0.31528238 74.538955 0 0 -0.15479,-0.55965 l -7.00391,-0.92051 a 0.19968902,0.19968902 125.07458 0 0 -0.20341,0.28969 z"
             id="path91" /><path
             style="baseline-shift:baseline;display:inline;overflow:visible;vector-effect:none;fill:#241f1c;fill-rule:evenodd;stroke:none;stroke-linecap:round;stroke-linejoin:round;enable-background:accumulate;stop-color:#000000;stop-opacity:1"
             d="m 297.44727,160.05469 c -0.28406,-0.0373 -0.50463,0.2787 -0.37305,0.5332 l 1.24805,2.41602 0.15625,2.92578 c 0.0172,0.3221 0.4113,0.49923 0.66406,0.29883 l 5.54492,-4.39649 c 0.16156,-0.12809 0.21361,-0.33379 0.16602,-0.50586 -0.0476,-0.17206 -0.19793,-0.32274 -0.40235,-0.34961 z m -0.043,0.33203 7.0039,0.91992 c 0.0717,0.009 0.10772,0.052 0.12305,0.10742 0.0153,0.0554 0.006,0.11131 -0.0508,0.15625 l -5.54688,4.39649 c -0.0557,0.0442 -0.1173,0.0163 -0.12109,-0.0547 l -0.1582,-2.96289 a 0.16708167,0.16708167 0 0 0 -0.0176,-0.0684 l -1.26563,-2.44727 c -0.0166,-0.032 -0.003,-0.0516 0.0332,-0.0469 z"
             id="path92" /></g><g
           id="path322-65"
           style="opacity:1"
           transform="rotate(-74.468072,279.48762,133.32614)"><path
             style="baseline-shift:baseline;display:inline;overflow:visible;vector-effect:none;fill:#6c5d53;fill-rule:evenodd;stroke:none;stroke-linecap:round;stroke-linejoin:round;enable-background:accumulate;stop-color:#000000;stop-opacity:1"
             d="m 297.22192,160.51066 1.26542,2.4477 0.15827,2.96266 a 0.24245577,0.24245577 24.266338 0 0 0.39274,0.17705 l 5.54568,-4.39694 a 0.31528238,0.31528238 74.538955 0 0 -0.15479,-0.55965 l -7.00391,-0.92051 a 0.19968902,0.19968902 125.07458 0 0 -0.20341,0.28969 z"
             id="path93" /><path
             style="baseline-shift:baseline;display:inline;overflow:visible;vector-effect:none;fill:#241f1c;fill-rule:evenodd;stroke:none;stroke-linecap:round;stroke-linejoin:round;enable-background:accumulate;stop-color:#000000;stop-opacity:1"
             d="m 297.44727,160.05469 c -0.28406,-0.0373 -0.50463,0.2787 -0.37305,0.5332 l 1.24805,2.41602 0.15625,2.92578 c 0.0172,0.3221 0.4113,0.49923 0.66406,0.29883 l 5.54492,-4.39649 c 0.16156,-0.12809 0.21361,-0.33379 0.16602,-0.50586 -0.0476,-0.17206 -0.19793,-0.32274 -0.40235,-0.34961 z m -0.043,0.33203 7.0039,0.91992 c 0.0717,0.009 0.10772,0.052 0.12305,0.10742 0.0153,0.0554 0.006,0.11131 -0.0508,0.15625 l -5.54688,4.39649 c -0.0557,0.0442 -0.1173,0.0163 -0.12109,-0.0547 l -0.1582,-2.96289 a 0.16708167,0.16708167 0 0 0 -0.0176,-0.0684 l -1.26563,-2.44727 c -0.0166,-0.032 -0.003,-0.0516 0.0332,-0.0469 z"
             id="path94" /></g></g><text
         xml:space="preserve"
         style="font-style:normal;font-variant:normal;font-weight:bold;font-stretch:normal;font-size:5.29167px;line-height:0.1;font-family:Georgia;-inkscape-font-specification:'Georgia, Bold';font-variant-ligatures:normal;font-variant-caps:normal;font-variant-numeric:normal;font-variant-east-asian:normal;letter-spacing:0.608542px;writing-mode:lr-tb;direction:ltr;display:inline;fill:#6c5d53;fill-opacity:1;fill-rule:evenodd;stroke:#241f1c;stroke-width:0.132292;stroke-linecap:round;stroke-linejoin:round;stroke-dasharray:none;stroke-opacity:1"
         x="73.693123"
         y="67.660309"
         id="text100"><tspan
           sodipodi:role="line"
           id="tspan100"
           style="font-style:normal;font-variant:normal;font-weight:bold;font-stretch:normal;font-size:5.29167px;font-family:Georgia;-inkscape-font-specification:'Georgia, Bold';font-variant-ligatures:normal;font-variant-caps:normal;font-variant-numeric:normal;font-variant-east-asian:normal;fill:#6c5d53;fill-opacity:1;stroke-width:0.132292"
           x="73.693123"
           y="67.660309">L</tspan></text><text
         xml:space="preserve"
         style="font-style:normal;font-variant:normal;font-weight:bold;font-stretch:normal;font-size:5.29167px;line-height:0.1;font-family:Georgia;-inkscape-font-specification:'Georgia, Bold';font-variant-ligatures:normal;font-variant-caps:normal;font-variant-numeric:normal;font-variant-east-asian:normal;letter-spacing:0.608542px;writing-mode:lr-tb;direction:ltr;display:inline;fill:#6c5d53;fill-opacity:1;fill-rule:evenodd;stroke:#241f1c;stroke-width:0.132292;stroke-linecap:round;stroke-linejoin:round;stroke-dasharray:none;stroke-opacity:1"
         x="13.364999"
         y="68.774063"
         id="text101"><tspan
           sodipodi:role="line"
           id="tspan101"
           style="font-style:normal;font-variant:normal;font-weight:bold;font-stretch:normal;font-size:5.29167px;font-family:Georgia;-inkscape-font-specification:'Georgia, Bold';font-variant-ligatures:normal;font-variant-caps:normal;font-variant-numeric:normal;font-variant-east-asian:normal;fill:#6c5d53;fill-opacity:1;stroke-width:0.132292"
           x="13.364999"
           y="68.774063">W</tspan></text><text
         xml:space="preserve"
         style="font-style:normal;font-variant:normal;font-weight:bold;font-stretch:normal;font-size:5.29167px;line-height:0.1;font-family:Georgia;-inkscape-font-specification:'Georgia, Bold';font-variant-ligatures:normal;font-variant-caps:normal;font-variant-numeric:normal;font-variant-east-asian:normal;letter-spacing:0.873px;writing-mode:lr-tb;direction:ltr;display:inline;fill:#6c5d53;fill-opacity:1;fill-rule:evenodd;stroke:#241f1c;stroke-width:0.189784;stroke-linecap:round;stroke-linejoin:round;stroke-dasharray:none;stroke-opacity:1"
         x="100.12026"
         y="50.164478"
         id="text102"><tspan
           sodipodi:role="line"
           id="tspan102"
           style="font-style:normal;font-variant:normal;font-weight:bold;font-stretch:normal;font-size:5.29167px;font-family:Georgia;-inkscape-font-specification:'Georgia, Bold';font-variant-ligatures:normal;font-variant-caps:normal;font-variant-numeric:normal;font-variant-east-asian:normal;fill:#6c5d53;fill-opacity:1;stroke-width:0.189784"
           x="100.12026"
           y="50.164478">H</tspan></text></g></g></svg>
