<?xml version="1.0" encoding="UTF-8" standalone="no"?>
<svg
   version="1.1"
   width="1280"
   height="1273.6684370109442"
   viewBox="0 0 1280 1273.6684370109442"
   xml:space="preserve"
   id="svg84"
   sodipodi:docname="download.svg"
   inkscape:version="1.4.2 (f4327f4, 2025-05-13)"
   xmlns:inkscape="http://www.inkscape.org/namespaces/inkscape"
   xmlns:sodipodi="http://sodipodi.sourceforge.net/DTD/sodipodi-0.dtd"
   xmlns="http://www.w3.org/2000/svg"
   xmlns:svg="http://www.w3.org/2000/svg"><sodipodi:namedview
   id="namedview84"
   pagecolor="#ffffff"
   bordercolor="#000000"
   borderopacity="0.25"
   inkscape:showpageshadow="2"
   inkscape:pageopacity="0.0"
   inkscape:pagecheckerboard="0"
   inkscape:deskcolor="#d1d1d1"
   inkscape:zoom="0.63988395"
   inkscape:cx="640.74119"
   inkscape:cy="636.83423"
   inkscape:window-width="1920"
   inkscape:window-height="1017"
   inkscape:window-x="1912"
   inkscape:window-y="1076"
   inkscape:window-maximized="1"
   inkscape:current-layer="svg84" />
<desc
   id="desc1">Created with Fabric.js 5.3.0</desc>
<defs
   id="defs1">
</defs>

<g
   transform="matrix(3.729216021553964 -0.0650937077875739 0.06509370778757391 3.7292160215539645 640 636.8342185054721)"
   id="logo-logo">
<g
   style=""
   paint-order="stroke"
   id="g3">
		<g
   transform="matrix(0.3927279909254915 0 0 0.3927279909254915 0 0)"
   id="g2">
<linearGradient
   id="SVGID_57_923745"
   gradientUnits="userSpaceOnUse"
   gradientTransform="matrix(1 0 0 1 70.4700009000004 72.66998270000005)"
   x1="0"
   y1="0"
   x2="0"
   y2="855">
<stop
   offset="0%"
   style="stop-color:rgb(250,217,97);stop-opacity: 1"
   id="stop1" />
<stop
   offset="100%"
   style="stop-color:rgb(247,107,28);stop-opacity: 1"
   id="stop2" />
</linearGradient>
<path
   style="stroke: none; stroke-width: 0; stroke-dasharray: none; stroke-linecap: butt; stroke-dashoffset: 0; stroke-linejoin: miter; stroke-miterlimit: 4; fill: url(#SVGID_57_923745); fill-rule: nonzero; opacity: 1;"
   paint-order="stroke"
   transform=" translate(-499.99999995000036, -499.99999980000024)"
   d="M 925.3399963 461.6900024 C 924.2099914 450.92999260000005 918.1000061000001 441.27996820000004 908.7799987000001 435.75 C 904.5099792000001 433.2199707 899.9399718000001 431.1799927 895.1799621000001 429.7999878 C 882.0199890000001 426.0100098 877.0199890000001 421.0199585 875.1299743000001 417.6699829 C 874.3199767000001 413.9599609 873.4499816000001 410.2799683 872.5299987000001 406.6199951 C 883.3299865000001 384.3200073 920.4199523000001 412.2299805 920.4199523000001 412.2299805 C 920.4199523000001 412.2299805 920.4399718000001 412.209961 920.4599914 412.1799927 L 908.0799865 374.0899658 C 904.7399596 363.7999878 896.7499694 355.6300049 886.4899596 352.1599731 C 881.7899474000001 350.5700073 876.889984 349.5299682 871.9499816 349.1799926 C 858.3299865 348.2099609 852.4100036 344.3800048 849.8399962 341.4999999 C 848.2699888999999 338.0399779 846.639984 334.6099853 844.9700011 331.2099608 C 850.8999938 307.14001449999995 892.9899596 326.7399901 892.9899596 326.7399901 C 892.9899596 326.7399901 892.9999694 326.7199706 893.0099791 326.6799925 L 872.9899596 292.01000960000005 C 867.5699767 282.619995 858.0599669000001 276.29998760000007 847.3099669000001 275.03997790000005 C 842.3799742000001 274.46997060000007 837.3699645 274.45996080000003 832.4599913000001 275.14001450000006 C 818.639984 277.05999740000004 812.0599669000001 274.39996320000006 809.0399474000001 272.0800169000001 C 806.8399962000001 269.1199949000001 804.6099547000001 266.1799925000001 802.3399962000001 263.2699583000001 C 803.0099791000001 238.3800047000001 848.3699645 248.8200071000001 848.3699645 248.8200071000001 C 848.3699645 248.8200071000001 848.3799743000001 248.79998760000012 848.389984 248.7600095000001 L 821.5899962 218.9999997000001 C 814.350006 210.9500119000001 803.7299498 206.7399899000001 792.9499816 207.7499997000001 C 787.9999694 208.2099606000001 783.1099547 209.2399899000001 778.4399718 210.9400021000001 C 765.2699888999999 215.7099606000001 758.2699888999999 214.4500119000001 754.850006 212.7899777000001 C 752.1099547 210.35998500000008 749.3299865 207.9599606000001 746.5199889 205.5999753000001 C 741.9700011 181.0899655000001 788.5399474000001 181.8699948000001 788.5399474000001 181.8699948000001 L 788.5399474000001 181.8200070000001 L 756.139984 158.26995820000008 C 747.3799742 151.90997280000008 736.1199645 149.99999970000007 725.7799986 153.21997040000008 C 721.0399473 154.70996060000007 716.470001 156.72998020000009 712.2599791 159.35998500000008 C 700.5699767 166.64996300000007 693.4999693 166.96997040000008 689.7599791 166.13000450000007 C 686.4899596 164.26000940000006 683.1999815 162.45001180000006 679.8799742 160.69000210000007 C 670.5099791 137.71997040000008 716.0899962 128.83996550000006 716.0899962 128.83996550000006 C 716.0899962 128.83996550000006 716.0799863999999 128.82000700000006 716.0799863999999 128.77996790000006 L 679.4999693 112.48998990000005 C 669.6000058999999 108.08001680000005 658.1899717 108.55999720000005 648.7499693 113.85998500000005 C 644.4199522 116.29998740000005 640.3699644 119.22998010000005 636.7999571 122.66998260000005 C 626.9799498 132.13000460000006 620.179962 133.97998020000006 616.3099669000001 133.95996060000004 C 612.6899718000001 132.82000700000003 609.0499571 131.70996060000004 605.3799742000001 130.66998260000005 C 591.5099791000001 110.16998260000005 634.1999815000001 92.01995820000005 634.1999815000001 92.01995820000005 C 634.1999815000001 92.01995820000005 634.1899717000001 91.99999970000005 634.1799620000002 91.95996060000004 L 594.9999693000002 83.64001430000005 C 584.4100035000002 81.38000450000004 573.3500059000002 84.21997040000005 565.2200010000003 91.36999480000004 C 561.4899595000003 94.65997280000005 558.1299741000003 98.36999480000004 555.3599546000003 102.46997040000005 C 547.5499570000003 114.02996800000005 541.1600034000003 117.14001430000005 537.4100034000003 117.83996550000005 C 533.7599790000003 117.47998010000005 530.0799863000003 117.17999240000005 526.3899839000003 116.91998260000005 C 508.3199766000003 99.76000950000005 546.4399717000003 73.02996800000005 546.4399717000003 73.02996800000005 C 546.4399717000003 73.02996800000005 546.4299619000003 73.01995820000005 546.4100034000004 72.98999000000005 L 506.3599546000004 72.98999000000005 C 495.5299985000004 72.98999000000005 485.2999570000004 78.05999730000005 478.82998630000037 86.73999000000005 C 475.8699643000004 90.72998020000004 473.3599546000004 95.05999730000005 471.49996920000035 99.64996310000005 C 466.26998870000034 112.53997770000005 460.6899716000004 116.91998260000005 457.16995210000033 118.39001440000006 C 453.45999120000033 118.79998750000006 449.7799985000003 119.26000950000005 446.10995450000036 119.77996800000005 C 424.97000090000034 106.72998020000006 456.66000330000037 72.70996070000005 456.66000330000037 72.70996070000005 C 456.66000330000037 72.70996070000005 456.6399838000004 72.69000220000005 456.60995450000036 72.66998270000005 L 417.4399716000004 80.99999980000004 C 406.8399960000004 83.24999980000004 397.89999360000036 90.33001690000003 393.3799740000004 100.17999250000004 C 391.3099667000004 104.69000230000005 389.7499691000004 109.45001200000004 388.8799740000004 114.33001690000003 C 386.4999691000004 127.73999000000003 382.0799862000004 133.24999980000004 378.9499813000004 135.51000960000005 C 375.3299862000004 136.70996080000003 371.7299496000004 137.95996080000003 368.16000330000037 139.26995830000004 C 344.8999935000004 130.83001690000003 368.75997890000036 91.05999740000004 368.75997890000036 91.05999740000004 C 368.75997890000036 91.05999740000004 368.7499691000004 91.04998760000004 368.70999110000037 91.02996810000005 L 332.12997400000035 107.32000720000005 C 322.22994960000034 111.71997060000005 314.95999110000037 120.51995840000005 312.57998620000035 131.08001700000005 C 311.48995930000035 135.92999260000005 310.95999110000037 140.89996330000005 311.11996420000037 145.85998530000006 C 311.58999590000036 159.64996330000005 308.32998620000035 165.91998290000006 305.7299496000004 168.73999020000005 C 302.4899594000004 170.64001460000006 299.28994720000037 172.58001710000005 296.11996420000037 174.57000730000004 C 271.4999691000004 171.25000000000006 286.6099544000004 127.27996820000004 286.6099544000004 127.27996820000004 C 286.6099544000004 127.27996820000004 286.5899959000004 127.27996820000004 286.5599666000004 127.26000970000004 L 254.1499935000004 150.79998770000003 C 245.38998370000039 157.15997310000003 240.1000057000004 167.27996820000004 239.97000080000038 178.10998530000003 C 239.91000320000038 183.08001700000003 240.42996170000038 188.04998770000003 241.61996420000037 192.85998530000003 C 244.99996910000036 206.48999020000002 242.98995930000038 213.32000730000004 240.98995930000038 216.53997800000002 C 238.28994710000038 219.0100097 235.62997390000038 221.51995850000003 232.99996910000038 224.0599975 C 208.12997400000037 226.03997800000002 213.77999840000038 179.78997800000002 213.77999840000038 179.78997800000002 C 213.77999840000038 179.78997800000002 213.7599789000004 179.78997800000002 213.72000080000038 179.7799682 L 186.91995200000036 209.53997800000002 C 179.67996180000037 217.58996580000002 176.60000570000037 228.58996580000002 178.72000080000038 239.20996090000003 C 179.6999813000004 244.08001710000002 181.23995930000038 248.83996580000002 183.41000320000038 253.28997800000002 C 189.49996900000036 265.82000730000004 189.01998860000037 272.9099731 187.73995930000038 276.5100097 C 185.5899959000004 279.5199584 183.47000080000038 282.54998770000003 181.3999935000004 285.6199951 C 157.5399471000004 292.63000489999996 153.4599911000004 246.2999878 153.4599911000004 246.2999878 L 153.3999935000004 246.2999878 L 133.3699642000004 280.9799805 C 127.9599911000004 290.3599854 127.2399593000004 301.76000980000003 131.5199886000004 311.7000122 C 133.4899593000004 316.26995850000003 135.9899593000004 320.5999756 139.0399471000004 324.5100098 C 147.4199520000004 335.2699585 148.5499569000004 342.2199707 148.1299740000004 346.0599976 C 146.6000057000004 349.5499878 145.1399838000004 353.0599976 143.7099911000004 356.5899659 C 121.8699642000004 368.25000009999997 108.2799984000004 323.8900147 108.2799984000004 323.8900147 C 108.2799984000004 323.8900147 108.25997890000039 323.8999634 108.22000080000039 323.90997319999997 L 95.8500057000004 362.00000009999997 C 92.5099788000004 372.2899781 94.1699520000004 383.59997569999996 100.4299618000004 392.4299928 C 103.2999569000004 396.4799806 106.6399838000004 400.20001229999997 110.4399716000004 403.39996349999996 C 120.9299618000004 412.21997079999994 123.45999110000041 418.82000739999995 123.81997650000041 422.64996349999996 C 123.06997650000041 426.33001719999993 122.3699643000004 430.04998789999996 121.72994960000041 433.76000989999994 C 102.77999840000041 449.80999769999994 80.22994960000041 409.1799927999999 80.22994960000041 409.1799927999999 C 80.22994960000041 409.1799927999999 80.20999110000041 409.1900025999999 80.17996180000041 409.20996109999993 L 75.98995940000042 449.03997819999995 C 74.85995450000041 459.80999769999994 78.82998630000041 470.51995869999996 86.78994720000041 477.85998549999994 C 90.44998140000041 481.21997089999996 94.48995940000042 484.1699830999999 98.85995450000041 486.50000009999997 C 111.26998870000041 493.11999519999995 114.99996910000041 499.1799928 116.03994720000041 502.8300172 C 116.06997650000041 506.4899903 116.14999360000041 510.1499635 116.26998870000041 513.7899781 C 101.10000580000042 533.5800171999999 70.51998870000041 498.4400025 70.51998870000041 498.4400025 C 70.51998870000041 498.4400025 70.49996920000041 498.45996099999996 70.47000090000041 498.4799805 L 74.66000330000041 538.3099976 C 75.78994710000042 549.0800171 81.8999935000004 558.7299805 91.22000090000041 564.25 C 95.48995940000042 566.789978 100.05996670000042 568.8200073 104.82998630000041 570.2000122 C 117.98995940000042 573.9899902 122.97994970000042 578.9899902 124.87997410000041 582.3300171 C 125.57998630000041 585.539978 126.32998630000041 588.7199707 127.1099546000004 591.8999633999999 L 127.17996190000041 593.9500122 C 116.0299985000004 615.1900023999999 79.5799863000004 587.7699584999999 79.5799863000004 587.7699584999999 C 79.5799863000004 587.7699584999999 79.5599668000004 587.7899779999999 79.5399472000004 587.8200072999999 L 91.9199521000004 625.9099730999999 C 95.2699887000004 636.2099608999999 103.24996920000041 644.3699950999999 113.5099790000004 647.8399657999998 C 118.2099912000004 649.4299926999998 123.1099546000004 650.4699706999999 128.0499570000004 650.8300170999998 C 141.66995210000042 651.7899779999999 147.60000580000042 655.6199950999999 150.1600034000004 658.4999999999999 C 151.7299497000004 661.9599608999999 153.35995460000038 665.3900145999999 155.0299985000004 668.7899779999999 C 149.10000580000042 692.8499755999999 107.00997900000041 673.2600097 107.00997900000041 673.2600097 C 107.00997900000041 673.2600097 106.99996920000041 673.2799682 106.98995950000041 673.3200072999999 L 127.00997900000041 707.9999999999999 C 132.42996190000042 717.3800048999999 141.9399717000004 723.7099608999999 152.6899717000004 724.9599608999999 C 157.6199644000004 725.5399779999999 162.6299741000004 725.5399779999999 167.5399473000004 724.8599853 C 181.35995460000038 722.9400023999999 187.94998150000038 725.5999754999999 190.9599912000004 727.9299926 C 193.1600034000004 730.8900146 195.3799741000004 733.8200072 197.6600034000004 736.7299804 C 196.9899595000004 761.6300048 151.6299741000004 751.1900024 151.6299741000004 751.1900024 C 151.6299741000004 751.1900024 151.6199643000004 751.2000122000001 151.6099546000004 751.2399902000001 L 178.4100034000004 781.0100097000001 C 185.64999360000039 789.0499877000001 196.2699888000004 793.2600097000001 207.0499570000004 792.2499999 C 211.9999692000004 791.7899779 216.8899839000004 790.7600097000001 221.5599668000004 789.0700072000001 C 234.72994970000042 784.2899779 241.72994970000042 785.5599974 245.1499937000004 787.2099608000001 C 247.8899839000004 789.6499632000001 250.67996200000042 792.0399779 253.4799498000004 794.3900145000001 C 258.0299986000004 818.9099730000002 211.4599913000004 818.1300047000001 211.4599913000004 818.1300047000001 L 211.4599913000004 818.1799925000001 L 243.8599547000004 841.7299803000002 C 252.6199645000004 848.0899657000002 263.8799742000004 849.9999998000002 274.2200011000004 846.7799681000002 C 278.9499816000004 845.2899779000003 283.52999870000036 843.2699583000002 287.73995960000036 840.6499632000002 C 299.4299620000004 833.3499754000002 306.49996940000034 833.0299681000002 310.23995960000036 833.8800047000002 C 313.50997910000035 835.7399901000002 316.79995720000034 837.5499876000002 320.1199645000004 839.3200071000002 C 329.48995960000036 862.2699583000002 283.9100036000004 871.1599729000002 283.9100036000004 871.1599729000002 C 283.9100036000004 871.1599729000002 283.9199523000004 871.1799924000002 283.9199523000004 871.2299802000002 L 320.5099792000004 887.5199582000002 C 330.3999938000004 891.9199826000003 341.80996700000037 891.4400021000002 351.2499694000004 886.1400144000003 C 355.5799865000004 883.7099607000002 359.6299743000004 880.7699582000002 363.1999816000004 877.3300168000003 C 373.0199889000004 867.8800046000003 379.8199767000004 866.0199582000002 383.6899718000004 866.0399777000003 C 387.3099669000004 867.1799923000003 390.9499816000004 868.2899777000003 394.61996450000044 869.3399655000004 C 408.4899596000004 889.8300168000004 365.79995720000045 907.9799801000004 365.79995720000045 907.9799801000004 C 365.79995720000045 907.9799801000004 365.8099670000004 907.9999996000004 365.8299865000005 908.0399777000003 L 404.99996940000045 916.3699948000003 C 415.58999630000045 918.6199948000003 426.64999380000046 915.7799679000003 434.7899474000005 908.6300046000003 C 438.50997910000046 905.3499753000003 441.8699645000005 901.6300046000003 444.6399840000005 897.5299680000004 C 452.44998160000046 885.9699704000004 458.8399962000005 882.8599851000004 462.5899962000005 882.1699826000004 C 466.2399596000005 882.5199582000004 469.9199523000005 882.8300168000004 473.60995470000046 883.0800168000004 C 491.67996200000044 900.2299802000005 453.55996690000046 926.9699704000004 453.55996690000046 926.9699704000004 C 453.55996690000046 926.9699704000004 453.56997670000044 926.9899899000004 453.5899962000005 927.0199582000005 L 493.6399840000005 927.0199582000005 C 504.4700011000005 927.0199582000005 514.6999816000005 921.9400021000005 521.1699523000004 913.2600095000005 C 524.1299743000004 909.2799680000005 526.6399840000005 904.9400022000004 528.5099792000004 900.3499753000004 C 533.7299499000004 887.4599607000005 539.3099670000005 883.0800168000004 542.8399963000004 881.6099851000005 C 546.5399475000004 881.2000120000005 550.2200012000004 880.7399900000005 553.8899841000004 880.2199705000005 C 575.0299987000004 893.2799681000005 543.3399963000004 927.2899778000005 543.3399963000004 927.2899778000005 C 543.3399963000004 927.2899778000005 543.3599548000004 927.3099973000005 543.3799743000004 927.3300169000005 L 582.5599670000004 919.0100096000004 C 593.1600036000003 916.7499998000004 602.1000061000004 909.6699827000004 606.6199646000003 899.8300169000005 C 608.6999817000003 895.3200071000005 610.2499695000004 890.5599974000005 611.1199646000003 885.6799925000005 C 613.4999695000004 872.2600096000004 617.9199524000004 866.7600096000004 621.0499573000003 864.4999998000005 C 624.6699524000003 863.2899778000005 628.2699890000004 862.0399778000005 631.8399964000002 860.7399900000005 C 655.1000062000003 869.1799924000005 631.2399598000003 908.9400022000004 631.2399598000003 908.9400022000004 C 631.2399598000003 908.9400022000004 631.2599793000003 908.9500120000005 631.2899476000003 908.9799802000005 L 667.8699647000003 892.6900022000004 C 677.7699891000003 888.2799680000004 685.0499574000003 879.4899900000005 687.4299623000003 868.9199827000004 C 688.5199892000003 864.0800169000005 689.0399477000003 859.0999754000004 688.8799745000002 854.1400144000005 C 688.4100038000003 840.3599851000005 691.6699525000002 834.0800168000005 694.2799989000002 831.2600095000005 C 697.5099794000002 829.3699949000005 700.7099916000002 827.4199826000005 703.8799745000002 825.4299924000005 C 728.4999696000002 828.7499997000006 713.3899843000003 872.7299802000005 713.3899843000003 872.7299802000005 C 713.3899843000003 872.7299802000005 713.4100038000003 872.7299802000005 713.4499819000002 872.7399900000005 L 745.8500063000002 849.2099607000005 C 754.6099550000002 842.8399656000005 759.8999941000003 832.7199705000005 760.0299990000002 821.8900144000005 C 760.0899966000002 816.9299924000005 759.5699770000002 811.9500120000005 758.3799746000002 807.1400144000005 C 754.9999697000002 793.5100095000005 757.0099795000002 786.6799924000005 759.0199892000002 783.4599607000005 C 761.7099916000002 780.9899900000005 764.3699648000002 778.4799802000005 766.9999697000002 775.9400022000004 C 791.8699648000002 773.9599607000005 786.2200014000002 820.2099607000005 786.2200014000002 820.2099607000005 C 786.2200014000002 820.2099607000005 786.2499697000002 820.2099607000005 786.2799990000002 820.2199705000005 L 813.0799868000003 790.4500120000005 C 820.3299868000003 782.4099729000005 823.3999941000003 771.4099729000004 821.2799990000002 760.7999876000005 C 820.2999575000002 755.9199827000004 818.7599795000002 751.1599730000005 816.5899966000002 746.7099607000005 C 810.4999697000002 734.1799924000005 810.9799502000002 727.0899656000005 812.2599795000002 723.4999998000005 C 814.4100039000002 720.4899900000005 816.5299990000002 717.4500120000005 818.6000064000002 714.3800047000005 C 842.4599918000002 707.3800047000005 846.5399478000002 753.7000120000006 846.5399478000002 753.7000120000006 L 846.6000064000002 753.7000120000006 L 866.6299747000002 719.0199583000006 C 872.0399478000002 709.6400145000006 872.7599796000002 698.2399900000006 868.4799503000002 688.2999876000006 C 866.5099796000002 683.7399900000006 864.0099796000002 679.3999632000006 860.9700016000002 675.4899900000006 C 852.5799870000002 664.7299802000006 851.4499821000002 657.7799680000006 851.8699650000002 653.9400022000005 C 853.3999943000002 650.4500120000006 854.8699650000002 646.9400022000005 856.2899479000002 643.4099729000005 C 878.1299748000002 631.7499998000005 891.7099918000002 676.1099851000006 891.7099918000002 676.1099851000006 C 891.7099918000002 676.1099851000006 891.7399601000002 676.0999753000006 891.7799991000003 676.0899656000006 L 904.1499942000003 637.9999998000006 C 907.4999698000003 627.7099607000007 905.8299869000002 616.4099729000006 899.5699771000003 607.5700071000007 C 896.6999820000003 603.5199583000007 893.3599551000003 599.7999876000007 889.5599673000003 596.6099851000007 C 879.0699771000003 587.7799680000007 876.5499575000002 581.1799924000007 876.1799624000002 577.3499753000007 C 876.9299624000002 573.6699826000007 877.6299746000002 569.9599607000007 878.2699893000002 566.2399899000006 C 897.2200015000002 550.1900021000006 919.7799991000003 590.8200070000006 919.7799991000003 590.8200070000006 C 919.7799991000003 590.8200070000006 919.7899478000003 590.8099972000006 919.8199771000003 590.7899777000006 L 924.0099795000003 550.9599606000006 C 925.1399844000003 540.1900021000006 921.1699526000003 529.4899899000006 913.2099917000003 522.1400143000006 C 909.5499575000002 518.7799679000007 905.5099795000003 515.8399655000006 901.1399844000002 513.4999997000007 C 888.7299502000002 506.89001430000064 884.9999698000003 500.82000700000066 883.9599917000003 497.16998260000065 C 883.9299624000002 493.51000950000065 883.8599551000003 489.8599850000007 883.7299502000003 486.21997040000065 C 898.8999941000003 466.42999240000063 929.4799502000003 501.55999730000065 929.4799502000003 501.55999730000065 C 929.4799502000003 501.55999730000065 929.4999697000003 501.54998750000067 929.5299990000003 501.51995820000064 L 925.3399966000003 461.69000210000064 Z M 838.6799622 647.2299805 C 819.9999695 691.3900147 793.2699891 731.0299683000001 759.2399598 765.0599976 C 725.2099915 799.0899658999999 685.5699768999999 825.8200074 641.4100037 844.5 C 595.6499938999999 863.8499756 547.0899963999999 873.6599731 497.05996709999994 873.6599731 C 447.03994759999995 873.6599731 398.4799499999999 863.8499755 352.7200012999999 844.5 C 308.55996709999994 825.8200073 268.9199524999999 799.0899658 234.8899841999999 765.0599976 C 200.8599548999999 731.0299683 174.1299743999999 691.3900146999999 155.4499817999999 647.2299805 C 152.6000061999999 640.4899903 149.9700012999999 633.6900025 147.5299988999999 626.8300171 L 289.6600037999999 626.8300171 C 331.9399720999999 697.2999877999999 409.0799866999999 744.5700072999999 497.0599671999999 744.5700072999999 C 585.0499573999999 744.5700072999999 662.1999817999999 697.2999877999999 704.4700013999999 626.8300171 L 846.6099549999999 626.8300171 C 844.1699525999999 633.6900025 841.5299988999999 640.4899902 838.6799622999999 647.2299805 Z M 410.5499573 336.4500122 C 402.47995000000003 344.51995850000003 398.03994750000004 355.25 398.03994750000004 366.6499634 C 398.03994750000004 378.0599976 402.47994990000007 388.789978 410.5499573 396.8499756 L 469.7999573 456.10998539999997 C 477.8699646 464.17999269999996 488.60000610000003 468.61999519999995 499.9999695 468.61999519999995 C 511.4100037 468.61999519999995 522.1399841 464.1799927999999 530.1999817 456.10998539999997 L 589.4599915 396.8499756 C 597.5199891 388.789978 601.9700013 378.0599976 601.9700013 366.6499634 C 601.9700013 355.25 597.5199891000001 344.5199585 589.4599915 336.4500122 L 548.6699524 295.6699829 C 641.559967 318.8099975 710.5899963 402.94000239999997 710.5899963 502.8900146 C 710.5899963 543.1400146 699.3899841000001 580.8200072999999 679.9599914 612.9899902 L 677.2399597 612.9899902 C 691.5099792 588.1599731 700.6000061 560.2199707 702.6600036 531.6099853 C 704.3399962999999 503.51995839999995 700.0399474 469.13000479999994 679.9100036 447.9199828999999 C 667.2899474 434.6199950999999 647.6299743 429.1900023999999 629.9499816 433.77996829999995 C 622.1600036 435.69000249999993 614.4700011 439.5199585 609.4599914 445.95001219999995 C 600.7599792000001 456.6400146 601.2200012000001 473.6400146 610.8599548000001 483.5599976 C 615.5499572000001 487.90997319999997 623.1099548000001 489.3999634 629.2799987000001 488.3999634 C 635.2699889 487.5299683 640.4599914 483.5199585 643.2299499000001 478.20996099999996 C 646.0399475 472.85998539999997 644.8500061000001 466.1499634 641.5399475 461.35998539999997 C 636.8399963 454.20001229999997 627.9599914 451.8999634 622.059967 459.0599976 C 628.0099792 452.2600098 636.559967 454.6400147 640.9100036 461.7699585 C 643.8899841 466.42999269999996 644.8399962999999 472.6599731 642.0699767 477.58001709999996 C 638.4799498 484.1900025 630.9100036 487.70001219999995 623.5299987 486.54998779999994 C 619.6099548 486.0100097999999 615.3999938 484.6199950999999 612.6099548 481.78997799999996 C 606.8899841 475.4799804 605.0299987 465.8200073 607.3500061 457.70001219999995 C 612.7200012 439.14996339999993 635.9199523999999 434.34997559999994 652.6099548 438.45001219999995 C 675.2599792 444.03997799999996 687.0799865 464.98999019999997 691.5399474999999 486.48999019999997 C 700.5399474999999 530.1300047999999 687.9799499 576.5599975 663.1799620999999 612.9899902 L 657.4100035999999 612.9899902 C 658.6600035999999 611.6199951 659.8799742999998 610.2099608999999 661.0799864999999 608.7699584999999 C 678.5899962999999 588.0199584999999 688.2200010999999 554.8499755999999 670.1399840999999 531.5800171 C 663.8999938999999 523.5100097999999 653.3199767999998 516.6900025 642.8199767999998 519.7299805 C 637.9599913999998 521.2899781 633.1399840999999 524.1400147 630.8099669999998 528.8499756 C 628.6600035999998 533.3900146999999 628.9100035999998 539.1300049 631.7399596999998 543.2999877999999 C 628.5199889999998 537.5499877999999 629.8099669999998 529.6799927 634.8899840999998 525.8499756 C 639.7399596999998 522.0499877999999 646.5299986999997 520.3399658 652.4199523999997 522.5700073 C 670.4100036999997 529.5499878 676.5099792999997 552.5599975 671.6000060999997 569.8599853000001 C 667.0699767999997 587.4999999 654.9299621999997 602.7000122000001 640.1099547999997 612.9899902000001 L 565.1667174999998 612.9899902000001 L 558.1466979999998 604.2611694000001 L 642.7013854999998 604.2611694000001 C 642.7013854999998 604.2611694000001 641.4657897999998 594.6517944000001 628.2873229999998 595.2697143 C 615.1091002999998 595.8873901000001 578.0446471999998 590.3275756 569.8083190999998 583.1205444000001 C 562.3903502999998 576.6303100000001 549.9455260999998 564.4950561 532.6579284999998 561.8388061 L 487.3593444999998 511.25701900000007 L 475.77462769999977 511.25701900000007 L 480.80245969999976 516.2848510000001 L 485.10934449999974 516.2848510000001 L 525.1830749999997 561.3241576000001 C 524.0939636999997 561.3710326000001 522.9731140999996 561.4904174000002 521.8280944999997 561.6644896000001 C 505.1545104999997 545.1124876000001 449.0060729999997 491.6952513000001 449.0060729999997 491.6952513000001 C 449.0060729999997 491.6952513000001 443.85812379999965 511.6688841000001 461.1549987999997 509.40399150000013 C 474.1947936999997 522.4437864000001 499.0527038999997 547.5253294000001 511.2624206999997 559.8524778000001 L 485.2980651999997 559.8524778000001 L 485.2980651999997 554.9623411000001 L 479.6354674999997 554.9623411000001 L 479.6354674999997 570.6112669000001 L 485.2980651999997 570.6112669000001 L 485.2980651999997 567.0595091000001 L 504.6191100999997 567.0595091000001 C 486.9196471999997 574.4161986000001 466.29928589999975 585.9818724000002 447.7018737999997 584.1503294000001 C 442.5693053999997 583.6449583000001 436.1940612999997 583.1571653000002 429.2233581999997 582.8656614000001 C 435.2748718999997 573.6327512000001 451.48361209999973 549.1168821000001 456.96798709999973 542.9677122000002 C 463.7631530999997 535.3490599000002 472.20553589999975 525.6710813000002 455.32052619999973 512.9042356000002 C 438.43576059999975 500.1378782000002 412.6967468999997 500.1378782000002 402.19528209999976 509.8158567000002 C 404.66622939999974 513.5221555000002 433.49386609999976 513.9340208000002 430.1994324999998 527.7304075000002 C 427.1464539999998 540.5140989000001 394.4179383999998 557.9013059000001 397.98361219999975 583.3197630000002 C 376.69552629999976 585.1124876000002 357.97946179999974 590.6469114000002 357.30636609999976 604.2611692000002 L 551.0505066999998 604.2611692000002 L 561.7325745999998 612.9899900000001 L 355.6000061999998 612.9899900000001 C 350.87997449999983 609.8099973000002 346.4999695999998 605.9199827000001 342.53994759999983 601.8300169000001 C 325.66995249999985 584.6300047000002 314.77999889999984 556.0599974000002 329.2499695999998 534.2199705000002 C 334.18997199999984 526.7399900000001 342.9499817999998 519.9599607000001 352.3599549999998 521.8999632000001 C 355.3899842999998 522.6599730000002 358.4299622999998 523.8499754000001 360.8500062999998 525.8499754000001 C 365.9299623999998 529.6799925 367.2200013999998 537.5499876 363.9999696999998 543.2999876 C 364.9799501999998 541.9599607 365.55996729999976 540.3699949 365.9499818999998 538.7499998 C 367.06997699999977 534.2000119999999 365.91000389999977 529.1599729 362.76998919999977 525.6400143999999 C 357.66000379999974 520.3099973 349.6499940999998 517.5999753 342.4599915999998 519.7000119999999 C 335.6299744999998 521.5100095999999 329.8999939999998 526.0999754 325.6099549999998 531.5800168999999 C 316.9100037999998 542.6499631999999 314.2200013999998 557.7299803 316.8099671999998 571.4299924999999 C 319.5899964999998 587.0399778999999 327.5499573999998 601.3699948999999 338.31997699999977 612.9899900999999 L 332.53994769999974 612.9899900999999 C 332.14999409999973 612.4500120999999 331.68997209999975 611.7899778999999 331.27999899999975 611.1900022999998 L 329.76998919999977 608.9099729999998 C 322.7499696999998 597.9999998999998 317.01998919999977 586.2699583999998 312.3999940999998 574.1300046999999 C 299.7399598999998 540.0700070999999 295.7499696999998 499.3900144999999 311.26998919999977 465.65997299999987 C 315.2599793999998 457.5899656999999 321.0099793999998 450.22998029999985 328.4299622999998 445.0599973999999 C 338.9199524999998 437.82000719999985 352.3199768999998 435.45996079999986 364.7799988999998 438.15997299999987 C 371.83999649999976 439.67999249999986 378.6699524999998 442.70996079999986 383.3799744999998 448.32000719999985 C 391.5599671999998 457.72998029999985 391.33999649999976 473.24999989999986 382.68997209999975 482.26995839999984 C 378.39999409999973 485.82000719999985 372.25997939999974 487.24999989999986 366.7499696999997 486.5399778999998 C 361.22995019999973 485.94000229999983 356.3699647999997 482.36999499999985 353.6699525999997 477.5800169999998 C 350.9100038999997 472.65997309999983 351.8500062999997 466.4299925999998 354.8299867999997 461.76995839999984 C 359.19998189999967 454.61999499999985 367.72000139999966 452.26995839999984 373.6799623999997 459.05999749999984 C 367.79995749999966 451.89001459999986 358.88998439999966 454.2099608999998 354.19998189999967 461.35998529999983 C 350.8999940999997 466.14996329999985 349.70999169999965 472.85998529999983 352.51998919999966 478.2099608999998 C 355.27999899999963 483.5199584999998 360.47000139999966 487.5299681999998 366.47000139999966 488.39996329999985 C 370.4100037999997 489.0800169999998 374.49996969999967 488.6300047999999 378.27999899999963 487.34997549999986 C 380.41995259999965 486.64996329999985 382.4999696999996 485.5899656999999 384.32998679999963 484.09997549999986 C 388.6000062999996 480.1300047999999 391.05996729999964 474.51995839999984 392.07998679999963 468.85998529999983 C 396.7999574999996 435.55999749999984 355.10995509999964 424.76000969999984 330.52999899999963 437.26995839999984 C 312.04995749999966 446.04998769999986 301.52999899999963 465.6599729999998 296.8999940999996 484.7899778999998 C 286.4700013999996 528.1699827999998 296.32998679999963 574.7399900999999 318.5599671999996 612.9899900999999 L 314.1799622999996 612.9899900999999 C 294.7399598999996 580.8200071999998 283.53994769999963 543.1400144999999 283.53994769999963 502.8900144999999 C 283.53994769999963 400.2199705999999 356.36996479999965 314.2399900999999 453.07998679999963 293.9199827999999 L 410.5499574999996 336.4500120999999 Z M 473.6699524 290.6400146 L 478.4599915 285.84997549999997 C 484.3999939 279.90997309999995 492.1999817 276.94000239999997 499.9999695 276.94000239999997 C 507.8099671 276.94000239999997 515.6099549 279.90997309999995 521.5499573000001 285.84997549999997 L 527.1799622000001 291.4799804 L 580.8099671000001 345.1099853 C 586.5599671000001 350.8599853 589.7299500000001 358.5100097 589.7299500000001 366.6499633 C 589.7299500000001 374.78997790000005 586.5599671000001 382.45001210000004 580.8099671000001 388.20001210000004 L 521.5499573000001 447.45996080000003 C 515.7999573000001 453.20996080000003 508.1399842000001 456.38000470000003 499.9999695000001 456.38000470000003 C 491.8599548000001 456.38000470000003 484.20999150000006 453.20996080000003 478.45999150000006 447.45996080000003 L 419.1999817000001 388.20001210000004 C 413.4499817000001 382.45001210000004 410.2799988000001 374.78997790000005 410.2799988000001 366.6499633 C 410.2799988000001 358.5100097 413.4499817000001 350.8599853 419.1999817000001 345.1099853 L 473.66995240000006 290.64001460000003 Z M 665.6999817 633.7099609 C 626.6000061 684 565.5499573 716.4099731000001 497.0599671 716.4099731000001 C 428.5799866 716.4099731000001 367.5299988 684.0000000000001 328.4299622 633.7099609000002 L 665.6999817 633.7099609000002 Z M 867.559967 517.5100098 L 738.2999572 517.5100098 C 738.5899962999999 512.6699829 738.7499693999999 507.78997810000004 738.7499693999999 502.8800049 C 738.7499693999999 369.6199951 630.3299864999999 261.2000122 497.0599669999999 261.2000122 C 363.7999571999999 261.2000122 255.3799742999999 369.6199951 255.3799742999999 502.8800049 C 255.3799742999999 507.789978 255.5499571999999 512.6699829 255.8399962999999 517.5100098 L 126.5799866 517.5100098 C 126.3899842 512.6499634 126.2899475 507.76995850000003 126.2899475 502.8800049 C 126.2899475 452.8599854 136.1000061 404.2999878 155.4499817 358.539978 C 174.12997439999998 314.3800049 200.8599548 274.7399902 234.8899841 240.7099609 C 268.9199524 206.6799926 308.559967 179.9500122 352.7200012 161.2699585 C 398.4799499 141.9199829 447.03994750000004 132.1099854 497.05996700000003 132.1099854 C 547.0899963 132.1099854 595.6499939 141.919983 641.4100036 161.2699585 C 685.5699767 179.9500122 725.2099914 206.6799927 759.2399597 240.7099609 C 793.269989 274.7399902 819.9999695 314.3800048 838.6799621 358.539978 C 858.0299987 404.2999878 867.8399963 452.8599853 867.8399963 502.8800049 C 867.8399963 507.76995850000003 867.7499694 512.6499634 867.559967 517.5100098 Z M 488.5486755 676.6864014 L 470.0138244 663.2200318 L 492.9241638 663.2200318 L 500.0038757 641.4309693 L 507.0835876 663.2200318 L 529.993988 663.2200318 L 511.45907589999996 676.6864014 L 518.5387877999999 698.4754639 L 500.0038756999999 685.0090943 L 481.4690245999999 698.4754639 L 488.5486754999999 676.6864014 Z M 419.8843689 670.65979 L 407.3178406 661.529663 L 422.8509217 661.529663 L 427.6509705 646.7567748 L 432.4509583 661.529663 L 447.98410040000005 661.529663 L 435.41751100000005 670.65979 L 440.21749880000004 685.4326782 L 427.6509705 676.3025512 L 415.08438110000003 685.4326782 L 419.8843689 670.65979 Z M 564.5902405 670.65979 L 552.0237122000001 661.529663 L 567.5568543 661.529663 L 572.3568421000001 646.7567748 L 577.1568299000002 661.529663 L 592.6899720000001 661.529663 L 580.1233826000001 670.65979 L 584.9233704000002 685.4326782 L 572.3568421000002 676.3025512 L 559.7902527000002 685.4326782 L 564.5902405000003 670.65979 Z"
   stroke-linecap="round"
   id="path2" />
</g>
</g>
</g>
<g
   transform="matrix(3.496408561435123 0 0 3.496408561435123 639.9999999999997 358.91339859205925)"
   id="text-logo">
<filter
   id="SVGID_923740"
   y="-0.21356798"
   height="1.4280121"
   x="-0.096896747"
   width="1.193792">
	<feGaussianBlur
   in="SourceAlpha"
   stdDeviation="10"
   id="feGaussianBlur3" />
	<feOffset
   dx="0"
   dy="0"
   result="oBlur"
   id="feOffset3" />
	<feFlood
   flood-color="rgb(0,0,0)"
   flood-opacity="1"
   id="feFlood3" />
	<feComposite
   in2="oBlur"
   operator="in"
   id="feComposite3" />
	<feMerge
   id="feMerge4">
		<feMergeNode
   id="feMergeNode3" />
		<feMergeNode
   in="SourceGraphic"
   id="feMergeNode4" />
	</feMerge>
</filter>
<g
   style="filter: url(#SVGID_923740);"
   paint-order="stroke"
   id="g48">
		<g
   transform="matrix(0.16598755953836172 -0.9861278467209507 0.9861278467209507 0.16598755953836172 -121.5586711252336 52.44114408003723)"
   id="g5">
<g
   style=""
   paint-order="stroke"
   id="g4">
		<g
   transform="matrix(1 0 0 1 0 0)"
   id="1bdbc6ee-aae3-487a-a744-4b80efa0f082-path-0">
<path
   style="stroke: rgb(84,70,53); stroke-width: 2; stroke-dasharray: none; stroke-linecap: butt; stroke-dashoffset: 0; stroke-linejoin: miter; stroke-miterlimit: 4; fill: rgb(221,186,133); fill-rule: nonzero; opacity: 1;"
   paint-order="stroke"
   transform=" translate(-6.995, 7.35)"
   d="M 10.12 -14.7 L 12.56 -12.26 L 12.56 -8.8 L 11.32 -7.77 L 12.98 -6.38 L 12.98 -2.44 L 10.54 0 L 1.01 0 L 1.01 -14.7 L 10.12 -14.7 Z M 4.54 -11.89 L 4.54 -8.76 L 8.97 -8.76 L 8.97 -11.89 L 4.54 -11.89 Z M 4.54 -6.32 L 4.54 -2.81 L 9.32 -2.81 L 9.32 -6.32 L 4.54 -6.32 Z"
   stroke-linecap="round"
   id="path4" />
</g>
</g>
</g>
		<g
   transform="matrix(0.26843732843326185 -0.9632971507814259 0.9632971507814259 0.26843732843326185 -110.97037130294238 39.36696666775798)"
   id="g7">
<g
   style=""
   paint-order="stroke"
   id="g6">
		<g
   transform="matrix(1 0 0 1 0 0)"
   id="5fd4af32-14f1-463a-8954-cf6d89480213-path-0">
<path
   style="stroke: rgb(84,70,53); stroke-width: 2; stroke-dasharray: none; stroke-linecap: butt; stroke-dashoffset: 0; stroke-linejoin: miter; stroke-miterlimit: 4; fill: rgb(221,186,133); fill-rule: nonzero; opacity: 1;"
   paint-order="stroke"
   transform=" translate(0, 0)"
   d=""
   stroke-linecap="round"
   id="path5" />
</g>
</g>
</g>
		<g
   transform="matrix(0.3811229977230573 -0.9245243428956268 0.9245243428956268 0.3811229977230573 -113.90281502416649 25.898652066147143)"
   id="g9">
<g
   style=""
   paint-order="stroke"
   id="g8">
		<g
   transform="matrix(1 0 0 1 0 0)"
   id="3dd1f0e1-dd73-471d-8f2a-56b473017010-path-0">
<path
   style="stroke: rgb(84,70,53); stroke-width: 2; stroke-dasharray: none; stroke-linecap: butt; stroke-dashoffset: 0; stroke-linejoin: miter; stroke-miterlimit: 4; fill: rgb(221,186,133); fill-rule: nonzero; opacity: 1;"
   paint-order="stroke"
   transform=" translate(-8.6, 7.35)"
   d="M 16.36 0 L 12.5 0 L 10.77 -2.31 L 9.03 0 L 2.9 0 L 0.84 -2.06 L 0.84 -7.69 L 2.9 -9.74 L 5.25 -9.74 L 2.71 -13.19 L 4.22 -14.7 L 13.38 -14.7 L 13.38 -11.93 L 7.48 -11.93 L 10.92 -7.31 L 12.66 -9.66 L 16.36 -9.66 L 12.73 -4.87 L 16.36 0 Z M 4.37 -2.81 L 7.6 -2.81 L 8.99 -4.7 L 7.25 -7.06 L 4.37 -7.06 L 4.37 -2.81 Z"
   stroke-linecap="round"
   id="path7" />
</g>
</g>
</g>
		<g
   transform="matrix(0.48839619041947596 -0.8726220036096631 0.8726220036096631 0.48839619041947596 -99.85036026268972 14.107163787233366)"
   id="g11">
<g
   style=""
   paint-order="stroke"
   id="g10">
		<g
   transform="matrix(1 0 0 1 0 0)"
   id="66be4197-25ea-4294-9fae-8f4cf80d8624-path-0">
<path
   style="stroke: rgb(84,70,53); stroke-width: 2; stroke-dasharray: none; stroke-linecap: butt; stroke-dashoffset: 0; stroke-linejoin: miter; stroke-miterlimit: 4; fill: rgb(221,186,133); fill-rule: nonzero; opacity: 1;"
   paint-order="stroke"
   transform=" translate(0, 0)"
   d=""
   stroke-linecap="round"
   id="path9" />
</g>
</g>
</g>
		<g
   transform="matrix(0.5775597266362587 -0.8163484318401366 0.8163484318401366 0.5775597266362587 -100.3688381647341 1.4977598031472925)"
   id="g13">
<g
   style=""
   paint-order="stroke"
   id="g12">
		<g
   transform="matrix(1 0 0 1 0 0)"
   id="0352d969-eca0-403b-93f6-f35836ae7478-path-0">
<path
   style="stroke: rgb(84,70,53); stroke-width: 2; stroke-dasharray: none; stroke-linecap: butt; stroke-dashoffset: 0; stroke-linejoin: miter; stroke-miterlimit: 4; fill: rgb(221,186,133); fill-rule: nonzero; opacity: 1;"
   paint-order="stroke"
   transform=" translate(-7.33, 7.35)"
   d="M 4.54 0 L 1.01 0 L 1.01 -14.7 L 4.54 -14.7 L 4.54 -8.99 L 6.99 -8.99 L 9.39 -14.7 L 13.34 -14.7 L 10.16 -7.77 L 13.65 0 L 9.66 0 L 7.16 -5.92 L 4.54 -5.92 L 4.54 0 Z"
   stroke-linecap="round"
   id="path11" />
</g>
</g>
</g>
		<g
   transform="matrix(0.6603026173877755 -0.750999636132304 0.750999636132304 0.6603026173877755 -85.28069138283611 -5.492019345287934)"
   id="g15">
<g
   style=""
   paint-order="stroke"
   id="g14">
		<g
   transform="matrix(1 0 0 1 0 0)"
   id="b9266b7c-2cee-4712-90e7-e3863c2e7d8a-path-0">
<path
   style="stroke: rgb(84,70,53); stroke-width: 2; stroke-dasharray: none; stroke-linecap: butt; stroke-dashoffset: 0; stroke-linejoin: miter; stroke-miterlimit: 4; fill: rgb(221,186,133); fill-rule: nonzero; opacity: 1;"
   paint-order="stroke"
   transform=" translate(0, 0)"
   d=""
   stroke-linecap="round"
   id="path13" />
</g>
</g>
</g>
		<g
   transform="matrix(0.7295715264434395 -0.6839045165832652 0.6839045165832652 0.7295715264434395 -84.1829231596937 -16.971230466773395)"
   id="g17">
<g
   style=""
   paint-order="stroke"
   id="g16">
		<g
   transform="matrix(1 0 0 1 0 0)"
   id="d57fdde7-64b9-4053-bdab-5de7f0b67bcc-path-0">
<path
   style="stroke: rgb(84,70,53); stroke-width: 2; stroke-dasharray: none; stroke-linecap: butt; stroke-dashoffset: 0; stroke-linejoin: miter; stroke-miterlimit: 4; fill: rgb(221,186,133); fill-rule: nonzero; opacity: 1;"
   paint-order="stroke"
   transform=" translate(-6.03, 7.35)"
   d="M 3.51 0 L 0.95 -2.56 L 0.95 -12.14 L 3.51 -14.7 L 10.9 -14.7 L 10.9 -11.49 L 4.6 -11.49 L 4.6 -3.21 L 11.11 -3.21 L 11.11 0 L 3.51 0 Z"
   stroke-linecap="round"
   id="path15" />
</g>
</g>
</g>
		<g
   transform="matrix(0.8140923750560161 -0.5807354000538066 0.5807354000538066 0.8140923750560161 -71.60839182565242 -27.256236656245754)"
   id="g19">
<g
   style=""
   paint-order="stroke"
   id="g18">
		<g
   transform="matrix(1 0 0 1 0 0)"
   id="07dbdaa8-728a-485d-af18-15a21ef053f0-path-0">
<path
   style="stroke: rgb(84,70,53); stroke-width: 2; stroke-dasharray: none; stroke-linecap: butt; stroke-dashoffset: 0; stroke-linejoin: miter; stroke-miterlimit: 4; fill: rgb(221,186,133); fill-rule: nonzero; opacity: 1;"
   paint-order="stroke"
   transform=" translate(-6.825, 7.35)"
   d="M 3.57 0 L 1.01 -2.56 L 1.01 -14.7 L 4.54 -14.7 L 4.54 -3.19 L 9.11 -3.19 L 9.11 -14.7 L 12.64 -14.7 L 12.64 -2.56 L 10.08 0 L 3.57 0 Z"
   stroke-linecap="round"
   id="path17" />
</g>
</g>
</g>
		<g
   transform="matrix(0.8878710710360407 -0.46009233988115267 0.46009233988115267 0.8878710710360407 -56.73121273243138 -36.353947519909624)"
   id="g21">
<g
   style=""
   paint-order="stroke"
   id="g20">
		<g
   transform="matrix(1 0 0 1 0 0)"
   id="743ac268-9029-4750-ba18-e10512c4bd5c-path-0">
<path
   style="stroke: rgb(84,70,53); stroke-width: 2; stroke-dasharray: none; stroke-linecap: butt; stroke-dashoffset: 0; stroke-linejoin: miter; stroke-miterlimit: 4; fill: rgb(221,186,133); fill-rule: nonzero; opacity: 1;"
   paint-order="stroke"
   transform=" translate(-6.7250000000000005, 7.35)"
   d="M 10.06 0 L 1.16 0 L 1.16 -3.07 L 8.97 -3.07 L 8.97 -5.82 L 0.95 -6.51 L 0.95 -12.26 L 3.38 -14.7 L 12.29 -14.7 L 12.29 -11.63 L 4.47 -11.63 L 4.47 -9.09 L 12.5 -8.4 L 12.5 -2.44 L 10.06 0 Z"
   stroke-linecap="round"
   id="path19" />
</g>
</g>
</g>
		<g
   transform="matrix(0.9410402267818246 -0.3382946815697996 0.3382946815697996 0.9410402267818246 -41.712344253821215 -42.91002006594658)"
   id="g23">
<g
   style=""
   paint-order="stroke"
   id="g22">
		<g
   transform="matrix(1 0 0 1 0 0)"
   id="da340434-7abf-41d5-8d34-59a6997e4b3e-path-0">
<path
   style="stroke: rgb(84,70,53); stroke-width: 2; stroke-dasharray: none; stroke-linecap: butt; stroke-dashoffset: 0; stroke-linejoin: miter; stroke-miterlimit: 4; fill: rgb(221,186,133); fill-rule: nonzero; opacity: 1;"
   paint-order="stroke"
   transform=" translate(-5.88, 7.35)"
   d="M 7.64 0 L 4.12 0 L 4.12 -11.76 L 0.42 -11.76 L 0.42 -14.7 L 11.34 -14.7 L 11.34 -11.76 L 7.64 -11.76 L 7.64 0 Z"
   stroke-linecap="round"
   id="path21" />
</g>
</g>
</g>
		<g
   transform="matrix(0.9783808534082161 -0.2068112803601649 0.2068112803601649 0.9783808534082161 -25.500382035413384 -47.51402449466997)"
   id="g25">
<g
   style=""
   paint-order="stroke"
   id="g24">
		<g
   transform="matrix(1 0 0 1 0 0)"
   id="2fee2f80-b978-4ce3-bfb5-9d9c57c130d4-path-0">
<path
   style="stroke: rgb(84,70,53); stroke-width: 2; stroke-dasharray: none; stroke-linecap: butt; stroke-dashoffset: 0; stroke-linejoin: miter; stroke-miterlimit: 4; fill: rgb(221,186,133); fill-rule: nonzero; opacity: 1;"
   paint-order="stroke"
   transform=" translate(-7.1450000000000005, 7.35)"
   d="M 3.51 0 L 0.95 -2.56 L 0.95 -12.14 L 3.51 -14.7 L 10.77 -14.7 L 13.34 -12.14 L 13.34 -2.56 L 10.77 0 L 3.51 0 Z M 9.68 -11.63 L 4.6 -11.63 L 4.6 -3.07 L 9.68 -3.07 L 9.68 -11.63 Z"
   stroke-linecap="round"
   id="path23" />
</g>
</g>
</g>
		<g
   transform="matrix(0.9987172719092611 -0.05063408723501457 0.05063408723501457 0.9987172719092611 -6.242526154298956 -50.02257341416201)"
   id="g27">
<g
   style=""
   paint-order="stroke"
   id="g26">
		<g
   transform="matrix(1 0 0 1 0 0)"
   id="251bfddb-a96e-475b-acdf-8076a145c7fc-path-0">
<path
   style="stroke: rgb(84,70,53); stroke-width: 2; stroke-dasharray: none; stroke-linecap: butt; stroke-dashoffset: 0; stroke-linejoin: miter; stroke-miterlimit: 4; fill: rgb(221,186,133); fill-rule: nonzero; opacity: 1;"
   paint-order="stroke"
   transform=" translate(-8.19, 7.35)"
   d="M 4.47 0 L 1.01 0 L 1.01 -14.7 L 5.25 -14.7 L 8.19 -8.44 L 11.13 -14.7 L 15.37 -14.7 L 15.37 0 L 11.91 0 L 11.91 -10.21 L 8.95 -4.12 L 7.43 -4.12 L 4.47 -10.21 L 4.47 0 Z"
   stroke-linecap="round"
   id="path25" />
</g>
</g>
</g>
		<g
   transform="matrix(0.9977455104698314 0.06711107462480083 -0.06711107462480083 0.9977455104698314 10.507853579024257 -42.38473362752941)"
   id="g29">
<g
   style=""
   paint-order="stroke"
   id="g28">
		<g
   transform="matrix(1 0 0 1 0 0)"
   id="7d2b8334-8205-4109-8068-635dbe28330b-path-0">
<path
   style="stroke: rgb(84,70,53); stroke-width: 2; stroke-dasharray: none; stroke-linecap: butt; stroke-dashoffset: 0; stroke-linejoin: miter; stroke-miterlimit: 4; fill: rgb(221,186,133); fill-rule: nonzero; opacity: 1;"
   paint-order="stroke"
   transform=" translate(0, 0)"
   d=""
   stroke-linecap="round"
   id="path27" />
</g>
</g>
</g>
		<g
   transform="matrix(0.9816067212283581 0.1909142342501272 -0.1909142342501272 0.9816067212283581 23.530933830485147 -47.91488947902391)"
   id="g31">
<g
   style=""
   paint-order="stroke"
   id="g30">
		<g
   transform="matrix(1 0 0 1 0 0)"
   id="022c3357-c90d-4cb9-bb4d-ee738eb3ec0d-path-0">
<path
   style="stroke: rgb(84,70,53); stroke-width: 2; stroke-dasharray: none; stroke-linecap: butt; stroke-dashoffset: 0; stroke-linejoin: miter; stroke-miterlimit: 4; fill: rgb(221,186,133); fill-rule: nonzero; opacity: 1;"
   paint-order="stroke"
   transform=" translate(-8.969999999999999, 7.35)"
   d="M 7.54 0 L 2.52 0 L 0.17 -14.7 L 3.95 -14.7 L 5.44 -3.7 L 6.11 -3.7 L 7.67 -12.39 L 10.27 -12.39 L 11.82 -3.7 L 12.5 -3.7 L 13.99 -14.7 L 17.77 -14.7 L 15.41 0 L 10.4 0 L 8.97 -7.83 L 7.54 0 Z"
   stroke-linecap="round"
   id="path29" />
</g>
</g>
</g>
		<g
   transform="matrix(0.9369959384869115 0.3493402514154816 -0.3493402514154816 0.9369959384869115 43.07635181605668 -42.4118923871881)"
   id="g33">
<g
   style=""
   paint-order="stroke"
   id="g32">
		<g
   transform="matrix(1 0 0 1 0 0)"
   id="ffb7e181-3281-4615-b8b1-a928d2b528d4-path-0">
<path
   style="stroke: rgb(84,70,53); stroke-width: 2; stroke-dasharray: none; stroke-linecap: butt; stroke-dashoffset: 0; stroke-linejoin: miter; stroke-miterlimit: 4; fill: rgb(221,186,133); fill-rule: nonzero; opacity: 1;"
   paint-order="stroke"
   transform=" translate(-7.1450000000000005, 7.35)"
   d="M 3.51 0 L 0.95 -2.56 L 0.95 -12.14 L 3.51 -14.7 L 10.77 -14.7 L 13.34 -12.14 L 13.34 -2.56 L 10.77 0 L 3.51 0 Z M 9.68 -11.63 L 4.6 -11.63 L 4.6 -3.07 L 9.68 -3.07 L 9.68 -11.63 Z"
   stroke-linecap="round"
   id="path31" />
</g>
</g>
</g>
		<g
   transform="matrix(0.8751552629590372 0.4838421909208604 -0.4838421909208604 0.8751552629590372 59.661437320269116 -34.78650496104316)"
   id="g35">
<g
   style=""
   paint-order="stroke"
   id="g34">
		<g
   transform="matrix(1 0 0 1 0 0)"
   id="6a0deb49-80e9-405d-b935-71c86714f6a6-path-0">
<path
   style="stroke: rgb(84,70,53); stroke-width: 2; stroke-dasharray: none; stroke-linecap: butt; stroke-dashoffset: 0; stroke-linejoin: miter; stroke-miterlimit: 4; fill: rgb(221,186,133); fill-rule: nonzero; opacity: 1;"
   paint-order="stroke"
   transform=" translate(-7.1450000000000005, 7.35)"
   d="M 3.51 0 L 0.95 -2.56 L 0.95 -12.14 L 3.51 -14.7 L 10.77 -14.7 L 13.34 -12.14 L 13.34 -2.56 L 10.77 0 L 3.51 0 Z M 9.68 -11.63 L 4.6 -11.63 L 4.6 -3.07 L 9.68 -3.07 L 9.68 -11.63 Z"
   stroke-linecap="round"
   id="path33" />
</g>
</g>
</g>
		<g
   transform="matrix(0.7967225695596377 0.6043452218345804 -0.6043452218345804 0.7967225695596377 74.54581138779061 -25.09565735623707)"
   id="g37">
<g
   style=""
   paint-order="stroke"
   id="g36">
		<g
   transform="matrix(1 0 0 1 0 0)"
   id="dea0c101-06af-4824-8479-77c7e2b57412-path-0">
<path
   style="stroke: rgb(84,70,53); stroke-width: 2; stroke-dasharray: none; stroke-linecap: butt; stroke-dashoffset: 0; stroke-linejoin: miter; stroke-miterlimit: 4; fill: rgb(221,186,133); fill-rule: nonzero; opacity: 1;"
   paint-order="stroke"
   transform=" translate(-6.7, 7.35)"
   d="M 9.83 0 L 1.01 0 L 1.01 -14.7 L 9.83 -14.7 L 12.39 -12.14 L 12.39 -2.56 L 9.83 0 Z M 4.54 -11.63 L 4.54 -3.07 L 8.86 -3.07 L 8.86 -11.63 L 4.54 -11.63 Z"
   stroke-linecap="round"
   id="path35" />
</g>
</g>
</g>
		<g
   transform="matrix(0.6898977710950328 0.7239068071499989 -0.7239068071499989 0.6898977710950328 89.25630379520797 -11.950561607478896)"
   id="g39">
<g
   style=""
   paint-order="stroke"
   id="g38">
		<g
   transform="matrix(1 0 0 1 0 0)"
   id="c76e3eb1-66f5-4310-b709-a73ab3f05a73-path-0">
<path
   style="stroke: rgb(84,70,53); stroke-width: 2; stroke-dasharray: none; stroke-linecap: butt; stroke-dashoffset: 0; stroke-linejoin: miter; stroke-miterlimit: 4; fill: rgb(221,186,133); fill-rule: nonzero; opacity: 1;"
   paint-order="stroke"
   transform=" translate(-8.969999999999999, 7.35)"
   d="M 7.54 0 L 2.52 0 L 0.17 -14.7 L 3.95 -14.7 L 5.44 -3.7 L 6.11 -3.7 L 7.67 -12.39 L 10.27 -12.39 L 11.82 -3.7 L 12.5 -3.7 L 13.99 -14.7 L 17.77 -14.7 L 15.41 0 L 10.4 0 L 8.97 -7.83 L 7.54 0 Z"
   stroke-linecap="round"
   id="path37" />
</g>
</g>
</g>
		<g
   transform="matrix(0.5618118562492932 0.8272650350266978 -0.8272650350266978 0.5618118562492932 102.00822579453431 3.8512876543468533)"
   id="g41">
<g
   style=""
   paint-order="stroke"
   id="g40">
		<g
   transform="matrix(1 0 0 1 0 0)"
   id="700162f1-d58d-4168-b643-cd0295dce020-path-0">
<path
   style="stroke: rgb(84,70,53); stroke-width: 2; stroke-dasharray: none; stroke-linecap: butt; stroke-dashoffset: 0; stroke-linejoin: miter; stroke-miterlimit: 4; fill: rgb(221,186,133); fill-rule: nonzero; opacity: 1;"
   paint-order="stroke"
   transform=" translate(-7.1450000000000005, 7.35)"
   d="M 3.51 0 L 0.95 -2.56 L 0.95 -12.14 L 3.51 -14.7 L 10.77 -14.7 L 13.34 -12.14 L 13.34 -2.56 L 10.77 0 L 3.51 0 Z M 9.68 -11.63 L 4.6 -11.63 L 4.6 -3.07 L 9.68 -3.07 L 9.68 -11.63 Z"
   stroke-linecap="round"
   id="path39" />
</g>
</g>
</g>
		<g
   transform="matrix(0.435661511504973 0.9001105750924173 -0.9001105750924173 0.435661511504973 111.18683747135832 19.812625342907427)"
   id="g43">
<g
   style=""
   paint-order="stroke"
   id="g42">
		<g
   transform="matrix(1 0 0 1 0 3.55271e-15)"
   id="789e751e-cb71-41d8-8f6e-adeef305b1cf-path-0">
<path
   style="stroke: rgb(84,70,53); stroke-width: 2; stroke-dasharray: none; stroke-linecap: butt; stroke-dashoffset: 0; stroke-linejoin: miter; stroke-miterlimit: 4; fill: rgb(221,186,133); fill-rule: nonzero; opacity: 1;"
   paint-order="stroke"
   transform=" translate(-7.33, 7.35)"
   d="M 10.29 -14.7 L 12.85 -12.14 L 12.85 -6.74 L 11.26 -5.12 L 13.65 0 L 9.7 0 L 7.96 -4.16 L 4.54 -4.16 L 4.54 0 L 1.01 0 L 1.01 -14.7 L 10.29 -14.7 Z M 4.54 -11.89 L 4.54 -6.97 L 9.32 -6.97 L 9.32 -11.89 L 4.54 -11.89 Z"
   stroke-linecap="round"
   id="path41" />
</g>
</g>
</g>
		<g
   transform="matrix(0.3029795524347979 0.952997057081715 -0.952997057081715 0.3029795524347979 117.66445308599617 36.24711967302564)"
   id="g45">
<g
   style=""
   paint-order="stroke"
   id="g44">
		<g
   transform="matrix(1 0 0 1 0 0)"
   id="db7f50cf-246b-4d92-8e16-bd7abc55d436-path-0">
<path
   style="stroke: rgb(84,70,53); stroke-width: 2; stroke-dasharray: none; stroke-linecap: butt; stroke-dashoffset: 0; stroke-linejoin: miter; stroke-miterlimit: 4; fill: rgb(221,186,133); fill-rule: nonzero; opacity: 1;"
   paint-order="stroke"
   transform=" translate(-7.33, 7.35)"
   d="M 4.54 0 L 1.01 0 L 1.01 -14.7 L 4.54 -14.7 L 4.54 -8.99 L 6.99 -8.99 L 9.39 -14.7 L 13.34 -14.7 L 10.16 -7.77 L 13.65 0 L 9.66 0 L 7.16 -5.92 L 4.54 -5.92 L 4.54 0 Z"
   stroke-linecap="round"
   id="path43" />
</g>
</g>
</g>
		<g
   transform="matrix(0.165519815754425 0.9862064644853131 -0.9862064644853131 0.165519815754425 121.60658803658278 52.716157143457174)"
   id="g47">
<g
   style=""
   paint-order="stroke"
   id="g46">
		<g
   transform="matrix(1 0 0 1 0 0)"
   id="51ed72e5-94d9-4319-ae99-512bd5a1cdd9-path-0">
<path
   style="stroke: rgb(84,70,53); stroke-width: 2; stroke-dasharray: none; stroke-linecap: butt; stroke-dashoffset: 0; stroke-linejoin: miter; stroke-miterlimit: 4; fill: rgb(221,186,133); fill-rule: nonzero; opacity: 1;"
   paint-order="stroke"
   transform=" translate(-6.7250000000000005, 7.35)"
   d="M 10.06 0 L 1.16 0 L 1.16 -3.07 L 8.97 -3.07 L 8.97 -5.82 L 0.95 -6.51 L 0.95 -12.26 L 3.38 -14.7 L 12.29 -14.7 L 12.29 -11.63 L 4.47 -11.63 L 4.47 -9.09 L 12.5 -8.4 L 12.5 -2.44 L 10.06 0 Z"
   stroke-linecap="round"
   id="path45" />
</g>
</g>
</g>
</g>
</g>
<g
   transform="matrix(1.7076655811868018 3.051024596968496 -3.0510245969684955 1.7076655811868016 179.70720817003883 891.258012579085)"
   id="tagline-7d49a8ff-875e-4756-ac96-c2df492281ad-logo-0">
<g
   paint-order="stroke"
   id="g49"
   style="">
		<g
   id="e95e7486-3ee2-4e93-8470-1fd2a6282712-path-0"
   transform="matrix(1 0 0 1 0 0)">
<path
   style="stroke: none; stroke-width: 0; stroke-dasharray: none; stroke-linecap: butt; stroke-dashoffset: 0; stroke-linejoin: miter; stroke-miterlimit: 4; fill: rgb(221,186,133); fill-rule: nonzero; opacity: 1;"
   paint-order="stroke"
   transform=" translate(-4.935, 5.25)"
   d="M 3.24 0 L 0.72 0 L 0.72 -10.5 L 3.24 -10.5 L 3.24 -6.54 L 6.63 -6.54 L 6.63 -10.5 L 9.15 -10.5 L 9.15 0 L 6.63 0 L 6.63 -4.26 L 3.24 -4.26 L 3.24 0 Z"
   stroke-linecap="round"
   id="path48" />
</g>
</g>
</g>
<g
   transform="matrix(1.9384074361877155 2.909888217751499 -2.909888217751499 1.9384074361877153 200.67743052176473 925.5409478881791)"
   id="tagline-7d49a8ff-875e-4756-ac96-c2df492281ad-logo-1">
<g
   paint-order="stroke"
   id="g50"
   style="">
		<g
   id="c90bdb24-1236-4f3f-bdaa-3b0535e37ba1-path-0"
   transform="matrix(1 0 0 1 0 0)">
<path
   style="stroke: none; stroke-width: 0; stroke-dasharray: none; stroke-linecap: butt; stroke-dashoffset: 0; stroke-linejoin: miter; stroke-miterlimit: 4; fill: rgb(221,186,133); fill-rule: nonzero; opacity: 1;"
   paint-order="stroke"
   transform=" translate(-4.825, 5.25)"
   d="M 2.83 0 L 0.16 0 L 2.38 -10.5 L 7.27 -10.5 L 9.49 0 L 6.83 0 L 6.4 -2.25 L 3.25 -2.25 L 2.83 0 Z M 4.37 -8.5 L 3.54 -4.06 L 6.12 -4.06 L 5.29 -8.5 L 4.37 -8.5 Z"
   stroke-linecap="round"
   id="path49" />
</g>
</g>
</g>
<g
   transform="matrix(2.1608449951956614 2.74874912191249 -2.7487491219124904 2.1608449951956614 224.65669071183373 958.6426838289857)"
   id="tagline-7d49a8ff-875e-4756-ac96-c2df492281ad-logo-2">
<g
   paint-order="stroke"
   id="g51"
   style="">
		<g
   id="9f1f4774-33d6-43cc-8393-4b39d6b5f51e-path-0"
   transform="matrix(1 0 0 1 0 0)">
<path
   style="stroke: none; stroke-width: 0; stroke-dasharray: none; stroke-linecap: butt; stroke-dashoffset: 0; stroke-linejoin: miter; stroke-miterlimit: 4; fill: rgb(221,186,133); fill-rule: nonzero; opacity: 1;"
   paint-order="stroke"
   transform=" translate(-5.1, 5.25)"
   d="M 3.06 0 L 0.72 0 L 0.72 -10.5 L 3.1 -10.5 L 7.14 -3.82 L 7.14 -10.5 L 9.48 -10.5 L 9.48 0 L 7.09 0 L 3.06 -6.67 L 3.06 0 Z"
   stroke-linecap="round"
   id="path50" />
</g>
</g>
</g>
<g
   transform="matrix(2.3685773613115932 2.5719086515580285 -2.5719086515580294 2.3685773613115937 251.0072187758941 989.5968237874761)"
   id="tagline-7d49a8ff-875e-4756-ac96-c2df492281ad-logo-3">
<g
   paint-order="stroke"
   id="g52"
   style="">
		<g
   id="0a8c8f22-089f-4db8-8d29-921cea635351-path-0"
   transform="matrix(1 0 0 1 0 0)">
<path
   style="stroke: none; stroke-width: 0; stroke-dasharray: none; stroke-linecap: butt; stroke-dashoffset: 0; stroke-linejoin: miter; stroke-miterlimit: 4; fill: rgb(221,186,133); fill-rule: nonzero; opacity: 1;"
   paint-order="stroke"
   transform=" translate(-4.784999999999999, 5.25)"
   d="M 7.02 0 L 0.72 0 L 0.72 -10.5 L 7.02 -10.5 L 8.85 -8.67 L 8.85 -1.83 L 7.02 0 Z M 3.24 -8.31 L 3.24 -2.19 L 6.33 -2.19 L 6.33 -8.31 L 3.24 -8.31 Z"
   stroke-linecap="round"
   id="path51" />
</g>
</g>
</g>
<g
   transform="matrix(0.717311489065489 0.6967526301741894 -0.6967526301741894 0.717311489065489 209.62364268029708 372.72926532475225)"
   id="tagline-7d49a8ff-875e-4756-ac96-c2df492281ad-logo-4">
<g
   style=""
   paint-order="stroke"
   id="g53">
		<g
   transform="matrix(1 0 0 1 0 0)"
   id="7e344372-4fbf-4684-8050-59d638aad24e-path-0">
<path
   style="stroke: none; stroke-width: 0; stroke-dasharray: none; stroke-linecap: butt; stroke-dashoffset: 0; stroke-linejoin: miter; stroke-miterlimit: 4; fill: rgb(221,186,133); fill-rule: nonzero; opacity: 1;"
   paint-order="stroke"
   transform=" translate(0, 0)"
   d=""
   stroke-linecap="round"
   id="path52" />
</g>
</g>
</g>
<g
   transform="matrix(2.65731198910944 2.2723480853540137 -2.2723480853540137 2.65731198910944 295.50901613592254 1032.476233989261)"
   id="tagline-7d49a8ff-875e-4756-ac96-c2df492281ad-logo-5">
<g
   paint-order="stroke"
   id="g54"
   style="">
		<g
   id="e4e421ea-36f9-4a3f-b1db-414df8b3598e-path-0"
   transform="matrix(1 0 0 1 0 0)">
<path
   style="stroke: none; stroke-width: 0; stroke-dasharray: none; stroke-linecap: butt; stroke-dashoffset: 0; stroke-linejoin: miter; stroke-miterlimit: 4; fill: rgb(221,186,133); fill-rule: nonzero; opacity: 1;"
   paint-order="stroke"
   transform=" translate(-5.85, 5.25)"
   d="M 3.19 0 L 0.72 0 L 0.72 -10.5 L 3.75 -10.5 L 5.85 -6.03 L 7.95 -10.5 L 10.98 -10.5 L 10.98 0 L 8.5 0 L 8.5 -7.29 L 6.39 -2.94 L 5.31 -2.94 L 3.19 -7.29 L 3.19 0 Z"
   stroke-linecap="round"
   id="path53" />
</g>
</g>
</g>
<g
   transform="matrix(2.8384027496189175 2.0416519437535365 -2.0416519437535365 2.8384027496189175 329.7934941787642 1059.3961664068722)"
   id="tagline-7d49a8ff-875e-4756-ac96-c2df492281ad-logo-6">
<g
   paint-order="stroke"
   id="g55"
   style="">
		<g
   id="6f622bfb-5fc7-4cc5-a027-ffaecbaa810d-path-0"
   transform="matrix(1 0 0 1 0 0)">
<path
   style="stroke: none; stroke-width: 0; stroke-dasharray: none; stroke-linecap: butt; stroke-dashoffset: 0; stroke-linejoin: miter; stroke-miterlimit: 4; fill: rgb(221,186,133); fill-rule: nonzero; opacity: 1;"
   paint-order="stroke"
   transform=" translate(-4.825, 5.25)"
   d="M 2.83 0 L 0.16 0 L 2.38 -10.5 L 7.27 -10.5 L 9.49 0 L 6.83 0 L 6.4 -2.25 L 3.25 -2.25 L 2.83 0 Z M 4.37 -8.5 L 3.54 -4.06 L 6.12 -4.06 L 5.29 -8.5 L 4.37 -8.5 Z"
   stroke-linecap="round"
   id="path54" />
</g>
</g>
</g>
<g
   transform="matrix(2.9855550399728945 1.8197071005437315 -1.8197071005437315 2.9855550399728945 362.8923965423472 1081.3363213676234)"
   id="tagline-7d49a8ff-875e-4756-ac96-c2df492281ad-logo-7">
<g
   paint-order="stroke"
   id="g56"
   style="">
		<g
   id="121f392a-da7b-48ca-b03f-5f18b7ffd609-path-0"
   transform="matrix(1 0 0 1 0 0)">
<path
   style="stroke: none; stroke-width: 0; stroke-dasharray: none; stroke-linecap: butt; stroke-dashoffset: 0; stroke-linejoin: miter; stroke-miterlimit: 4; fill: rgb(221,186,133); fill-rule: nonzero; opacity: 1;"
   paint-order="stroke"
   transform=" translate(-4.784999999999999, 5.25)"
   d="M 7.02 0 L 0.72 0 L 0.72 -10.5 L 7.02 -10.5 L 8.85 -8.67 L 8.85 -1.83 L 7.02 0 Z M 3.24 -8.31 L 3.24 -2.19 L 6.33 -2.19 L 6.33 -8.31 L 3.24 -8.31 Z"
   stroke-linecap="round"
   id="path55" />
</g>
</g>
</g>
<g
   transform="matrix(3.1098740980049735 1.5979849570739324 -1.5979849570739324 3.109874098004974 396.21695414687673 1100.0022250604804)"
   id="tagline-7d49a8ff-875e-4756-ac96-c2df492281ad-logo-8">
<g
   paint-order="stroke"
   id="g57"
   style="">
		<g
   id="85ce8d52-e693-47a8-be00-1585517e2f05-path-0"
   transform="matrix(1 0 0 1 0 0)">
<path
   style="stroke: none; stroke-width: 0; stroke-dasharray: none; stroke-linecap: butt; stroke-dashoffset: 0; stroke-linejoin: miter; stroke-miterlimit: 4; fill: rgb(221,186,133); fill-rule: nonzero; opacity: 1;"
   paint-order="stroke"
   transform=" translate(-4.485, 5.25)"
   d="M 8.25 0 L 0.72 0 L 0.72 -10.5 L 8.1 -10.5 L 8.1 -8.4 L 3.24 -8.4 L 3.24 -6.36 L 7.35 -6.36 L 7.35 -4.35 L 3.24 -4.35 L 3.24 -2.1 L 8.25 -2.1 L 8.25 0 Z"
   stroke-linecap="round"
   id="path56" />
</g>
</g>
</g>
<g
   transform="matrix(0.9123046230873387 0.40951223998003866 -0.40951223998003866 0.9123046230873387 254.2323305629394 402.19248181099283)"
   id="tagline-7d49a8ff-875e-4756-ac96-c2df492281ad-logo-9">
<g
   style=""
   paint-order="stroke"
   id="g58">
		<g
   transform="matrix(1 0 0 1 0 0)"
   id="ace6e1d6-c625-4830-afa8-949115a0cfab-path-0">
<path
   style="stroke: none; stroke-width: 0; stroke-dasharray: none; stroke-linecap: butt; stroke-dashoffset: 0; stroke-linejoin: miter; stroke-miterlimit: 4; fill: rgb(221,186,133); fill-rule: nonzero; opacity: 1;"
   paint-order="stroke"
   transform=" translate(0, 0)"
   d=""
   stroke-linecap="round"
   id="path57" />
</g>
</g>
</g>
<g
   transform="matrix(3.2506486004622976 1.2876942590496125 -1.2876942590496128 3.2506486004622985 441.94412145174414 1120.7196054235337)"
   id="tagline-7d49a8ff-875e-4756-ac96-c2df492281ad-logo-10">
<g
   paint-order="stroke"
   id="g59"
   style="">
		<g
   id="9b7b78f4-29b3-4cca-8313-36bfdf29609a-path-0"
   transform="matrix(1 0 0 1 0 0)">
<path
   style="stroke: none; stroke-width: 0; stroke-dasharray: none; stroke-linecap: butt; stroke-dashoffset: 0; stroke-linejoin: miter; stroke-miterlimit: 4; fill: rgb(221,186,133); fill-rule: nonzero; opacity: 1;"
   paint-order="stroke"
   transform=" translate(-3.2199999999999998, 5.25)"
   d="M 3.23 -0.06 L 0.67 0.06 L 0.67 -1.91 L 1.96 -1.98 L 1.96 -8.52 L 0.67 -8.59 L 0.67 -10.56 L 3.23 -10.44 L 5.77 -10.56 L 5.77 -8.59 L 4.48 -8.52 L 4.48 -1.98 L 5.77 -1.91 L 5.77 0.06 L 3.23 -0.06 Z"
   stroke-linecap="round"
   id="path58" />
</g>
</g>
</g>
<g
   transform="matrix(3.3296990956581904 1.066759935903974 -1.066759935903974 3.329699095658191 474.8005364430571 1132.4763102647755)"
   id="tagline-7d49a8ff-875e-4756-ac96-c2df492281ad-logo-11">
<g
   paint-order="stroke"
   id="g60"
   style="">
		<g
   id="fc4e175b-6358-4cf3-a292-a7f91711ef86-path-0"
   transform="matrix(1 0 0 1 0 0)">
<path
   style="stroke: none; stroke-width: 0; stroke-dasharray: none; stroke-linecap: butt; stroke-dashoffset: 0; stroke-linejoin: miter; stroke-miterlimit: 4; fill: rgb(221,186,133); fill-rule: nonzero; opacity: 1;"
   paint-order="stroke"
   transform=" translate(-5.1, 5.25)"
   d="M 3.06 0 L 0.72 0 L 0.72 -10.5 L 3.1 -10.5 L 7.14 -3.82 L 7.14 -10.5 L 9.48 -10.5 L 9.48 0 L 7.09 0 L 3.06 -6.67 L 3.06 0 Z"
   stroke-linecap="round"
   id="path59" />
</g>
</g>
</g>
<g
   transform="matrix(0.9684213863435316 0.24931910972180285 -0.24931910972180285 0.9684213863435316 279.00612378619195 410.52065485897185)"
   id="tagline-7d49a8ff-875e-4756-ac96-c2df492281ad-logo-12">
<g
   style=""
   paint-order="stroke"
   id="g61">
		<g
   transform="matrix(1 0 0 1 0 0)"
   id="259f41ec-aea1-45bd-959e-d73b855e11c4-path-0">
<path
   style="stroke: none; stroke-width: 0; stroke-dasharray: none; stroke-linecap: butt; stroke-dashoffset: 0; stroke-linejoin: miter; stroke-miterlimit: 4; fill: rgb(221,186,133); fill-rule: nonzero; opacity: 1;"
   paint-order="stroke"
   transform=" translate(0, 0)"
   d=""
   stroke-linecap="round"
   id="path60" />
</g>
</g>
</g>
<g
   transform="matrix(3.426503331268732 0.6956635316595997 -0.6956635316595999 3.4265033312687327 529.9908841480438 1146.8715005032461)"
   id="tagline-7d49a8ff-875e-4756-ac96-c2df492281ad-logo-13">
<g
   paint-order="stroke"
   id="g62"
   style="">
		<g
   id="a51e11ad-3436-4573-8177-9f5fc3c4f14d-path-0"
   transform="matrix(1 0 0 1 0 0)">
<path
   style="stroke: none; stroke-width: 0; stroke-dasharray: none; stroke-linecap: butt; stroke-dashoffset: 0; stroke-linejoin: miter; stroke-miterlimit: 4; fill: rgb(221,186,133); fill-rule: nonzero; opacity: 1;"
   paint-order="stroke"
   transform=" translate(-4.2, 5.25)"
   d="M 5.46 0 L 2.94 0 L 2.94 -8.4 L 0.3 -8.4 L 0.3 -10.5 L 8.1 -10.5 L 8.1 -8.4 L 5.46 -8.4 L 5.46 0 Z"
   stroke-linecap="round"
   id="path61" />
</g>
</g>
</g>
<g
   transform="matrix(3.4680498201394534 0.44441340383423983 -0.4444134038342398 3.468049820139453 567.3686051073332 1153.0530058471222)"
   id="tagline-7d49a8ff-875e-4756-ac96-c2df492281ad-logo-14">
<g
   paint-order="stroke"
   id="g63"
   style="">
		<g
   id="2f18b005-9239-4a81-b2b3-133dfa8f5c41-path-0"
   transform="matrix(1 0 0 1 0 0)">
<path
   style="stroke: none; stroke-width: 0; stroke-dasharray: none; stroke-linecap: butt; stroke-dashoffset: 0; stroke-linejoin: miter; stroke-miterlimit: 4; fill: rgb(221,186,133); fill-rule: nonzero; opacity: 1;"
   paint-order="stroke"
   transform=" translate(-4.935, 5.25)"
   d="M 3.24 0 L 0.72 0 L 0.72 -10.5 L 3.24 -10.5 L 3.24 -6.54 L 6.63 -6.54 L 6.63 -10.5 L 9.15 -10.5 L 9.15 0 L 6.63 0 L 6.63 -4.26 L 3.24 -4.26 L 3.24 0 Z"
   stroke-linecap="round"
   id="path62" />
</g>
</g>
</g>
<g
   transform="matrix(3.4913996808887853 0.187085800547555 -0.187085800547555 3.491399680888785 606.0974581221483 1156.5501509281853)"
   id="tagline-7d49a8ff-875e-4756-ac96-c2df492281ad-logo-15">
<g
   paint-order="stroke"
   id="g64"
   style="">
		<g
   id="6877d8c8-b184-4ed0-8b91-53be086b08ea-path-0"
   transform="matrix(1 0 0 1 0 0)">
<path
   style="stroke: none; stroke-width: 0; stroke-dasharray: none; stroke-linecap: butt; stroke-dashoffset: 0; stroke-linejoin: miter; stroke-miterlimit: 4; fill: rgb(221,186,133); fill-rule: nonzero; opacity: 1;"
   paint-order="stroke"
   transform=" translate(-4.485, 5.25)"
   d="M 8.25 0 L 0.72 0 L 0.72 -10.5 L 8.1 -10.5 L 8.1 -8.4 L 3.24 -8.4 L 3.24 -6.36 L 7.35 -6.36 L 7.35 -4.35 L 3.24 -4.35 L 3.24 -2.1 L 8.25 -2.1 L 8.25 0 Z"
   stroke-linecap="round"
   id="path63" />
</g>
</g>
</g>
<g
   transform="matrix(0.999999685687696 0.0007928584420418064 -0.0007928584420418064 0.999999685687696 317.332727498274 414.8983246812192)"
   id="tagline-7d49a8ff-875e-4756-ac96-c2df492281ad-logo-16">
<g
   style=""
   paint-order="stroke"
   id="g65">
		<g
   transform="matrix(1 0 0 1 0 0)"
   id="bf2e950b-bfec-4eb1-98a8-42a73fcff989-path-0">
<path
   style="stroke: none; stroke-width: 0; stroke-dasharray: none; stroke-linecap: butt; stroke-dashoffset: 0; stroke-linejoin: miter; stroke-miterlimit: 4; fill: rgb(221,186,133); fill-rule: nonzero; opacity: 1;"
   paint-order="stroke"
   transform=" translate(0, 0)"
   d=""
   stroke-linecap="round"
   id="path64" />
</g>
</g>
</g>
<g
   transform="matrix(3.490990656928137 -0.1945689125150424 0.19456891251504238 3.4909906569281364 662.3855444721017 1156.4646433971411)"
   id="tagline-7d49a8ff-875e-4756-ac96-c2df492281ad-logo-17">
<g
   paint-order="stroke"
   id="g66"
   style="">
		<g
   id="cd73afc9-f54b-46bb-868c-3d512c77647c-path-0"
   transform="matrix(1 0 0 1 0 0)">
<path
   style="stroke: none; stroke-width: 0; stroke-dasharray: none; stroke-linecap: butt; stroke-dashoffset: 0; stroke-linejoin: miter; stroke-miterlimit: 4; fill: rgb(221,186,133); fill-rule: nonzero; opacity: 1;"
   paint-order="stroke"
   transform=" translate(-4.874999999999999, 5.25)"
   d="M 2.55 0 L 0.72 -1.83 L 0.72 -10.5 L 3.24 -10.5 L 3.24 -2.28 L 6.51 -2.28 L 6.51 -10.5 L 9.03 -10.5 L 9.03 -1.83 L 7.2 0 L 2.55 0 Z"
   stroke-linecap="round"
   id="path65" />
</g>
</g>
</g>
<g
   transform="matrix(3.4658119819140256 -0.461541043134849 0.46154104313484895 3.465811981914025 702.0886037032627 1152.7190819397229)"
   id="tagline-7d49a8ff-875e-4756-ac96-c2df492281ad-logo-18">
<g
   paint-order="stroke"
   id="g67"
   style="">
		<g
   id="b2dd22f4-c420-46ea-804b-79fea2eabd45-path-0"
   transform="matrix(1 0 0 1 0 0)">
<path
   style="stroke: none; stroke-width: 0; stroke-dasharray: none; stroke-linecap: butt; stroke-dashoffset: 0; stroke-linejoin: miter; stroke-miterlimit: 4; fill: rgb(221,186,133); fill-rule: nonzero; opacity: 1;"
   paint-order="stroke"
   transform=" translate(-4.795, 5.25)"
   d="M 7.18 0 L 0.82 0 L 0.82 -2.19 L 6.4 -2.19 L 6.4 -4.16 L 0.67 -4.65 L 0.67 -8.76 L 2.42 -10.5 L 8.78 -10.5 L 8.78 -8.31 L 3.19 -8.31 L 3.19 -6.5 L 8.92 -6 L 8.92 -1.74 L 7.18 0 Z"
   stroke-linecap="round"
   id="path66" />
</g>
</g>
</g>
<g
   transform="matrix(3.420825903414732 -0.7230649811763861 0.7230649811763861 3.420825903414732 740.9615117101068 1146.032521414613)"
   id="tagline-7d49a8ff-875e-4756-ac96-c2df492281ad-logo-19">
<g
   paint-order="stroke"
   id="g68"
   style="">
		<g
   id="f7577340-77dd-4cbe-aac7-342bab8e29c3-path-0"
   transform="matrix(1 0 0 1 0 0)">
<path
   style="stroke: none; stroke-width: 0; stroke-dasharray: none; stroke-linecap: butt; stroke-dashoffset: 0; stroke-linejoin: miter; stroke-miterlimit: 4; fill: rgb(221,186,133); fill-rule: nonzero; opacity: 1;"
   paint-order="stroke"
   transform=" translate(-4.825, 5.25)"
   d="M 2.83 0 L 0.16 0 L 2.38 -10.5 L 7.27 -10.5 L 9.49 0 L 6.83 0 L 6.4 -2.25 L 3.25 -2.25 L 2.83 0 Z M 4.37 -8.5 L 3.54 -4.06 L 6.12 -4.06 L 5.29 -8.5 L 4.37 -8.5 Z"
   stroke-linecap="round"
   id="path67" />
</g>
</g>
</g>
<g
   transform="matrix(0.9652210234729872 -0.26143522303958777 0.2614352230395878 0.9652210234729874 357.6423287703901 409.03361638953345)"
   id="tagline-7d49a8ff-875e-4756-ac96-c2df492281ad-logo-20">
<g
   style=""
   paint-order="stroke"
   id="g69">
		<g
   transform="matrix(1 0 0 1 0 0)"
   id="076e43ec-805d-45ef-997e-2e0f7583245a-path-0">
<path
   style="stroke: none; stroke-width: 0; stroke-dasharray: none; stroke-linecap: butt; stroke-dashoffset: 0; stroke-linejoin: miter; stroke-miterlimit: 4; fill: rgb(221,186,133); fill-rule: nonzero; opacity: 1;"
   paint-order="stroke"
   transform=" translate(0, 0)"
   d=""
   stroke-linecap="round"
   id="path68" />
</g>
</g>
</g>
<g
   transform="matrix(3.3190102837245554 -1.0995651708777738 1.099565170877774 3.319010283724556 796.9787590657251 1130.8879279880357)"
   id="tagline-7d49a8ff-875e-4756-ac96-c2df492281ad-logo-21">
<g
   paint-order="stroke"
   id="g70"
   style="">
		<g
   id="a9a4bd01-4d19-4efc-8236-d6fc331ed519-path-0"
   transform="matrix(1 0 0 1 0 0)">
<path
   style="stroke: none; stroke-width: 0; stroke-dasharray: none; stroke-linecap: butt; stroke-dashoffset: 0; stroke-linejoin: miter; stroke-miterlimit: 4; fill: rgb(221,186,133); fill-rule: nonzero; opacity: 1;"
   paint-order="stroke"
   transform=" translate(-4.725, 5.25)"
   d="M 8.78 -10.5 L 8.78 -8.31 L 3.19 -8.31 L 3.19 -6.6 L 8.78 -6.1 L 8.78 -1.83 L 6.94 0 L 0.73 0 L 0.73 -2.19 L 6.25 -2.19 L 6.25 -4.3 L 0.67 -4.79 L 0.67 -10.5 L 8.78 -10.5 Z"
   stroke-linecap="round"
   id="path69" />
</g>
</g>
</g>
<g
   transform="matrix(3.2251596977235346 -1.350265808149148 1.350265808149148 3.2251596977235346 834.275458652581 1116.924345902644)"
   id="tagline-7d49a8ff-875e-4756-ac96-c2df492281ad-logo-22">
<g
   paint-order="stroke"
   id="g71"
   style="">
		<g
   id="9cd07eab-b742-4cee-a31a-1f74e7aebbee-path-0"
   transform="matrix(1 0 0 1 0 0)">
<path
   style="stroke: none; stroke-width: 0; stroke-dasharray: none; stroke-linecap: butt; stroke-dashoffset: 0; stroke-linejoin: miter; stroke-miterlimit: 4; fill: rgb(221,186,133); fill-rule: nonzero; opacity: 1;"
   paint-order="stroke"
   transform=" translate(-4.9350000000000005, 5.25)"
   d="M 7.56 0 L 2.31 0 L 0.48 -1.83 L 0.48 -4.41 L 1.81 -5.49 L 0.78 -6.31 L 0.78 -8.67 L 2.61 -10.5 L 7.26 -10.5 L 9.09 -8.67 L 9.09 -6.31 L 8.05 -5.49 L 9.39 -4.41 L 9.39 -1.83 L 7.56 0 Z M 3.48 -8.49 L 3.48 -6.25 L 6.39 -6.25 L 6.39 -8.49 L 3.48 -8.49 Z M 3.27 -4.51 L 3.27 -2.01 L 6.73 -2.01 L 6.73 -4.51 L 3.27 -4.51 Z"
   stroke-linecap="round"
   id="path70" />
</g>
</g>
</g>
<g
   transform="matrix(3.110705026189631 -1.596366833943689 1.5963668339436887 3.1107050261896307 870.8648239363199 1099.9075135358305)"
   id="tagline-7d49a8ff-875e-4756-ac96-c2df492281ad-logo-23">
<g
   paint-order="stroke"
   id="g72"
   style="">
		<g
   id="4be5443f-bf4c-48b1-a96a-ad9b748c0a10-path-0"
   transform="matrix(1 0 0 1 0 0)">
<path
   style="stroke: none; stroke-width: 0; stroke-dasharray: none; stroke-linecap: butt; stroke-dashoffset: 0; stroke-linejoin: miter; stroke-miterlimit: 4; fill: rgb(221,186,133); fill-rule: nonzero; opacity: 1;"
   paint-order="stroke"
   transform=" translate(-4.87, 5.25)"
   d="M 2.5 0 L 0.67 -1.83 L 0.67 -8.67 L 2.5 -10.5 L 7.25 -10.5 L 9.07 -8.67 L 9.07 -1.83 L 7.25 0 L 2.5 0 Z M 6.55 -8.22 L 3.19 -8.22 L 3.19 -2.28 L 6.55 -2.28 L 6.55 -8.22 Z"
   stroke-linecap="round"
   id="path71" />
</g>
</g>
</g>
<g
   transform="matrix(3.008079610382622 -1.7822261040836427 1.7822261040836431 3.008079610382623 899.3070934009231 1085.9993503794776)"
   id="tagline-7d49a8ff-875e-4756-ac96-c2df492281ad-logo-24">
<g
   paint-order="stroke"
   id="g73"
   style="">
		<g
   id="15ab2b01-c391-49f0-ba42-9ccc86d1ddff-path-0"
   transform="matrix(1 0 0 1 0 0)">
<path
   style="stroke: none; stroke-width: 0; stroke-dasharray: none; stroke-linecap: butt; stroke-dashoffset: 0; stroke-linejoin: miter; stroke-miterlimit: 4; fill: rgb(221,186,133); fill-rule: nonzero; opacity: 1;"
   paint-order="stroke"
   transform=" translate(-2.55, 4.8)"
   d="M 4.5 -3.63 L 0.6 -3.63 L 0.6 -5.97 L 4.5 -5.97 L 4.5 -3.63 Z"
   stroke-linecap="round"
   id="path72" />
</g>
</g>
</g>
<g
   transform="matrix(2.895407335568433 -1.9599717318403678 1.9599717318403678 2.895407335568433 924.7651968121684 1068.0077748208757)"
   id="tagline-7d49a8ff-875e-4756-ac96-c2df492281ad-logo-25">
<g
   paint-order="stroke"
   id="g74"
   style="">
		<g
   id="a274ed62-f60e-42e6-9636-b8cf0e30182e-path-0"
   transform="matrix(1 0 0 1 0 0)">
<path
   style="stroke: none; stroke-width: 0; stroke-dasharray: none; stroke-linecap: butt; stroke-dashoffset: 0; stroke-linejoin: miter; stroke-miterlimit: 4; fill: rgb(221,186,133); fill-rule: nonzero; opacity: 1;"
   paint-order="stroke"
   transform=" translate(-4.74, 5.25)"
   d="M 6.36 -2.7 L 0.6 -2.7 L 0.99 -10.5 L 3.48 -10.5 L 3.12 -4.98 L 6.36 -4.98 L 6.36 -10.5 L 8.88 -10.5 L 8.88 0 L 6.36 0 L 6.36 -2.7 Z"
   stroke-linecap="round"
   id="path73" />
</g>
</g>
</g>
<g
   transform="matrix(2.73668243967503 -2.176107086714978 2.1761070867149788 2.736682439675031 957.0823325963868 1044.2862976176052)"
   id="tagline-7d49a8ff-875e-4756-ac96-c2df492281ad-logo-26">
<g
   paint-order="stroke"
   id="g75"
   style="">
		<g
   id="db32728c-347d-4338-aaae-76815bb67297-path-0"
   transform="matrix(1 0 0 1 0 0)">
<path
   style="stroke: none; stroke-width: 0; stroke-dasharray: none; stroke-linecap: butt; stroke-dashoffset: 0; stroke-linejoin: miter; stroke-miterlimit: 4; fill: rgb(221,186,133); fill-rule: nonzero; opacity: 1;"
   paint-order="stroke"
   transform=" translate(-4.87, 5.25)"
   d="M 7.33 0 L 2.42 0 L 0.67 -1.74 L 0.67 -8.76 L 2.42 -10.5 L 8.52 -10.5 L 8.52 -8.31 L 3.19 -8.31 L 3.19 -6.69 L 7.98 -6.69 L 9.07 -5.59 L 9.07 -1.74 L 7.33 0 Z M 3.19 -4.95 L 3.19 -2.1 L 6.55 -2.1 L 6.55 -4.95 L 3.19 -4.95 Z"
   stroke-linecap="round"
   id="path74" />
</g>
</g>
</g>
<g
   transform="matrix(2.5631273152826313 -2.378077205249838 2.378077205249838 2.5631273152826313 987.1191337965574 1018.4700162176596)"
   id="tagline-7d49a8ff-875e-4756-ac96-c2df492281ad-logo-27">
<g
   paint-order="stroke"
   id="g76"
   style="">
		<g
   id="838337d4-c99e-4b27-9fe1-111c18ecb437-path-0"
   transform="matrix(1 0 0 1 0 0)">
<path
   style="stroke: none; stroke-width: 0; stroke-dasharray: none; stroke-linecap: butt; stroke-dashoffset: 0; stroke-linejoin: miter; stroke-miterlimit: 4; fill: rgb(221,186,133); fill-rule: nonzero; opacity: 1;"
   paint-order="stroke"
   transform=" translate(-4.725, 5.25)"
   d="M 8.78 -10.5 L 8.78 -8.31 L 3.19 -8.31 L 3.19 -6.6 L 8.78 -6.1 L 8.78 -1.83 L 6.94 0 L 0.73 0 L 0.73 -2.19 L 6.25 -2.19 L 6.25 -4.3 L 0.67 -4.79 L 0.67 -10.5 L 8.78 -10.5 Z"
   stroke-linecap="round"
   id="path75" />
</g>
</g>
</g>
<g
   transform="matrix(2.4167594601549838 -2.5266868702370338 2.5266868702370338 2.4167594601549838 1010.3583510952392 997.7920913246376)"
   id="tagline-7d49a8ff-875e-4756-ac96-c2df492281ad-logo-28">
<g
   paint-order="stroke"
   id="g77"
   style="">
		<g
   id="0388482a-f75e-4561-bcb3-3d95e1543c84-path-0"
   transform="matrix(1 0 0 1 0 0)">
<path
   style="stroke: none; stroke-width: 0; stroke-dasharray: none; stroke-linecap: butt; stroke-dashoffset: 0; stroke-linejoin: miter; stroke-miterlimit: 4; fill: rgb(221,186,133); fill-rule: nonzero; opacity: 1;"
   paint-order="stroke"
   transform=" translate(-2.55, 4.8)"
   d="M 4.5 -3.63 L 0.6 -3.63 L 0.6 -5.97 L 4.5 -5.97 L 4.5 -3.63 Z"
   stroke-linecap="round"
   id="path76" />
</g>
</g>
</g>
<g
   transform="matrix(2.258948199699726 -2.6687123973088966 2.6687123973088966 2.258948199699726 1030.3420338245585 973.2352100239468)"
   id="tagline-7d49a8ff-875e-4756-ac96-c2df492281ad-logo-29">
<g
   paint-order="stroke"
   id="g78"
   style="">
		<g
   id="405973b1-eb03-4cc3-a363-0bc0a0ddfad3-path-0"
   transform="matrix(1 0 0 1 0 0)">
<path
   style="stroke: none; stroke-width: 0; stroke-dasharray: none; stroke-linecap: butt; stroke-dashoffset: 0; stroke-linejoin: miter; stroke-miterlimit: 4; fill: rgb(221,186,133); fill-rule: nonzero; opacity: 1;"
   paint-order="stroke"
   transform=" translate(-4.87, 5.25)"
   d="M 7.33 0 L 2.42 0 L 0.67 -1.74 L 0.67 -8.76 L 2.42 -10.5 L 8.52 -10.5 L 8.52 -8.31 L 3.19 -8.31 L 3.19 -6.69 L 7.98 -6.69 L 9.07 -5.59 L 9.07 -1.74 L 7.33 0 Z M 3.19 -4.95 L 3.19 -2.1 L 6.55 -2.1 L 6.55 -4.95 L 3.19 -4.95 Z"
   stroke-linecap="round"
   id="path77" />
</g>
</g>
</g>
<g
   transform="matrix(2.0477783281039277 -2.833986017506916 2.8339860175069167 2.047778328103928 1054.8011140692147 941.9999532635763)"
   id="tagline-7d49a8ff-875e-4756-ac96-c2df492281ad-logo-30">
<g
   paint-order="stroke"
   id="g79"
   style="">
		<g
   id="ad120345-6d67-4b20-81be-fd658b35f483-path-0"
   transform="matrix(1 0 0 1 0 0)">
<path
   style="stroke: none; stroke-width: 0; stroke-dasharray: none; stroke-linecap: butt; stroke-dashoffset: 0; stroke-linejoin: miter; stroke-miterlimit: 4; fill: rgb(221,186,133); fill-rule: nonzero; opacity: 1;"
   paint-order="stroke"
   transform=" translate(-4.74, 5.25)"
   d="M 6.36 -2.7 L 0.6 -2.7 L 0.99 -10.5 L 3.48 -10.5 L 3.12 -4.98 L 6.36 -4.98 L 6.36 -10.5 L 8.88 -10.5 L 8.88 0 L 6.36 0 L 6.36 -2.7 Z"
   stroke-linecap="round"
   id="path78" />
</g>
</g>
</g>
<g
   transform="matrix(1.8277400126140684 -2.980644104009459 2.980644104009459 1.8277400126140684 1076.7313285606963 909.1060544663792)"
   id="tagline-7d49a8ff-875e-4756-ac96-c2df492281ad-logo-31">
<g
   paint-order="stroke"
   id="g80"
   style="">
		<g
   id="2b633970-06c0-4df0-afee-2fd88dc333ef-path-0"
   transform="matrix(1 0 0 1 0 0)">
<path
   style="stroke: none; stroke-width: 0; stroke-dasharray: none; stroke-linecap: butt; stroke-dashoffset: 0; stroke-linejoin: miter; stroke-miterlimit: 4; fill: rgb(221,186,133); fill-rule: nonzero; opacity: 1;"
   paint-order="stroke"
   transform=" translate(-4.725, 5.25)"
   d="M 3.19 -2.19 L 8.78 -2.19 L 8.78 0 L 0.67 0 L 0.67 -5.63 L 6.25 -6.38 L 6.25 -8.31 L 0.73 -8.31 L 0.73 -10.5 L 6.94 -10.5 L 8.78 -8.67 L 8.78 -4.62 L 3.19 -3.87 L 3.19 -2.19 Z"
   stroke-linecap="round"
   id="path79" />
</g>
</g>
</g>
<g
   transform="matrix(1.597247146545012 -3.110253105670123 3.110253105670123 1.5972471465450118 1095.9145244935835 875.0127342632113)"
   id="tagline-7d49a8ff-875e-4756-ac96-c2df492281ad-logo-32">
<g
   paint-order="stroke"
   id="g81"
   style="">
		<g
   id="a9d8d763-0bbf-4ca5-85e4-e2f3148eef5c-path-0"
   transform="matrix(1 0 0 1 0 0)">
<path
   style="stroke: none; stroke-width: 0; stroke-dasharray: none; stroke-linecap: butt; stroke-dashoffset: 0; stroke-linejoin: miter; stroke-miterlimit: 4; fill: rgb(221,186,133); fill-rule: nonzero; opacity: 1;"
   paint-order="stroke"
   transform=" translate(-4.74, 5.25)"
   d="M 6.36 -2.7 L 0.6 -2.7 L 0.99 -10.5 L 3.48 -10.5 L 3.12 -4.98 L 6.36 -4.98 L 6.36 -10.5 L 8.88 -10.5 L 8.88 0 L 6.36 0 L 6.36 -2.7 Z"
   stroke-linecap="round"
   id="path80" />
</g>
</g>
</g>
<g
   transform="matrix(3.496408561435123 0 0 3.496408561435123 641.9981428614763 445.1480669421104)"
   id="tagline-7bd4dc21-3d44-4926-a6e1-679400149cb2-logo">
<g
   style=""
   paint-order="stroke"
   id="g82">
		<g
   transform="matrix(1 0 0 1 0 0)"
   id="tagline-7bd4dc21-3d44-4926-a6e1-679400149cb2-logo-path-0">
<path
   style="stroke: none; stroke-width: 0; stroke-dasharray: none; stroke-linecap: butt; stroke-dashoffset: 0; stroke-linejoin: miter; stroke-miterlimit: 4; fill: rgb(226,197,159); fill-rule: nonzero; opacity: 1;"
   paint-order="stroke"
   transform=" translate(-33.599999999999994, 9.715)"
   d="M 7.18 -18.54 L 2.46 -18.54 L 2.46 -21.28 L 14.73 -21.28 Q 16.54 -21.28 17.97 -21.24 Q 19.4 -21.21 20.48 -21.16 Q 21.57 -21.11 22.37 -21.02 Q 23.17 -20.94 23.75 -20.83 L 23.75 -20.83 Q 25.16 -20.58 26.14 -20.1 Q 27.12 -19.62 27.74 -18.95 Q 28.35 -18.29 28.63 -17.46 Q 28.92 -16.63 28.92 -15.67 L 28.92 -15.67 Q 28.92 -14.99 28.63 -14.28 Q 28.33 -13.57 27.73 -12.93 Q 27.12 -12.29 26.21 -11.76 Q 25.29 -11.23 24.06 -10.9 L 24.06 -10.9 Q 25.31 -10.75 26.29 -10.3 Q 27.28 -9.84 27.95 -9.19 Q 28.63 -8.53 28.98 -7.71 Q 29.33 -6.89 29.33 -6 L 29.33 -6 Q 29.33 -4.96 29.04 -4.08 Q 28.75 -3.2 28.09 -2.5 Q 27.43 -1.79 26.37 -1.29 Q 25.31 -0.79 23.77 -0.5 L 23.77 -0.5 Q 22.11 -0.19 19.97 -0.09 Q 17.82 0 15.02 0 L 15.02 0 L 2.72 0 L 2.72 -2.73 L 7.18 -2.73 L 7.18 -18.54 Z M 6.46 -16.66 L 3.49 -16.66 L 3.49 -17.35 L 6.46 -17.35 L 6.46 -16.66 Z M 3.81 1.85 L 3.81 1.2 L 15.02 1.2 Q 17.74 1.2 20.02 1.14 Q 22.3 1.08 24.01 0.73 L 24.01 0.73 Q 25.93 0.36 27.19 -0.35 Q 28.45 -1.06 29.2 -1.97 Q 29.94 -2.87 30.24 -3.93 Q 30.54 -4.99 30.54 -6.07 L 30.54 -6.07 Q 30.54 -6.82 30.32 -7.55 Q 30.1 -8.27 29.63 -8.9 Q 29.17 -9.54 28.45 -10.06 Q 27.74 -10.58 26.75 -10.92 L 26.75 -10.92 Q 28.51 -11.79 29.33 -12.98 Q 30.15 -14.17 30.15 -15.67 L 30.15 -15.67 Q 30.15 -17.16 29.34 -18.5 Q 28.54 -19.84 26.71 -20.76 L 26.71 -20.76 Q 27.74 -20.51 28.51 -20.02 Q 29.27 -19.53 29.8 -18.88 Q 30.32 -18.23 30.57 -17.45 Q 30.83 -16.66 30.83 -15.81 L 30.83 -15.81 Q 30.83 -14.25 30.2 -13.1 Q 29.57 -11.95 28.16 -10.95 L 28.16 -10.95 Q 29.8 -10.08 30.51 -8.83 Q 31.22 -7.57 31.22 -6.07 L 31.22 -6.07 Q 31.22 -4.73 30.85 -3.55 Q 30.47 -2.36 29.63 -1.39 Q 28.78 -0.43 27.44 0.28 Q 26.1 0.99 24.15 1.37 L 24.15 1.37 Q 22.42 1.71 20.19 1.78 Q 17.96 1.85 15.02 1.85 L 15.02 1.85 L 3.81 1.85 Z M 11.07 -9.74 L 11.07 -2.73 L 17.74 -2.73 Q 19.5 -2.73 20.76 -2.83 Q 22.03 -2.92 22.95 -3.26 L 22.95 -3.26 Q 23.53 -3.49 23.92 -3.79 Q 24.3 -4.1 24.52 -4.47 Q 24.75 -4.84 24.83 -5.26 Q 24.92 -5.69 24.92 -6.15 L 24.92 -6.15 Q 24.92 -7.28 24.22 -8.11 Q 23.53 -8.94 22.08 -9.37 L 22.08 -9.37 Q 21.19 -9.62 20.05 -9.68 Q 18.9 -9.74 17.45 -9.74 L 17.45 -9.74 L 11.07 -9.74 Z M 11.07 -18.54 L 11.07 -11.88 L 17.41 -11.88 Q 19.52 -11.88 20.89 -12.08 Q 22.27 -12.29 23.09 -12.72 Q 23.91 -13.16 24.24 -13.82 Q 24.58 -14.48 24.58 -15.4 L 24.58 -15.4 Q 24.58 -16.32 23.99 -17.06 Q 23.41 -17.79 22.13 -18.18 L 22.13 -18.18 Q 21.26 -18.44 20.11 -18.49 Q 18.97 -18.54 17.41 -18.54 L 17.41 -18.54 L 11.07 -18.54 Z M 12.99 -3.76 L 12.3 -3.76 L 12.3 -8.54 L 17.41 -8.54 Q 18.71 -8.54 19.7 -8.46 Q 20.7 -8.37 21.42 -8.19 Q 22.15 -8.02 22.66 -7.75 Q 23.17 -7.49 23.53 -7.11 L 23.53 -7.11 Q 23.09 -7.31 22.58 -7.46 Q 22.08 -7.6 21.38 -7.71 Q 20.68 -7.81 19.72 -7.85 Q 18.76 -7.9 17.41 -7.9 L 17.41 -7.9 L 12.99 -7.9 L 12.99 -3.76 Z M 12.99 -12.9 L 12.3 -12.9 L 12.3 -17.35 L 17.41 -17.35 Q 18.71 -17.35 19.65 -17.29 Q 20.59 -17.23 21.26 -17.07 Q 21.93 -16.92 22.39 -16.67 Q 22.85 -16.42 23.21 -16.05 L 23.21 -16.05 Q 22.87 -16.2 22.4 -16.32 Q 21.93 -16.44 21.24 -16.53 Q 20.56 -16.61 19.63 -16.65 Q 18.7 -16.7 17.41 -16.7 L 17.41 -16.7 L 12.99 -16.7 L 12.99 -12.9 Z M 44.99 0 L 31.91 0 L 31.91 -2.73 L 36.53 -2.73 L 36.53 -18.54 L 31.91 -18.54 L 31.91 -21.28 L 44.99 -21.28 L 44.99 -18.54 L 40.41 -18.54 L 40.41 -9.38 L 54.58 -18.54 L 49.84 -18.54 L 49.84 -21.28 L 62.32 -21.28 L 62.32 -18.54 L 58.49 -18.54 L 48.17 -11.83 L 58.23 -2.73 L 62.83 -2.73 L 62.83 0 L 50.01 0 L 50.01 -2.73 L 53 -2.73 L 45.14 -9.86 L 40.41 -6.77 L 40.41 -2.73 L 44.99 -2.73 L 44.99 0 Z M 32.94 1.85 L 32.94 1.2 L 46.22 1.2 L 46.22 -1.78 L 46.9 -1.78 L 46.9 1.85 L 32.94 1.85 Z M 35.81 -16.7 L 32.94 -16.7 L 32.94 -17.35 L 35.81 -17.35 L 35.81 -16.7 Z M 42.32 -3.76 L 41.64 -3.76 L 41.64 -6.12 L 45.43 -8.61 L 45.93 -8.15 L 42.32 -5.78 L 42.32 -3.76 Z M 42.32 -11.43 L 41.64 -10.99 L 41.64 -17.35 L 45.69 -17.35 L 45.69 -20.41 L 46.37 -20.41 L 46.37 -16.7 L 42.32 -16.7 L 42.32 -11.43 Z M 58.88 -3.76 L 50.13 -11.66 L 58.88 -17.35 L 63.55 -17.35 L 63.55 -20.41 L 64.23 -20.41 L 64.23 -16.7 L 59.1 -16.7 L 51.29 -11.6 L 59.89 -3.76 L 58.88 -3.76 Z M 50.75 1.85 L 50.75 1.2 L 64.03 1.2 L 64.03 -1.78 L 64.74 -1.78 L 64.74 1.85 L 50.75 1.85 Z"
   stroke-linecap="round"
   id="path81" />
</g>
</g>
</g>
<g
   transform="matrix(3.4958760414759813 -0.06102074328496371 0.06102074328496371 3.4958760414759813 202.864882788994 741.4038497341105)"
   id="tagline-9c6070cc-c2aa-4375-9b06-19b7f4e36638-logo">
<g
   style=""
   paint-order="stroke"
   id="g83">
		<g
   transform="matrix(1 0 0 1 0 0)"
   id="tagline-9c6070cc-c2aa-4375-9b06-19b7f4e36638-logo-path-0">
<path
   style="stroke: none; stroke-width: 0; stroke-dasharray: none; stroke-linecap: butt; stroke-dashoffset: 0; stroke-linejoin: miter; stroke-miterlimit: 4; fill: rgb(7,17,35); fill-rule: nonzero; opacity: 1;"
   paint-order="stroke"
   transform=" translate(-25.6, 14)"
   d="M 8.52 -5.84 L 23.4 -5.84 L 23.4 0 L 1.8 0 L 1.8 -15 L 16.68 -17 L 16.68 -22.16 L 1.96 -22.16 L 1.96 -28 L 18.52 -28 L 23.4 -23.12 L 23.4 -12.32 L 8.52 -10.32 L 8.52 -5.84 Z M 31.88 0 L 27 -4.88 L 27 -23.12 L 31.88 -28 L 44.52 -28 L 49.4 -23.12 L 49.4 -4.88 L 44.52 0 L 31.88 0 Z M 42.68 -21.92 L 33.72 -21.92 L 33.72 -6.08 L 42.68 -6.08 L 42.68 -21.92 Z"
   stroke-linecap="round"
   id="path82" />
</g>
</g>
</g>
<g
   transform="matrix(3.496408561435123 0 0 3.496408561435123 1074.7753554515061 741.4038497341105)"
   id="tagline-0fcc96b7-799b-47b4-8c36-d865565f7a7a-logo">
<g
   style=""
   paint-order="stroke"
   id="g84">
		<g
   transform="matrix(1 0 0 1 0 0)"
   id="tagline-0fcc96b7-799b-47b4-8c36-d865565f7a7a-logo-path-0">
<path
   style="stroke: none; stroke-width: 0; stroke-dasharray: none; stroke-linecap: butt; stroke-dashoffset: 0; stroke-linejoin: miter; stroke-miterlimit: 4; fill: rgb(8,18,36); fill-rule: nonzero; opacity: 1;"
   paint-order="stroke"
   transform=" translate(-25.340000000000003, 14)"
   d="M 8.52 -5.84 L 23.4 -5.84 L 23.4 0 L 1.8 0 L 1.8 -15 L 16.68 -17 L 16.68 -22.16 L 1.96 -22.16 L 1.96 -28 L 18.52 -28 L 23.4 -23.12 L 23.4 -12.32 L 8.52 -10.32 L 8.52 -5.84 Z M 42.16 -7.2 L 26.8 -7.2 L 27.84 -28 L 34.48 -28 L 33.52 -13.28 L 42.16 -13.28 L 42.16 -28 L 48.88 -28 L 48.88 0 L 42.16 0 L 42.16 -7.2 Z"
   stroke-linecap="round"
   id="path83" />
</g>
</g>
</g>
</svg>
