<?xml version="1.0" encoding="UTF-8" standalone="no"?>
<!-- Created with Inkscape (http://www.inkscape.org/) -->

<svg
   width="1000"
   height="800"
   viewBox="0 0 264.58333 211.66667"
   version="1.1"
   id="svg1"
   xml:space="preserve"
   inkscape:version="1.4.2 (f4327f4, 2025-05-13)"
   sodipodi:docname="under-construction.svg"
   xmlns:inkscape="http://www.inkscape.org/namespaces/inkscape"
   xmlns:sodipodi="http://sodipodi.sourceforge.net/DTD/sodipodi-0.dtd"
   xmlns="http://www.w3.org/2000/svg"
   xmlns:svg="http://www.w3.org/2000/svg"><sodipodi:namedview
     id="namedview1"
     pagecolor="#ffffff"
     bordercolor="#000000"
     borderopacity="0.25"
     inkscape:showpageshadow="2"
     inkscape:pageopacity="0.0"
     inkscape:pagecheckerboard="0"
     inkscape:deskcolor="#d1d1d1"
     inkscape:document-units="mm"
     inkscape:zoom="0.71268238"
     inkscape:cx="412.52598"
     inkscape:cy="300.27402"
     inkscape:window-width="1920"
     inkscape:window-height="1009"
     inkscape:window-x="2711"
     inkscape:window-y="1072"
     inkscape:window-maximized="1"
     inkscape:current-layer="layer1"
     showgrid="true"><inkscape:grid
       id="grid1"
       units="mm"
       originx="0"
       originy="0"
       spacingx="0.99999999"
       spacingy="1"
       empcolor="#0099e5"
       empopacity="0.30196078"
       color="#0099e5"
       opacity="0.14901961"
       empspacing="5"
       enabled="true"
       visible="true" /></sodipodi:namedview><defs
     id="defs1" /><g
     inkscape:label="Layer 1"
     inkscape:groupmode="layer"
     id="layer1"
     transform="matrix(2.1370025,0,0,2.1370025,-5.5107623,-10.378315)"><rect
       style="fill:#ffffff;fill-opacity:1;stroke-width:0.235479;stroke-linecap:round;stroke-linejoin:round"
       id="rect1"
       width="123.81049"
       height="99.048393"
       x="2.8876472"
       y="4.8890567" /><path
       style="fill:#000000;stroke-width:1.10649"
       d="m 9.9941358,72.769598 -0.2628532,-0.225935 -0.02827,-2.156077 -0.02827,-2.156075 0.2624762,-0.283471 0.2624732,-0.28347 2.388914,-0.02455 c 3.093889,-0.03179 2.904171,0.002 2.904171,-0.516462 0,-0.229405 0.04374,-0.498833 0.0972,-0.598733 0.131961,-0.246573 2.510543,-2.148121 2.687011,-2.148121 0.439361,0 1.708663,-1.460932 2.238351,-2.57628 1.210917,-2.549789 0.633297,-5.250047 -1.570633,-7.342423 -4.796815,-4.554019 -2.924083,-11.505867 3.623714,-13.451733 0.462306,-0.137387 1.10218,-0.351353 1.421945,-0.475477 1.256525,-0.487757 2.527544,-0.490653 3.792009,-0.0087 0.325487,0.124075 0.971211,0.340519 1.434941,0.480986 6.312181,1.912004 8.37058,8.667614 3.981525,13.067249 -1.13065,1.133374 -1.504888,1.596586 -1.855333,2.296426 -1.292367,2.58086 -0.680221,5.671737 1.501213,7.580002 l 0.491425,0.429887 h 0.965737 c 1.185661,0 3.691105,-0.880013 7.65631,-2.689207 l 0.93683,-0.427444 3.185218,-3.267313 c 1.751872,-1.797022 3.489992,-3.597208 3.862491,-4.000414 l 0.677273,-0.733098 -0.795881,-0.950089 c -1.259081,-1.503032 -1.268403,-1.436028 0.444717,-3.196777 1.52508,-1.56748 1.456208,-1.557506 2.981984,-0.431873 l 1.073514,0.791981 1.405244,-1.424855 c 1.746537,-1.77091 4.939525,-5.047592 5.41082,-5.552647 L 61.492348,42.117752 61.24392,41.81788 c -0.335266,-0.404694 -0.366242,-0.394843 -1.107622,0.352262 -1.102776,1.111292 -1.044852,1.13516 -3.680673,-1.516613 -2.650681,-2.666722 -2.796528,-1.928877 1.165729,-5.897455 4.006129,-4.012518 3.299142,-3.899141 6.18838,-0.992416 2.406109,2.420671 2.36641,2.324587 1.381824,3.344442 -0.697113,0.722083 -0.699172,0.728455 -0.344833,1.067933 l 0.264107,0.25303 1.656593,-1.687588 c 2.162226,-2.202683 1.890106,-2.191338 3.951425,-0.164731 l 0.936829,0.921054 1.311561,-1.360521 c 1.657305,-1.719173 1.938194,-1.822916 2.71091,-1.001245 0.385163,0.409561 0.365697,0.419954 1.606033,-0.857456 0.614167,-0.632523 2.443188,-2.519063 4.064492,-4.192311 1.621302,-1.673248 3.729864,-3.843257 4.68569,-4.822243 2.160733,-2.21309 4.844221,-4.965635 5.972319,-6.126011 l 0.855294,-0.879765 0.402774,0.05402 c 0.593074,0.07954 1.671132,1.182274 1.671132,1.70937 0,0.405729 -0.0244,0.434401 -2.667015,3.134518 -0.882496,0.901699 -3.035368,3.114958 -4.784158,4.918354 -1.74879,1.803395 -4.679197,4.817643 -6.512016,6.698328 -1.832819,1.880685 -3.65552,3.756686 -4.050445,4.168891 l -0.718046,0.749463 -0.0024,0.938216 c -0.0027,1.020512 -0.0096,1.041308 -0.772701,2.320299 -0.417738,0.700139 -0.420437,0.795354 -0.01658,0.584738 0.362637,-0.189117 2.254456,-0.198826 2.68691,-0.01379 0.911616,0.390053 1.004084,0.725667 1.004084,3.64433 v 2.449559 l 0.257627,0.205214 c 0.254172,0.202463 0.258043,0.221702 0.288539,1.434442 l 0.03091,1.229228 -0.288539,0.269536 -0.288538,0.269536 v 2.462273 c 0,3.475801 -0.159336,3.739308 -2.261045,3.739308 -1.823331,0 -2.412003,-0.465851 -2.426832,-1.920499 l -0.0048,-0.468415 -0.48323,-0.234207 c -0.801533,-0.388481 -0.861729,-0.533541 -0.896838,-2.161207 -0.03549,-1.645157 -0.29772,-2.170031 -0.29772,-0.595897 0,0.749488 -0.01986,0.831721 -0.298924,1.237317 l -0.298924,0.434471 0.278879,0.799654 c 0.210104,0.602448 0.324254,0.806775 0.46287,0.828535 0.595138,0.09342 0.657989,0.20606 1.352186,2.423296 l 0.474046,1.514084 1.42727,0.605174 c 3.696449,1.567327 7.234581,2.66596 11.72279,3.640066 3.563682,0.773451 10.632708,-0.195754 12.961306,-1.777071 3.06321,-2.080186 1.10863,-5.308533 -7.056355,-11.654887 C 85.869431,45.762902 82.241739,41.226022 81.947474,37.123796 l -0.06322,-0.881166 1.084859,-1.039334 c 0.596674,-0.571633 1.776525,-1.587379 2.621893,-2.257211 l 1.537033,-1.217879 0.14743,-0.619513 c 0.622523,-2.615894 3.330681,-4.337572 5.752253,-3.656921 0.38301,0.10765 0.398712,0.102085 1.498925,-0.531692 5.689053,-3.277172 15.090093,-7.323812 17.014473,-7.323812 1.35947,0 1.75387,1.104968 1.23009,3.446281 -0.48648,2.174611 -1.14364,3.114779 -4.53218,6.484108 -5.82044,5.78745 -5.80347,6.686694 0.27515,14.567695 1.00694,1.305509 1.89773,2.357603 3.88657,4.590371 5.67218,6.367886 6.88243,10.256012 6.89147,22.139889 l 0.001,1.623237 -0.27385,0.273843 -0.27384,0.273842 H 64.501243 10.256851 Z m 3.4376222,-2.444027 v -1.826818 h -1.452085 -1.452085 v 1.826818 1.826817 h 1.452085 1.452085 z m 99.491272,0.276791 c 0,-2.139457 0.34702,-1.960542 -4.07521,-2.101098 C 92.817924,67.991768 83.858667,66.23678 73.278302,61.533712 66.066503,58.328002 62.294303,57.410545 57.649259,57.732491 53.551604,58.016499 50.992956,58.80905 43.591505,62.086938 33.078792,66.742715 26.368014,68.343616 16.38277,68.577767 l -2.623121,0.06151 -0.02578,1.589171 c -0.01418,0.874042 -0.005,1.643413 0.02048,1.709713 0.03763,0.09806 9.290585,0.120543 49.607461,0.120543 h 49.56122 z m 5.43865,1.198716 c 0.002,-0.141697 0.0115,-0.510573 0.0193,-0.819726 l 0.0143,-0.562099 h -2.57216 -2.57215 l -0.0278,0.693856 c -0.0415,1.034033 -0.28473,0.945596 2.60116,0.945596 h 2.53237 z m 0.0878,-1.920501 c -0.0119,-2.670561 -0.39821,-7.568916 -0.75163,-9.532238 -0.83164,-4.619821 -1.81428,-6.452761 -5.95369,-11.105451 -4.99864,-5.618478 -8.06523,-9.981481 -8.52426,-12.127914 -0.55448,-2.592744 0.18836,-3.993276 4.27326,-8.05673 3.38762,-3.369838 3.98968,-4.206625 4.44868,-6.183073 0.54339,-2.339775 0.24515,-2.765851 -1.50389,-2.148517 -7.16884,2.530285 -19.537081,9.851781 -25.596292,15.151966 -0.886839,0.775746 0.03812,4.116532 1.828017,6.602483 2.000343,2.778234 3.739185,4.404852 11.64883,10.897013 8.357785,6.859988 9.427625,9.67234 4.463425,11.733131 -1.74865,0.725915 -7.031701,1.741104 -6.892842,1.324525 0.02801,-0.08405 0.503437,-0.192442 1.444353,-0.329303 7.269569,-1.057399 9.443169,-2.927264 7.260509,-6.245961 -1.20455,-1.831495 -2.47381,-2.996189 -10.04482,-9.21727 C 87.173312,44.582562 84.256089,40.661316 84.256089,36.80767 v -0.783617 l 0.585519,-0.51362 c 3.971321,-3.483654 11.539811,-8.402909 17.851032,-11.602543 1.96657,-0.997002 1.89175,-1.043452 -0.17656,-0.10962 -7.094581,3.203158 -15.043103,8.253177 -19.042583,12.09852 l -0.735752,0.707396 0.102493,0.837884 c 0.295518,2.415937 1.884272,4.952561 5.303072,8.466951 1.814755,1.865495 3.086247,2.94681 7.345218,6.24658 11.003172,8.525047 9.906372,13.473187 -3.149245,14.207612 -1.093248,0.0615 -1.975791,0.123751 -1.961207,0.138335 0.459584,0.459584 11.720354,1.502506 18.583064,1.721083 4.02331,0.128141 4.24298,0.198587 4.24298,1.360662 v 0.508068 h 2.62312 2.62313 z M 18.818527,68.216478 c 2.9717,-0.186846 7.095191,-0.667742 7.963047,-0.928678 0.175306,-0.05271 -1.736878,-0.08754 -5.082298,-0.09256 l -5.363348,-0.0081 v 0.562098 0.562098 l 0.491836,-3.32e-4 c 0.27051,-1.83e-4 1.166352,-0.04274 1.990763,-0.09457 z m 12.131937,-1.796954 c 1.625632,-0.43301 3.745966,-1.073411 3.829029,-1.156473 0.02376,-0.02376 -3.635741,-0.0432 -8.132224,-0.0432 h -8.175421 l -1.021119,0.812187 c -0.561614,0.446703 -1.021117,0.827503 -1.021117,0.846222 0,0.01872 2.898315,0.02142 6.440701,0.006 l 6.4407,-0.02804 z m 1.592609,-1.520069 c 0,-0.02165 -0.244875,-0.285123 -0.544166,-0.585517 -2.626265,-2.635942 -2.942454,-6.478714 -0.769318,-9.349825 0.578578,-0.764408 0.591433,-0.705163 -0.152991,-0.705163 -3.005343,0 -3.1726,7.52864 -0.215482,9.699364 0.643264,0.472199 0.652849,0.468504 -1.134775,0.437487 -1.979398,-0.03434 -2.252391,-0.236565 -0.377537,-0.279661 l 1.146677,-0.02636 -0.473389,-0.517964 c -1.939283,-2.121885 -2.163197,-6.154078 -0.481587,-8.672309 0.208696,-0.312525 0.379448,-0.584502 0.379448,-0.604393 0,-0.01989 -2.213259,-0.03617 -4.918353,-0.03617 -2.705095,0 -4.918354,0.02652 -4.918354,0.05891 0,0.03239 0.142314,0.216432 0.316252,0.408961 2.388105,2.643348 1.919581,7.783467 -0.899444,9.867661 -0.142975,0.105703 -0.259955,0.226423 -0.259955,0.268259 0,0.04183 2.99317,0.07606 6.651488,0.07606 3.658317,0 6.651486,-0.01771 6.651486,-0.03934 z m 13.029931,-3.998372 c 2.021969,-0.889385 3.177019,-1.35636 4.456548,-1.801736 l 0.928626,-0.323233 1.879473,-1.907271 c 2.980838,-3.024926 4.950705,-5.056211 4.980103,-5.135377 0.02588,-0.06969 -2.069325,-2.17777 -2.217466,-2.231099 -0.0391,-0.01407 -0.424799,0.344261 -0.8571,0.796306 -1.496613,1.564964 -6.969909,7.178485 -9.456094,9.698355 -0.902352,0.91458 -1.595322,1.662873 -1.539932,1.662873 0.05539,0 0.87702,-0.341469 1.825842,-0.758818 z m 27.935084,-0.763531 c -0.233252,-0.734239 -0.474341,-1.50361 -0.535753,-1.709712 -0.08632,-0.289677 -0.152721,-0.368032 -0.292576,-0.345215 -0.535254,0.08732 -0.50366,0.127309 -0.985655,-1.247395 -0.548019,-1.563012 -0.539545,-1.434593 -0.132094,-2.001734 l 0.327889,-0.4564 v -3.456399 -3.4564 l 0.749465,-1.303089 c 0.412205,-0.7167 0.749463,-1.311719 0.749463,-1.322267 0,-0.01051 0.442508,-0.793675 0.98335,-1.740285 l 0.983351,-1.721108 3.2e-4,-0.772884 c 3.02e-4,-0.731082 -0.08321,-0.941791 -0.253016,-0.638366 -0.0414,0.07398 -0.771837,0.843356 -1.623185,1.709712 -0.851348,0.866359 -4.624264,4.736995 -8.384258,8.601415 l -6.836354,7.02622 0.796305,0.06255 c 0.437968,0.0344 1.378874,0.109233 2.090903,0.166289 3.528214,0.282727 6.31323,1.089303 10.977865,3.179333 0.927461,0.415558 1.713693,0.756719 1.747185,0.758138 0.0335,0.0014 -0.129952,-0.598162 -0.363205,-1.332403 z m 4.330678,-1.850236 c 0.03742,-0.06055 -0.349991,-0.09318 -1.095246,-0.09225 -0.779136,9.68e-4 -1.107567,0.03089 -1.01262,0.09225 0.186628,0.120608 2.033326,0.120608 2.107866,0 z m -24.132364,-0.27702 c 0.381487,-0.09907 0.721229,-0.224812 0.754985,-0.279429 0.03376,-0.05462 0.794811,-0.847603 1.691235,-1.76219 0.896425,-0.914587 2.411602,-2.464307 3.367064,-3.44382 0.955461,-0.979515 2.518902,-2.581493 3.474312,-3.559952 0.95541,-0.978459 3.294387,-3.380994 5.197728,-5.338967 1.903341,-1.957973 4.323607,-4.436004 5.378368,-5.506735 l 1.917749,-1.946785 -0.350294,-0.348446 -0.350295,-0.348448 -0.577111,0.608938 c -0.317411,0.334917 -1.359812,1.409928 -2.316445,2.388915 -0.956635,0.978987 -3.318697,3.403032 -5.249027,5.386768 -1.930332,1.983736 -4.311679,4.426888 -5.291884,5.429228 -0.980205,1.002339 -1.824348,1.87229 -1.875875,1.933225 -0.0886,0.104773 -1.979947,2.036536 -5.334705,5.448687 -1.618271,1.645956 -1.618318,1.646101 -0.435805,1.339011 z m 24.535263,-0.685634 0.02817,-0.54108 -1.480253,0.02582 -1.480252,0.02582 -0.01757,0.281048 c -0.0096,0.154577 0.0044,0.398061 0.03139,0.541074 l 0.04895,0.260026 1.420695,-0.02581 1.420694,-0.02581 z m -21.273833,0.159482 0.769823,-0.06363 1.658904,-1.697883 c 2.790522,-2.856094 7.375647,-7.566932 9.770942,-10.038838 0.847095,-0.87419 2.322601,-2.391263 3.278902,-3.371273 0.956301,-0.98001 2.475128,-2.53983 3.375172,-3.466268 2.217003,-2.282011 4.674074,-4.806961 6.653194,-6.836991 9.004081,-9.235703 7.918817,-7.975725 7.338597,-8.520027 l -0.451602,-0.423646 -0.372114,0.396628 c -0.3488,0.37178 -1.874896,1.942278 -5.437822,5.596033 -0.829039,0.850172 -3.084095,3.168824 -5.011238,5.15256 -1.927143,1.983735 -4.282811,4.407781 -5.234819,5.386768 -0.952006,0.978987 -2.364193,2.433415 -3.138191,3.23206 -0.774,0.798648 -2.169982,2.231997 -3.102185,3.185221 -0.9322,0.953222 -3.251081,3.335111 -5.153066,5.293085 -1.901984,1.957972 -4.029027,4.140975 -4.72676,4.851117 -1.302715,1.325882 -1.467992,1.530659 -1.162587,1.440432 0.09626,-0.02843 0.521449,-0.08034 0.94485,-0.115344 z m 21.292507,-1.479327 v -0.502522 l -0.434649,-0.05957 c -1.693521,-0.232123 -2.539664,-0.06694 -2.54674,0.497148 -0.0073,0.586591 -0.05906,0.567473 1.534832,0.567473 h 1.446557 z M 57.130232,55.836895 c 0.306593,-0.341003 0.405053,-0.512351 0.334788,-0.582618 -0.125854,-0.125853 -1.088157,0.806657 -0.992368,0.961645 0.109587,0.177318 0.208789,0.120138 0.65758,-0.379027 z m 17.854802,-1.788732 c 0.002,-1.043393 0.0018,-3.119641 -2.6e-4,-4.613884 l -0.0039,-2.716805 -0.39024,0.0093 c -0.759497,0.018 -0.733434,-0.145308 -0.733434,4.595849 v 4.16277 l 0.229949,0.229949 c 0.157667,0.157667 0.334357,0.22995 0.562098,0.22995 h 0.332147 z m 3.275305,0.536298 v -0.517634 l -1.475506,0.0258 -1.475506,0.0258 -0.02831,0.491836 -0.02831,0.491835 h 1.503822 1.503824 z m -22.439185,-0.0423 c 0.252584,-0.256441 0.429196,-0.496304 0.392471,-0.533029 -0.06867,-0.06867 -0.999284,0.793226 -0.999284,0.925499 0,0.161604 0.168259,0.05279 0.606813,-0.39247 z M 31.104658,53.2987 c 3.297343,-3.422974 2.685672,-7.463939 -1.540272,-10.175719 -0.268169,-0.172085 -0.48758,-0.350642 -0.48758,-0.396797 0,-0.61646 2.814566,1.72079 3.54633,2.944917 1.475203,2.467777 1.051469,5.315288 -1.133205,7.615182 l -0.656969,0.691618 h 0.656343 0.656342 l 0.611804,-0.648545 c 3.72808,-3.951959 1.856883,-9.675486 -3.76638,-11.520422 -1.0073,-0.330485 -5.307672,-0.297356 -6.344308,0.04888 -5.467987,1.826281 -7.28846,7.519019 -3.655038,11.429545 l 0.641614,0.690547 h 5.408524 5.408522 z m 47.137239,-0.04925 0.0284,-0.494238 -1.479637,0.02582 -1.479636,0.02582 -0.005,0.374732 c -0.0087,0.640719 -0.07049,0.616296 1.489775,0.5879 l 1.417727,-0.0258 z M 51.477048,52.783436 C 51.372495,52.64174 51.028827,52.251785 50.713345,51.916869 l -0.573603,-0.608939 0.593378,0.730752 c 0.326359,0.401914 0.635322,0.791869 0.686583,0.866568 0.05126,0.0747 0.127908,0.135814 0.170324,0.135814 0.04242,0 -0.0084,-0.115933 -0.112979,-0.257628 z m 0.629974,-0.245964 c 0.01904,-0.0982 -0.239544,-0.439554 -0.668316,-0.882224 -0.384657,-0.397126 -0.802763,-0.844735 -0.929124,-0.994687 -0.226297,-0.268545 -0.490126,-0.272001 -0.429569,-0.0056 0.04868,0.214161 1.777979,2.115284 1.890132,2.077945 0.0582,-0.01937 0.119794,-0.107307 0.136877,-0.195407 z M 78.260339,51.961334 V 51.4437 l -1.475506,0.0258 -1.475506,0.0258 -0.0084,0.421572 c -0.01175,0.588933 -0.08398,0.562099 1.51287,0.562099 h 1.446557 z m -25.635737,0.03019 c 0.06689,-0.106046 0.05476,-0.184676 -0.04248,-0.275472 -0.07485,-0.06989 -0.523632,-0.502239 -0.997296,-0.960781 -1.37314,-1.329304 -1.525151,-1.001386 -0.197854,0.42681 0.94587,1.017773 1.059386,1.092016 1.237627,0.809443 z m 20.95159,-0.683589 V 50.511629 H 72.87357 72.170948 v 0.796305 0.796305 h 0.702622 0.702622 z m 5.246245,0 c 0,-0.645372 -0.02664,-0.796305 -0.140525,-0.796305 -0.113889,0 -0.140524,0.150933 -0.140524,0.796305 0,0.645371 0.02664,0.796305 0.140524,0.796305 0.113889,0 0.140525,-0.150934 0.140525,-0.796305 z M 53.13458,51.5234 c 0.06183,-0.06183 0.112419,-0.142836 0.112419,-0.180011 0,-0.09571 -1.966145,-1.862276 -2.072673,-1.862276 -0.339805,0 -0.111036,0.357697 0.775215,1.212096 1.053583,1.015718 1.021788,0.993443 1.185039,0.830191 z m 6.776519,-1.925183 c 2.05295,-2.086396 5.793804,-5.915809 5.936253,-6.076785 0.05153,-0.05823 0.84195,-0.866071 1.7565,-1.795207 l 1.662817,-1.689338 -1.147561,-1.133648 -1.147561,-1.133647 -1.024786,1.05451 c -0.563632,0.579981 -2.67067,2.740803 -4.682305,4.801828 -5.059137,5.183348 -5.34349,5.478166 -5.377692,5.575608 -0.02098,0.05978 2.069862,2.1974 2.194331,2.243431 0.0052,0.0018 0.828686,-0.829121 1.830004,-1.846752 z m -9.755637,1.627501 c 0,-0.01945 -0.07377,-0.09323 -0.163944,-0.163945 -0.148587,-0.11653 -0.1519,-0.113216 -0.03537,0.03537 0.122384,0.156052 0.199315,0.205679 0.199315,0.128574 z m 28.08613,-0.596989 -0.0281,-0.538677 h -1.450959 -1.450959 l -0.02889,0.412945 c -0.048,0.686084 -0.09782,0.664408 1.527302,0.664408 h 1.459701 z m -24.544915,0.332574 c 0.182097,-0.182098 0.160143,-0.207273 -0.962124,-1.103215 -1.230226,-0.98213 -1.866453,-1.147415 -0.88077,-0.228814 0.271933,0.253428 0.728271,0.681254 1.014082,0.950726 0.548109,0.516771 0.647581,0.562534 0.828812,0.381303 z m 0.487152,-0.495756 c 0,-0.03662 -1.26161,-0.988514 -1.967342,-1.484377 -0.350499,-0.246268 0.221716,0.282949 0.948775,0.877481 0.689447,0.563776 1.018567,0.759875 1.018567,0.606896 z m 24.07651,-1.221021 v -0.517635 l -1.475506,0.0258 -1.475506,0.0258 -0.02967,0.361162 c -0.05219,0.635545 -0.08415,0.622509 1.52565,0.622509 h 1.455026 z m -5.246244,-0.752613 c 0,-0.981719 -0.07823,-1.304004 -0.224184,-0.923638 -0.07584,0.19764 -0.07321,1.95895 0.0031,2.035202 0.162432,0.162431 0.22114,-0.132667 0.22114,-1.111564 z m 5.22757,-0.629233 0.02817,-0.541081 -1.480253,0.02583 -1.480252,0.02582 L 75.28,47.78212 c -0.04999,0.696852 -0.09733,0.676451 1.502836,0.647514 l 1.430665,-0.02587 z m 0.01868,-1.334958 v -0.517636 l -1.472054,0.0258 -1.472052,0.0258 0.0085,0.281049 c 0.02384,0.782118 -0.144,0.702622 1.483452,0.702622 h 1.452086 z m -9.82245,-2.35367 c 0.357054,-0.360511 0.544343,-0.618501 0.5005,-0.689441 -0.04657,-0.07535 -0.473099,0.288788 -1.272336,1.08625 -0.956781,0.954657 -1.180565,1.225772 -1.095941,1.327736 0.08595,0.103569 0.220482,0.0057 0.701776,-0.510168 0.327492,-0.351063 0.852192,-0.897533 1.166001,-1.214377 z m 5.686417,1.737953 c 0.284528,-0.09918 0.294927,-0.121695 0.29218,-0.63236 -0.0023,-0.437083 -0.02083,-0.496806 -0.105891,-0.342146 -0.05667,0.103047 -0.223631,0.387613 -0.371016,0.632359 -0.286444,0.475661 -0.272478,0.50153 0.184727,0.342147 z m 4.117504,-0.670037 -0.02831,-0.491835 -1.428664,-0.02586 c -1.576874,-0.02855 -1.434185,-0.08564 -1.469294,0.587959 -0.0223,0.42769 -0.0441,0.421572 1.503139,0.421572 h 1.451452 z M 66.584985,43.49727 c 0.781941,-0.78368 1.164497,-1.230029 1.092417,-1.274578 -0.0966,-0.0597 -2.32724,2.148707 -2.423375,2.399224 -0.09621,0.250713 0.253483,-0.04477 1.330958,-1.124646 z m 11.206939,0.83129 c -0.07729,-0.04995 -0.541019,-0.09081 -1.030512,-0.09081 -0.489494,0 -0.953224,0.04086 -1.030512,0.09081 -0.09482,0.06128 0.240298,0.09081 1.030512,0.09081 0.790214,0 1.125338,-0.02953 1.030512,-0.09081 z M 59.293351,41.79492 c 0.16562,-0.183009 -3.220267,-3.8368 -3.555477,-3.8368 -0.66132,0 -0.484528,0.271448 1.415288,2.173048 2.038587,2.040499 1.898084,1.931273 2.140189,1.663752 z m 4.407476,-1.085197 c 0.613807,-0.650695 1.126816,-1.210071 1.140021,-1.24306 0.0132,-0.03299 -0.291005,-0.37289 -0.676021,-0.755336 l -0.700026,-0.695355 -0.578214,0.603434 c -0.318016,0.331889 -0.855588,0.887759 -1.194603,1.235268 l -0.616392,0.631833 0.699589,0.695969 c 0.384772,0.382782 0.724346,0.699199 0.75461,0.703148 0.03026,0.004 0.55723,-0.525207 1.171036,-1.175901 z m -5.48397,-1.575324 -1.876008,-1.876008 -0.210203,0.210202 -0.210203,0.210204 1.868541,1.870295 1.868543,1.870297 0.217669,-0.204491 0.21767,-0.204491 z m -31.200924,2.038377 c -0.388234,-0.168975 -2.083483,-0.139685 -2.389065,0.04127 -0.149697,0.08865 0.104574,0.109997 1.264719,0.106168 1.383476,-0.0045 1.436599,-0.01153 1.124346,-0.147439 z m 33.553735,-0.93143 c -0.0534,-0.09646 -0.879328,-0.95447 -1.835395,-1.906718 l -1.738304,-1.731359 -0.209873,0.209875 -0.209873,0.209872 1.870179,1.871934 c 1.82647,1.828184 1.87427,1.867842 2.045267,1.696844 0.135238,-0.135238 0.152992,-0.215003 0.07799,-0.350448 z m 0.576974,-0.297581 c 0.136267,-0.150573 -1.78869,-2.243044 -3.519392,-3.825656 -0.03833,-0.03506 -0.15616,0.01452 -0.261849,0.110173 -0.190968,0.172824 -0.180658,0.185416 1.661421,2.029223 2.020128,2.022025 1.901415,1.927591 2.11982,1.686256 z m 9.152716,-1.005784 0.794238,-0.800114 -1.151642,-1.13373 -1.151641,-1.133729 -0.197592,0.224131 c -0.10868,0.123272 -0.472031,0.506093 -0.807456,0.850713 l -0.609863,0.626583 1.115952,1.080466 c 1.330315,1.288016 1.052298,1.248462 2.008004,0.28568 z m -10.260347,-1.635641 -1.870178,-1.871933 -0.187366,0.187365 -0.187367,0.187367 1.87018,1.871933 1.870178,1.871934 0.187365,-0.187366 0.187367,-0.187366 z m 2.388914,1.27272 c 0,-0.05692 -0.821685,-0.92436 -1.825965,-1.92765 l -1.825966,-1.824165 -0.209898,0.209899 -0.209898,0.209897 1.867955,1.869708 c 1.909455,1.911246 2.203772,2.106541 2.203772,1.462311 z m 0.519059,-0.433775 c 0.16562,-0.183008 -3.220267,-3.836798 -3.555475,-3.836798 -0.661321,0 -0.484529,0.271447 1.415287,2.173047 2.038587,2.040499 1.898083,1.931273 2.140188,1.663751 z m -1.076493,-2.660519 -1.876008,-1.876009 -0.210204,0.210202 -0.210203,0.210204 1.868541,1.870296 1.868543,1.870296 0.217669,-0.204491 0.217671,-0.204491 z m 2.259771,1.479164 c 0.276244,-0.249997 0.253942,-0.279474 -1.652302,-2.183839 l -1.823624,-1.821824 -0.240613,0.226043 -0.240612,0.226044 1.852572,1.85431 c 1.018913,1.019871 1.870725,1.85431 1.892913,1.85431 0.02219,0 0.117439,-0.06977 0.211666,-0.155044 z m 0.66897,-0.668644 c 0.257941,-0.285022 -3.491321,-3.978063 -3.776557,-3.719927 l -0.1958,0.177196 1.85358,1.85532 c 2.01909,2.020985 1.901586,1.927404 2.118777,1.687411 z m 28.075471,-7.704904 c 0.339986,-0.244996 0.181081,-0.320421 -0.752131,-0.357005 -1.997857,-0.07832 -3.801051,1.337929 -4.004777,3.145398 l -0.0469,0.415982 2.284879,-1.517864 c 1.256684,-0.834826 2.390197,-1.593756 2.518917,-1.686511 z m -0.692297,-6.565258 c 0.921876,-0.933456 1.734757,-1.758433 1.806401,-1.833283 0.134341,-0.140354 -0.536783,-0.966304 -0.785169,-0.966304 -0.125023,0 -3.607666,3.603155 -3.607666,3.732506 0,0.09874 0.73734,0.764274 0.846741,0.764274 0.03495,0 0.817815,-0.763737 1.739693,-1.697193 z"
       id="path1" /><text
       xml:space="preserve"
       style="font-style:normal;font-variant:normal;font-weight:normal;font-stretch:normal;font-size:9.04163px;line-height:0.1;font-family:Georgia;-inkscape-font-specification:'Georgia, Normal';font-variant-ligatures:normal;font-variant-caps:normal;font-variant-numeric:normal;font-variant-east-asian:normal;text-align:start;letter-spacing:0.866491px;writing-mode:lr-tb;direction:ltr;text-anchor:start;fill:#000000;stroke-width:0.335293;stroke-linecap:round;stroke-linejoin:round"
       x="17.226149"
       y="81.638077"
       id="text1"><tspan
         sodipodi:role="line"
         id="tspan1"
         style="font-style:normal;font-variant:normal;font-weight:normal;font-stretch:normal;font-size:9.04163px;font-family:Georgia;-inkscape-font-specification:'Georgia, Normal';font-variant-ligatures:normal;font-variant-caps:normal;font-variant-numeric:normal;font-variant-east-asian:normal;stroke-width:0.335293"
         x="17.226149"
         y="81.638077">Under Construction</tspan></text></g></svg>
